<?xml version="1.0" encoding="utf-8"?>
<!-- Generator: Adobe Illustrator 22.0.1, SVG Export Plug-In . SVG Version: 6.00 Build 0)  -->
<svg version="1.1" id="Layer_1" xmlns="http://www.w3.org/2000/svg" xmlns:xlink="http://www.w3.org/1999/xlink" x="0px" y="0px"
	 viewBox="0 0 800 800" style="enable-background:new 0 0 800 800;" xml:space="preserve">
<style type="text/css">
	.st0{fill:#A3C9C8;}
	.st1{fill:#CF7DDB;}
	.st2{fill:#69A3B2;}
</style>
<g>
	<path class="st0" d="M489,258.5c0,60.5-35,113.3-86.8,141.5c-51.9-28.2-86.8-81-86.8-141.5s35-113.3,86.8-141.5
		C454.1,145.2,489,198,489,258.5z M402.2,400c-51.9,28.2-86.8,81-86.8,141.5s35,113.3,86.8,141.5c51.9-28.2,86.8-81,86.8-141.5
		S454.1,428.2,402.2,400z"/>
</g>
<circle class="st1" cx="402" cy="402" r="120.6"/>
<g>
	<path class="st2" d="M541.7,486.2c-60.5,0.5-113.6-34.1-142.2-85.8c27.8-52.1,80.3-87.5,140.8-87.9c60.5-0.5,113.6,34.1,142.2,85.8
		C654.7,450.3,602.2,485.7,541.7,486.2z M399.5,400.4c-28.6-51.7-81.7-86.2-142.2-85.8c-60.5,0.5-113,35.8-140.8,87.9
		c28.6,51.7,81.7,86.2,142.2,85.8C319.2,487.9,371.7,452.5,399.5,400.4z"/>
</g>
</svg>
