<?xml version="1.0" encoding="utf-8"?>
<!-- Generator: Adobe Illustrator 22.0.1, SVG Export Plug-In . SVG Version: 6.00 Build 0)  -->
<svg version="1.1" id="Calque_1" xmlns="http://www.w3.org/2000/svg" xmlns:xlink="http://www.w3.org/1999/xlink" x="0px" y="0px"
	 viewBox="0 0 800 800" style="enable-background:new 0 0 800 800;" xml:space="preserve">
<style type="text/css">
	.st0{fill:#A3C9C8;}
	.st1{fill:none;}
	.st2{fill:#54ABC6;}
	.st3{fill:#F200FF;}
	.st4{fill:#CF7DDB;}
	.st5{fill:#D300FF;}
	.st6{fill:#B740CC;}
	.st7{fill:#EC00FF;}
	.st8{fill:#69A3B2;}
	.st9{fill:#C439BA;}
	.st10{fill:#FFFF00;}
</style>
<g>
	<path class="st0" d="M487,256.5c0,60.5-35,113.3-86.8,141.5c-51.9-28.2-86.8-81-86.8-141.5s35-113.3,86.8-141.5
		C452.1,143.2,487,196,487,256.5z M400.2,398c-51.9,28.2-86.8,81-86.8,141.5s35,113.3,86.8,141.5c51.9-28.2,86.8-81,86.8-141.5
		S452.1,426.2,400.2,398z"/>
</g>
<line class="st1" x1="0" y1="0" x2="800" y2="800"/>
<g id="corner">
	<polygon class="st2" points="0,431.3 0,800 368.7,800 	"/>
	<rect y="744" class="st3" width="56" height="56"/>
</g>
<circle class="st4" cx="400" cy="400" r="120.6"/>
<g id="corner_00000047035832353310541770000009340369907053791362_">
	<polygon class="st2" points="431.3,800 800,800 800,431.3 	"/>
	<rect x="744" y="744" class="st5" width="56" height="56"/>
</g>
<g id="corner_00000151510698322578847030000008314065737205412256_">
	<polygon class="st2" points="799.8,368.6 799.8,-0.1 431.1,-0.1 	"/>
	<rect x="743.8" y="-0.1" class="st6" width="56" height="56"/>
</g>
<g id="corner_00000147213953832086103480000009612942328104425096_">
	<polygon class="st2" points="368.7,0 0,0 0,368.7 	"/>
	<rect y="0" class="st7" width="56" height="56"/>
</g>
<g>
	<path class="st8" d="M539.7,484.2c-60.5,0.5-113.6-34.1-142.2-85.8c27.8-52.1,80.3-87.5,140.8-87.9c60.5-0.5,113.6,34.1,142.2,85.8
		C652.7,448.3,600.2,483.7,539.7,484.2z M397.5,398.4c-28.6-51.7-81.7-86.2-142.2-85.8c-60.5,0.5-113,35.8-140.8,87.9
		c28.6,51.7,81.7,86.2,142.2,85.8C317.2,485.9,369.7,450.5,397.5,398.4z"/>
</g>
<circle class="st9" cx="400.2" cy="398" r="51.9"/>
<circle class="st10" cx="400.2" cy="397.3" r="25"/>
<circle class="st9" cx="56" cy="400" r="51.9"/>
<circle class="st9" cx="397.5" cy="56" r="51.9"/>
<circle class="st9" cx="400.2" cy="744" r="51.9"/>
<circle class="st9" cx="744" cy="397.3" r="51.9"/>
</svg>
