
<svg version="1.1" id="Calque_1" xmlns="http://www.w3.org/2000/svg" xmlns:xlink="http://www.w3.org/1999/xlink" x="0px" y="0px"
	 viewBox="0 0 800 600" style="enable-background:new 0 0 800 600;" xml:space="preserve">
<style type="text/css">
	.st0{fill:#FFFFFF;}
</style>
<g>
	<g>
		<path class="st0" d="M467.5,0C578.3,0,689.1,0,800,0c0,200,0,400,0,600c-68.3,0-136.6,0-205,0c0.7-3.4,1.1-7.2,2.3-10.1
			c2.7-6.5,3.4-13.5,4-20.8c0.5-5.4,2-11.1,4-15.7c2.1-4.7,4-8.9,3.5-14.7c-0.5-5.2,1.1-9.7,3.4-13.4c2.9-4.7,4.1-10,3.9-16.3
			c-0.1-3.3,0.3-7.8,1.7-9.9c3.5-5,4.8-10.4,4.7-17.2c-0.1-8,2.4-15.1,7.2-18.6s5.6-8.4,5.5-15.3c-0.1-6.6,0.1-13.4,1.1-19.9
			c1-6.5,3.2-12.6,4.6-19c1.4-6.7,2-13.8-0.9-19.9c-4.5-9.4-9.3-18.6-14.4-27.4c-2.2-3.8-5.3-6.6-9.3-6c2.1,1.8,4.6,3,6,5.4
			c5.3,8.6,10.3,17.5,15.1,26.7c2,3.8,2.7,8.8,1.3,13.9c-1.8-1.1-3.1-2.6-4.4-2.7c-3-0.1-3.5-2.3-3.6-6c-0.1-3.8-6-11.9-8.5-12.3
			c-0.2,0-0.4,0.2-0.6,0.1c-0.9-0.3-1.8-0.5-2.7-0.9c-0.7-0.3-1.3-0.6-2-0.9c-0.2,0.3-0.4,0.7-0.5,1c1.5,3.6,3.2,7.1,4.6,10.9
			c1,2.7,1.2,6.3,5.1,5.7c-3.3,2.8-4.7,1.5-5.5-2c-3.2-13.4-10.2-21.8-18.2-28.8c-0.7-0.6-1.5-0.7-3.1-1.3c0.8,1.9,1.1,2.8,1.5,3.3
			c4.6,6.5,9.4,12.6,13.7,19.5c2.3,3.8,3.7,8.9,5.4,13.4c0.2,0.5-0.1,1.4-0.3,2c-1.5,7.2-3,14.4-4.6,21.6c-0.2,0.9-0.5,1.8-1,3.1
			c-2.3-3.7-4.3-7.2-6.5-10.1c-2.5-3.2-5.6-5.4-7.9-8.7c-2-2.9-4.1-4.2-6.9-4c-3.5,0.4-4.1-0.5-3.2-5.6c1.5-9.4,3.4-18.8,4.7-28.3
			c0.8-6.3,3.2-9.7,7.3-11.3c2.5-1,5-2.3,8.2-3.8c-7.2-3-14.8,2.4-16.6,11.2c-1.7,8.6-3.1,17.3-4.8,25.9c-0.4,2-1.5,4.4-2.8,5.3
			c-4.7,3.5-5.8,7.9-4.1,15.1c2.3,9.4,0.3,18.7-0.9,28c-0.1,0.5-0.4,1.1-0.8,1.4c-4.7,3.6-3.9,9.5-3.6,15.6
			c0.3,4.6-0.3,9.2-0.6,13.9c-0.4,0.1-0.8,0.1-1.2,0.2c-0.3-1-0.9-2.1-0.9-3.1c-0.1-2.2,0.1-4.5,0.2-6.7c1.1-19.3,1.2-38.6-2-57.4
			c-2.2-13-5.8-25.5-8.7-38.2c-0.4-1.8-1-3.9-0.7-5.6c2.3-11.6,0.3-23.1-0.3-34.6c-0.3-6-2-11.3-5.1-15.5c5.5,15,6.2,30.6,3.2,47.8
			c-2.7-4.6-4.8-8.4-7-12.2c-0.3,0.3-0.5,0.6-0.8,0.9c0.3,0.9,0.5,1.9,0.9,2.5c8.1,13.2,11.3,29.6,14.7,45.9
			c3.2,15.4,3.5,31.1,3.6,46.9c0.1,18.8-1.1,37.2-4.9,55.2c-1.8,8.5-2.7,17.1-1.5,26c0.6,4.3,0.1,8.8-2.4,12
			c-2.3,2.9-2.5,6.3-2.3,10.5c0.2,3.3-0.7,6.6-1,10c-0.3,0-0.7,0-1-0.1c-0.3-0.6-0.6-1.1-0.8-1.7c-1.6-4.4-3.9-5.8-7.3-4.2
			c-3.1,1.6-6.4,2.8-9.5,4.3c-3.2,1.6-6.3,4.3-9.6,4.8c-9.8,1.6-19.5,0.8-29-3.8c-3.3-1.6-6.5-3-9.7-4.9
			c-7.8-4.6-15.5-9.1-23.2-14.1c-4.3-2.9-8.2-6.9-13.2-7.5c-2-0.2-3.9-1.8-5.7-3.2c-4.4-3.4-8.7-6.9-13-10.5
			c-6.8-5.7-13.6-11.4-20.3-17.5c-0.9-0.8-1.6-4.2-1.1-5.5c1.2-3.6,2.6-7.4,4.7-9.9c4.8-5.9,10-11.1,15-16.5c3.3-3.6,7.1-4.3,11.2-4
			c11.3,0.9,22.6,1.5,34,1.7c10.6,0.2,21.2-1.9,31.5,5.6c12.7,9.4,24.3,19.7,30.9,38.9c0.1,0.2,0.3,0.2,0.9,0.6
			c0.9-4.7-0.2-8.7-2-12c-2.4-4.6-5.2-9-8.1-12.9c-2.1-2.8-2.6-5.1-1.1-8.8c4.5-11.2,7-23.6,9-36.1c1.9-12,2.3-24.3,2.2-36.5
			c0-3.6-3.4-7.4-6.1-6.4c1.7,2.8,5.2,4.5,3.1,9.9c-1.3-0.6-2.7-1.1-4.6-2c1.6,3.3,2.8,5.8,4.3,9c-2-0.2-3-0.3-4.7-0.4
			c1.2,2.6,2,4.5,2.5,5.5c-0.5,2.4-0.9,4-1.1,5.8c-0.3,2.6-0.2,5.3-0.8,7.7c-3.1,12.8-8.1,24.1-13.3,35.3c-1.3,2.7-2.4,3.1-4.4,1.6
			c-3.6-2.7-7.2-5.6-11-7.4c-2.9-1.4-3.9-3.7-4.3-7.6c-1.4-15.6-1.6-31.2-0.3-46.8c0.1-1.1-0.1-2.3-0.1-3.5c-0.3,0-0.6,0-1-0.1
			c-0.3,2.9-0.6,5.9-1,8.8c-1.5,12.1-7.5,20-13.4,27.6c-4.4,5.6-6.5,5.5-11.2,0.5c-7.4-7.8-14.7-15.6-22.1-23.4
			c-4.7-5-5-6.8-1.7-13.9c0.5-1,1.1-1.9,1.5-2.9c4.3-9.5,8.5-19,12.7-28.6c1.4-3.3,2.4-7,3.9-10.1c5-10.1,10.2-19.9,15.3-29.9
			c0.6-1.2,0.6-3,0.9-4.6c-1.1,0.3-2.5,0.1-3.4,0.9c-3.6,3.3-7.1,6.4-11.2,8.2c-7.4,3.3-13.9,9.3-20.4,15c-5,4.4-10.1,8.2-15,12.6
			c-4.1,3.7-7.9,8.4-12,12c-2.8,2.5-5.9,4.3-9,5.8c-0.8,0.4-2.6-0.8-3.2-2.1c-2.7-5.3-2.6-5.5-5.6-0.6c-1.5,2.4-2.5,3.6-4.1-0.3
			c-2.4-5.8-4.3-5.6-6.7,0.2c-0.5,1.1-0.8,2.6-1.4,3.4c-0.6,0.8-1.9,1.5-2.5,1.1c-5.5-3.9-11-7.9-16.3-12.3
			c-6.2-5.1-12.2-10.9-18.6-15.6c-9.3-6.9-18.8-13.1-28.3-19.6c-0.5-0.3-1-0.7-1.5-0.8c-2.1-0.5-3.2,1.2-2.2,3.8c1,2.7,2.5,5,4,7.4
			c5.4,8.9,11,17.5,14.3,28.5c0.7,2.3,1.3,4.9,2.4,6.7c7.4,11.6,12.1,25.6,16.9,39.5c0.5,1.5,0.8,3.6,0.4,5.1
			c-1.1,4.4-9.9,11.8-13.1,11.4c-0.6-0.1-1.4-0.8-1.8-1.5c-7-10-14.1-19.8-20.9-30c-4.1-6.2-6.7-15.3-14.3-14.2
			c-1.3,0.2-2.5,0.5-3.8,0.8c0.9,1.4,1.7,1.9,2.5,2c2.2,0.2,4.6-0.1,3.9,5c0,0.2,1.8,1.5,2.5,1.2c0.7-0.3,1.1-1.9,1.6-2.8
			c9,13.8,17.6,27.1,26.6,40.9c-1.3,1.1-2.4,2.3-3.6,2.9c-4.1,2.1-8.3,3.8-12.4,6c-4.4,2.3-8.6,2.1-12.7-0.9
			c-2.6-1.9-5.1-3.9-7.7-5.9c-4.3-3.5-4.9-5.6-3.2-13.5c1,0.6,1.9,1.2,2.7,1.8c4,3.1,8,6.5,12,9.4c1.8,1.3,3.8,1.6,5.8,2.3
			c-6.2-7.3-12.7-13.2-18.8-19.8c-2.7-2.9-5-3.4-8-1.4c-6,4-12.1,7.5-18.9,11.7c-0.2-3.8-0.3-6.2-0.4-9c4.2,2.1,4.1,2,5.4-3.5
			c0.4-1.6,1.9-3.1,3.1-3.8c5.7-3.3,11.4-6.4,17.2-9.3c1.1-0.6,2.8-0.5,3.8,0.3c2.9,2.6,5.5,5.8,8.2,8.8c2,2.3,4.1,4.5,6.1,6.8
			c0.3-0.5,0.5-0.9,0.8-1.4c-1.3-1.5-2.6-3.1-3.9-4.7c-1.7-2-3.6-3.6-5-6c-4.5-7.5-7.2-8.2-13.6-4.7c-5,2.8-10.4,4.4-15.7,6.6
			c-0.8-12.2-0.2-14.3,3.8-15c0.3,2.6,0.6,5.2,1,9.1c3.4-6,3.8-14.7,10.4-13.3c-4.7-1.7-9.1-3.3-13.4,1.3c-2.5,2.7-5.2,5-7.9,7.2
			c-4,3.2-5.2,6.2-4.3,12.8c0.4,2.8,0,3.9-1.9,4.9c-2.6,1.4-4.4,4.6-4.2,8.6c0.3,5.5,0.5,10.9-1.6,15.9c-0.3,0.8-0.2,2.1,0,3
			c1,3.7,2.1,7.4,3.1,11c0.3,1.2,0.5,2.4,0.7,3.6c-0.3,0.2-0.5,0.3-0.8,0.5c-0.5-1-1.2-1.9-1.6-3c-1.7-5.9-3.5-11.8-5-17.8
			c-1.3-5.1-3.3-10.2-0.3-15.5c0.1-0.2-0.1-0.8-0.3-1.5c-1.1,0.1-2.1,0.2-3.6,0.3c0.2-2.8,0.4-5.2,0.6-7.8c-1.4-0.6-2.5-1.2-4.2-2
			c-0.5,4.8-1.6,9.1-1.3,13.2c1.5,22.2,5.9,43.2,13.5,62.7c1.2,3,1.3,5.5,0,8.3c-1.6,3.8-3.3,7.6-4.8,11.5c-0.6,1.5-0.6,3.5-0.9,5.2
			c0.4,0.2,0.8,0.3,1.1,0.5c0.5-1,1-2,1.4-3.1c1.5-3.9,2.6-8.3,4.4-11.8c7.5-14.4,16.7-26.3,28.2-33.8c15.4-10,31.3-18.4,47.7-25
			c9.5-3.8,18.7-9,28.1-13.4c7.8-3.6,15.7-6.8,23.6-10.2c10-4.4,20.1-8.6,30.1-13.1c3.9-1.7,7.2-0.5,10.3,2.7
			c6,6.3,11.9,12.9,18,19.2c6.9,7.2,14,14,20.8,21.3c3,3.3,5.6,7.5,8.4,11.3c-0.2,0.4-0.4,0.8-0.5,1.2c-0.9,0-1.8,0.1-2.6,0
			c-3.9-0.5-7.9-1.8-11.8-1.3c-6.1,0.8-10.2-4.1-15-8.1c-8.3-7.1-16.8-13.5-25.5-19.6c-3.8-2.7-5.5-0.9-6.7,4.8
			c-0.5,2.6-1.3,4.1-3.5,3.6c-1-0.3-2.5,0.5-3.4,1.5c-12.2,15.3-24.3,30.8-36.6,46c-7.5,9.4-15.2,18.6-23.1,27.3
			c-11,12.1-22.8,22.3-34.5,32.9c-15.6,14.1-33.1,14.6-50.4,18c-0.5,0.1-1.6-1.2-1.6-1.8c0.1-1.5,0.6-2.9,1-4.6
			c1,1.2,1.7,1.9,2.4,2.7c3.7-6.5,8.7,0.2,13.6-3.3c-6.4-2.5-11.8-6-17.7-3.8c-2,0.7-3.8,3.1-5.2,5.2c-0.7,1-0.4,3.3-0.6,5
			c0.3,0.1,0.7,0.2,1,0.3c0.9-1.6,1.9-3.3,2.8-4.9c0.3,0.1,0.6,0.3,0.9,0.4c-0.4,2.2-0.2,5.5-1.2,6.5c-2.5,2.6-5.6,4.2-8.5,6
			c-0.3,0.2-1.2-1.1-1.7-1.7c-6.2-7.8-9.6-18.6-14.2-28c-5.3-10.6-8.1-23.3-9.9-36c-3.5-24.2-5.5-48.7-2-73.3
			c2.1-14.7,4.5-29.5,7.9-43.6c3.5-14.4,8.5-28.1,12.9-42.2c0.2-0.5-0.1-1.3-0.1-1.9c-0.2-0.1-0.4-0.3-0.6-0.4
			c-2,4.4-3.9,8.9-6.2,14c-2.9-26,12.3-65,25.6-66.8c-0.2,1.9-0.4,3.9-0.6,5.9c0.3,0.1,0.7,0.3,1,0.4c0.5-1.4,1.1-2.7,1.5-4.1
			c2-6.1,5.2-10.6,9.2-13.5c10.3-7.7,21.1-7.6,31.8-2.3c6.5,3.2,12.6,7.3,19.6,8.1c10.8,1.1,20.3,8.2,30.3,13.2
			c6.7,3.4,13.8,5.4,20.9,6.9c5,1.1,9.8,6,10.2,13.3c0.3,4.7,1.9,6.5,4.8,6.3c4.1-0.4,8.3-1.1,12.3-2.2c0.8-0.2,2-3.1,1.8-4.6
			c-0.5-5.9,1.7-9.2,4.7-12.1c0.6-0.6,1.3-1.1,2-1.7c-0.1-0.4-0.2-0.9-0.4-1.3c-2.1,1.1-4.3,2.2-7,3.6c3-12.6,10.7-8,16.1-11.4
			c-6.4,0-12.9,0-19.3,0c0-0.4,0-0.9,0-1.3c3.2-0.3,6.4-0.5,8.6-0.7c3-11.2,5.6-21.1,8.4-31.4c-1.1-0.3-2.5-0.6-4.2-1.1
			c1.2,9.9-1.6,17.6-4.3,25.3c-2.5,7.3-7.6,7.9-10.7,1.2c-1.5-3.3-3.4-4.4-5.9-3.3c-1.7,0.7-3.4,1.6-4.8,2.9
			c-3.1,2.8-8.7,1.1-10.2-3.6c-1.5-4.7-2.8-9.6-4.2-14.4c-0.3-1.2-0.9-2.2-1.3-3.4c-0.3,0.2-0.6,0.4-0.9,0.5c1,6.4,2,12.8,3,19.2
			c-6.1,2.2-27.4-2.4-31.4-7.1c12.7-13,16.8-31.9,16.8-53.8c1.4,1.1,2.1,1.4,2.7,2c2.9,3.3,5.8,6.8,8.7,10.1
			c4.1,4.5,7.5,10.6,12.8,12.2c3.6,1,7.4,1.6,11,1.8c6.8,0.3,13.6-1.1,19.6-5.9c4-3.2,7.6-7.4,11.4-11.2c3-3,3.3-2.6,3.9,2.6
			c0.6,5.1,1.3,10.3,2.4,15.2c2.2,10.4,6.2,19.5,11.2,27.6c1.6,2.6,1,3.6-1.1,4.5c-3.5,1.5-6.8,3.5-10.2,5.3
			c0.1,0.4,0.2,0.8,0.2,1.1c5.1-2,10.2-3.9,15.3-6.1c5.1-2.3,10.1-2.6,15.2,0.4c-5.9,2.2-11.8,2.9-17.6,4.5
			c-6,1.6-11.8,4.1-17.7,6.3c1,0.5,2,0.7,2.9,0.4c4.8-1.6,9.5-3.5,14.3-4.9c3.4-1,7-2.3,10.4-1.6c1.7,0.4,3.2,0.8,4.8,0.1
			c2.9-1.3,5.8-2.3,8.6-3.9c3.6-1.9,7-4.5,10.6-6.3c4.1-2.1,8.3-3.7,12.4-5.4c1.4-0.6,2.9-0.7,4.4-1c0.1-0.4,0.1-0.9,0.2-1.3
			c-4.1,1.2-6.3-1.3-7.5-6.4c-0.3-1.4-1.2-2.4-1.8-3.7c-1.3-2.7-2.3-5.6-3.7-8.1c-3.8-6.9-5.7-16.2-12.4-19.3
			c-0.5-0.2-0.9-1.2-1.2-1.8c-1.2-2.2-2.1-4.9-3.6-6.5c-3.8-4.2-7.1-9.3-12.3-11c-3.2-1.1-5.9-5.3-9-7.6c-1.9-1.4-2.4-3.1-1.5-5.7
			c0.9-2.6,1.1-6.5,4.1-4.9c3.5,2,7.2,3.9,10.3,7c4.1,4,7.3,10.1,11.6,13.3c4.8,3.6,8.4,8.5,11.8,14c0.3,0.6,0.8,1.1,1.2,1.4
			c7.1,5.7,11.6,15.2,16.7,23.9c1.8,3,2.8,7,3.8,10.7c0.4,1.6-0.1,3.7-0.2,6.1c2.7,0.7,5.9,1.5,9.2,2.2c-1.1-1.7-2.4-2.2-3.6-3.1
			c-0.9-0.7-2-1.7-2.5-3c-2.4-5.9-4.2-12.3-6.9-17.8c-3.5-7.2-7.1-14.6-11.7-20.2c-5.4-6.6-9.3-16.4-17-18.6c-0.1,0-0.2-0.2-0.3-0.3
			c-6.2-7.8-13-14.4-20.8-18.4c-0.7-0.4-1.6-3.1-1.4-3.9c1.2-3,2.5-6.1,4.3-8.4c7.8-10.1,13.8-21.4,14.5-37.2
			c0.1-3.4,1.6-4.1,3.7-3.7c5.2,0.9,6.2-1.1,4.9-8.8c-1.1-6.5-1.6-13.1-2.1-19.8c-0.3-3.7,1.1-5.4,3.9-4.7c2.2,0.6,4.6,0.8,6.8,0.8
			c1.6-0.1,3.3-0.9,4.9-1.5c-0.8-2.2-1.5-4.4-2.3-6.5c0-0.1-0.1-0.2-0.2-0.3c-5.4-9.3-9.2-19.8-10.9-31.8
			c-1.4-9.8-3.1-19.5-7.3-27.8c-1.4-2.7-0.6-4.4,1.7-4.9c4.5-1,9-1.9,13.5-3.1c1-0.3,1.9-1.5,2.8-2.3c-0.7-1-1.3-2.6-2.2-3.1
			C483.4,22.8,475.5,11.3,467.5,0z M451.1,494c0,0.2,0,0.3,0,0.5c1.1,0.8,2.3,1.5,3.2,2.5c6.3,6.8,13.4,11.5,21,14.4
			c4.6,1.8,9.4,2.5,14.1,3.7c2.5,0.7,5,2,7.5,2c3.8,0,7.5-2.1,11.2,1c0.4,0.3,1.3-0.5,1.9-0.8c1.1-0.5,2.1-1.2,3.2-1.5
			c2.5-0.7,5.2-1,7.7-1.8c1-0.4,1.8-1.9,2.7-2.9c-0.8-1.1-1.7-2.3-2.5-3.3c-3.8-4.2-10.6-1.7-12.2-10.9c0,0-0.2,0-0.3,0
			c-0.1,0.2-0.4,0.3-0.5,0.5s-0.3,0.5-0.2,0.8c0.5,5.4-1.3,5.9-4.2,4.2c-0.3-0.2-0.6-0.1-0.9-0.1c-11,1.5-21.8-1.5-32.6-3.6
			C463.8,497.2,457.5,495.5,451.1,494z M337.3,484c-1.7,1.5-3.4,3-5.1,4.6c-7.7,7.4-15.9,13.5-25,16.7c-3.5,1.2-7.3,1.4-10.7,3.1
			c-6,2.9-11.8,6.6-17.6,10.1c-1,0.6-1.7,1.9-2.5,2.9c1,0.8,2,2.4,3,2.4c7.2,0.4,14.3,0.5,21.5,0.6c1.1,0,2.2-0.9,3.2-1.8
			c7.7-7.1,15.5-14,22.9-21.6C331.3,496.8,335.3,491.7,337.3,484z M318.2,311.3c-4.4,0.5-7.9,1.6-10.5,6.6c-3.8,7.3-5,15.6-5.5,24.3
			c-0.1,3.3,0.6,6.7,1,10.6c6.2-10.9,11.8-21,17.5-31c-0.2-0.3-0.4-0.6-0.5-0.9c-2.9,3.4-5.7,6.9-8.6,10.3c-0.3-0.4-0.5-0.9-0.8-1.3
			c3.6-5.4,7.3-10.7,11.5-16.9c-1.5-2.2-3.2-4.9-5-7.5c-0.3,0.3-0.5,0.6-0.8,1C317,307.7,317.5,309.1,318.2,311.3z M485.3,312.5
			c1,1.8,1.5,3.5,2.4,4.5c6.2,6.7,10.3,15.8,14.5,24.7c0.7,1.5,1.8,2.7,2.7,4c0.3-0.3,0.5-0.6,0.8-0.9c0.3-8-1.3-15.4-3.9-22.3
			C498.3,313.2,492.5,309.7,485.3,312.5z M553.1,543.8c0.3-0.1,0.6-0.3,0.9-0.4c-0.7-2.9-1.3-5.7-2-8.5c1.6,0,2.8,0,4,0
			c-0.7-2.5-1.4-5.1-2.1-7.7c-1.1,0.8-2.5,1.2-3.1,2.4c-2.9,5.5-6,10.6-10.4,13.8c-1,0.7-1.7,2.1-2.6,3.2c0.2,0.6,0.5,1.1,0.7,1.7
			c2.3-1.7,4.7-3.1,6.8-5.1C549.6,539.4,549.6,539.3,553.1,543.8z M424.8,305.8c20.2,2.9,28.6-3.5,34.4-8.4
			c-5.4,1.6-11.1,3.6-16.9,5.1C436.5,303.9,430.7,304.7,424.8,305.8z M311.5,386.1c1.1-4.8-6.5-28-10.3-30.7
			C304.7,365.8,308.1,376,311.5,386.1z M533.7,285.6c2.8,6.8,5.2,12.8,7.7,18.8c0.3-0.2,0.5-0.4,0.8-0.5c-1.1-4-2.1-7.9-3.2-11.9
			c0.2-0.3,0.4-0.7,0.6-1c2.3,1.6,4.7,3.2,7,4.7c0.1-0.3,0.2-0.6,0.3-1C542.6,291.8,538.4,288.8,533.7,285.6z M329.6,428.1
			c-0.3,0.6-0.5,1.2-0.8,1.8c2.4,2.5,4.8,4.9,7.3,7.3c0.3-0.7,0.7-1.4,1-2.1C334.5,432.8,332,430.5,329.6,428.1z M266,323.4
			c0.8-3.6,1.6-7.3,2.4-11.4C265.4,314.7,264.4,318.3,266,323.4z M320,298c-0.3,0.4-0.5,0.8-0.8,1.2c1.9,2.9,3.8,5.9,5.8,8.8
			c0.3-0.4,0.6-0.8,0.9-1.2C324,303.9,322,301,320,298z M404,362.4c-0.3,0-0.6,0-0.9,0.1c0,3,0,5.9,0,8.9c0.3,0,0.6,0,0.9,0
			C404,368.3,404,365.3,404,362.4z"/>
		<path class="st0" d="M291.3,600c-97.1,0-194.2,0-291.3,0C0,400,0,200,0,0c100.6,0,201.3,0,301.9,0c1,2.8,1.8,6,3.2,8.5
			c4.4,8.1,9.8,14.5,16,19.7c3.5,2.9,6.9,6.2,11,9.8c-10.4,5.8-20.3,7.8-30.5,7.8c7.7,9.6,17.3,7.8,27.3,9.5
			c-4.7,10.5-9.3,19.7-13,29.5c-3.9,10.2-10,17-16.2,24.2c8.5,0.1,15.8-5.3,24.1-8.2c-0.1,2.6-0.1,4.7-0.4,6.7
			c-1.4,9.2-2.9,18.3-4.2,27.5c-0.3,2.3-0.4,5.7,0.5,7.1c0.8,1.3,3.4,1.2,4.8,0.5c2.7-1.4,3.3,0.6,3.9,3.4
			c3.1,15.4,8.7,28.5,17.5,38.8c2,2.4,3,6.9,4.2,10.6c0.2,0.6-0.8,3-1.5,3.2c-8.2,2.6-14.6,10.1-21.3,16.2
			c-7.9,7.2-14.6,17-21.4,26.4c-5,6.8-9.1,14.7-11.1,24.5c-1.3,6.4-3.3,11.6-8.6,12c-0.6,0-1.1,0.8-1.6,1.2
			c-3.8,3.1-7.5,6.4-11.3,9.4c-3.6,2.7-7.5,4.5-10.9,7.6c-8.2,7.7-14.2,18.1-15.9,32.3c-1.2,9.8-1.3,19.9-2,29.8
			c-0.2,3.4-0.4,6.9-1.1,10.1c-1.5,6.3-3.8,12.3-5,18.7c-2.7,14.1-5.4,28.2-7.2,42.5c-1.5,11.8-2,24-2.7,36
			c-1.3,24.2,1.2,47.6,8.3,69.8c4,12.4,8.6,24.5,13,36.6c1.6,4.5,3.3,9.1,5.6,12.8c1.7,2.8,4.3,5.6,6.8,6.4
			c8.4,2.8,16.9,3.4,25.2-1.5c2.9-1.7,4-0.6,4.1,4.1C291.4,595.5,291.3,597.8,291.3,600z"/>
		<path d="M291.3,600c0-2.2,0.1-4.5,0-6.7c-0.1-4.6-1.1-5.8-4.1-4.1c-8.3,4.8-16.8,4.2-25.2,1.5c-2.5-0.8-5.1-3.5-6.8-6.4
			c-2.3-3.8-4-8.3-5.6-12.8c-4.4-12.1-8.9-24.2-13-36.6c-7.2-22.1-9.7-45.5-8.3-69.8c0.7-12,1.2-24.2,2.7-36
			c1.9-14.3,4.5-28.5,7.2-42.5c1.2-6.4,3.5-12.4,5-18.7c0.8-3.2,0.9-6.7,1.1-10.1c0.7-9.9,0.9-20,2-29.8
			c1.7-14.2,7.7-24.6,15.9-32.3c3.4-3.1,7.3-4.9,10.9-7.6c3.8-2.9,7.5-6.2,11.3-9.4c0.5-0.5,1.1-1.2,1.6-1.2c5.3-0.4,7.3-5.6,8.6-12
			c2-9.7,6.1-17.7,11.1-24.5c6.8-9.3,13.5-19.2,21.4-26.4c6.7-6.1,13.2-13.7,21.3-16.2c0.7-0.2,1.7-2.6,1.5-3.2
			c-1.2-3.7-2.1-8.1-4.2-10.6c-8.8-10.3-14.3-23.4-17.5-38.8c-0.6-2.9-1.2-4.9-3.9-3.4c-1.5,0.8-4,0.8-4.8-0.5
			c-0.9-1.4-0.9-4.8-0.5-7.1c1.3-9.2,2.8-18.3,4.2-27.5c0.3-2,0.2-4.1,0.4-6.7c-8.2,2.9-15.6,8.3-24.1,8.2
			c6.2-7.2,12.3-14,16.2-24.2c3.8-9.8,8.3-19,13-29.5c-10-1.7-19.6,0.1-27.3-9.5c10.2,0,20.1-2,30.5-7.8c-4.1-3.7-7.5-6.9-11-9.8
			c-6.2-5.2-11.6-11.6-16-19.7c-1.4-2.5-2.1-5.7-3.2-8.5c2.1,0,4.2,0,6.3,0c1.1,0.7,2.2,2,3.3,2c7.9,0.2,15.7,0.2,23.6,0
			c1.7,0,3.4-1.3,5-2c42.5,0,85,0,127.5,0c8,11.3,15.9,22.8,26.6,28.9c0.9,0.5,1.5,2,2.2,3.1c-0.9,0.8-1.8,2.1-2.8,2.3
			c-4.5,1.2-9,2.1-13.5,3.1c-2.3,0.5-3,2.3-1.7,4.9c4.2,8.4,5.9,18,7.3,27.8c1.7,11.9,5.4,22.4,10.9,31.8c0.1,0.1,0.2,0.2,0.2,0.3
			c0.8,2.2,1.5,4.3,2.3,6.5c-1.6,0.5-3.3,1.4-4.9,1.5c-2.3,0.1-4.6-0.2-6.8-0.8c-2.8-0.7-4.2,1-3.9,4.7c0.5,6.6,1,13.3,2.1,19.8
			c1.3,7.7,0.3,9.7-4.9,8.8c-2-0.4-3.5,0.3-3.7,3.7c-0.7,15.7-6.7,27.1-14.5,37.2c-1.8,2.3-3.1,5.4-4.3,8.4
			c-0.3,0.7,0.6,3.5,1.4,3.9c7.9,4,14.6,10.6,20.8,18.4c0.1,0.1,0.2,0.2,0.3,0.3c7.8,2.2,11.7,12,17,18.6
			c4.6,5.6,8.2,13.1,11.7,20.2c2.7,5.5,4.6,11.9,6.9,17.8c0.5,1.3,1.5,2.3,2.5,3c1.2,0.9,2.6,1.5,3.6,3.1c-3.2-0.8-6.5-1.6-9.2-2.2
			c0.1-2.4,0.6-4.5,0.2-6.1c-1-3.7-2.1-7.7-3.8-10.7c-5-8.7-9.5-18.2-16.7-23.9c-0.5-0.4-0.9-0.9-1.2-1.4c-3.4-5.6-7.1-10.4-11.8-14
			c-4.3-3.3-7.5-9.3-11.6-13.3c-3.1-3-6.8-5-10.3-7c-3-1.7-3.3,2.3-4.1,4.9c-0.9,2.6-0.5,4.2,1.5,5.7c3.1,2.3,5.8,6.5,9,7.6
			c5.2,1.7,8.5,6.8,12.3,11c1.5,1.6,2.4,4.3,3.6,6.5c0.4,0.7,0.7,1.6,1.2,1.8c6.7,3.1,8.6,12.4,12.4,19.3c1.4,2.5,2.5,5.4,3.7,8.1
			c0.6,1.2,1.5,2.3,1.8,3.7c1.2,5.1,3.4,7.6,7.5,6.4c-0.1,0.4-0.1,0.9-0.2,1.3c-1.5,0.3-3,0.5-4.4,1c-4.2,1.7-8.4,3.3-12.4,5.4
			c-3.6,1.8-7,4.4-10.6,6.3c-2.8,1.5-5.8,2.5-8.6,3.9c-1.7,0.8-3.1,0.3-4.8-0.1c-3.3-0.8-6.9,0.6-10.4,1.6
			c-4.8,1.4-9.5,3.3-14.3,4.9c-0.9,0.3-1.9,0-2.9-0.4c5.9-2.1,11.7-4.6,17.7-6.3c5.8-1.6,11.8-2.4,17.6-4.5
			c-5.1-3-10.1-2.7-15.2-0.4c-5,2.3-10.2,4.1-15.3,6.1c-0.1-0.4-0.2-0.8-0.2-1.1c3.4-1.8,6.7-3.8,10.2-5.3c2.1-0.9,2.7-1.9,1.1-4.5
			c-5-8.1-9-17.2-11.2-27.6c-1-5-1.7-10.1-2.4-15.2c-0.6-5.2-0.9-5.6-3.9-2.6c-3.8,3.8-7.4,8-11.4,11.2c-6,4.8-12.8,6.2-19.6,5.9
			c-3.7-0.2-7.4-0.8-11-1.8c-5.4-1.5-8.8-7.6-12.8-12.2c-2.9-3.3-5.8-6.7-8.7-10.1c-0.5-0.6-1.2-0.9-2.7-2c0,21.9-4,40.8-16.8,53.8
			c4,4.7,25.3,9.3,31.4,7.1c-1-6.4-2-12.8-3-19.2c0.3-0.2,0.6-0.4,0.9-0.5c0.4,1.1,1,2.2,1.3,3.4c1.4,4.8,2.7,9.7,4.2,14.4
			c1.5,4.7,7.1,6.4,10.2,3.6c1.5-1.3,3.2-2.2,4.8-2.9c2.5-1,4.4,0.1,5.9,3.3c3,6.7,8.1,6.1,10.7-1.2c2.7-7.7,5.5-15.4,4.3-25.3
			c1.8,0.5,3.1,0.8,4.2,1.1c-2.8,10.3-5.4,20.2-8.4,31.4c-2.2,0.2-5.4,0.4-8.6,0.7c0,0.4,0,0.9,0,1.3c6.4,0,12.9,0,19.3,0
			c-5.4,3.4-13.1-1.2-16.1,11.4c2.7-1.4,4.8-2.5,7-3.6c0.1,0.4,0.2,0.9,0.4,1.3c-0.7,0.6-1.3,1.1-2,1.7c-3,2.8-5.2,6.2-4.7,12.1
			c0.1,1.5-1,4.3-1.8,4.6c-4,1.1-8.2,1.8-12.3,2.2c-2.9,0.3-4.5-1.6-4.8-6.3c-0.4-7.4-5.2-12.2-10.2-13.3c-7-1.5-14.2-3.6-20.9-6.9
			c-10-5-19.6-12-30.3-13.2c-7-0.7-13.2-4.9-19.6-8.1c-10.7-5.3-21.5-5.4-31.8,2.3c-4,3-7.3,7.5-9.2,13.5c-0.5,1.4-1,2.7-1.5,4.1
			c-0.3-0.1-0.7-0.3-1-0.4c0.2-2,0.4-3.9,0.6-5.9c-13.3,1.8-28.5,40.8-25.6,66.8c2.3-5.1,4.3-9.5,6.2-14c0.2,0.1,0.4,0.3,0.6,0.4
			c0,0.6,0.3,1.4,0.1,1.9c-4.3,14-9.3,27.7-12.9,42.2c-3.4,14.1-5.8,28.9-7.9,43.6c-3.5,24.5-1.5,49,2,73.3
			c1.8,12.7,4.7,25.4,9.9,36c4.6,9.4,8,20.2,14.2,28c0.5,0.7,1.4,1.9,1.7,1.7c2.9-1.8,5.9-3.4,8.5-6c1-1,0.8-4.3,1.2-6.5
			c-0.3-0.1-0.6-0.3-0.9-0.4c-0.9,1.6-1.9,3.3-2.8,4.9c-0.3-0.1-0.7-0.2-1-0.3c0.2-1.7-0.1-4,0.6-5c1.5-2.2,3.3-4.5,5.2-5.2
			c5.9-2.2,11.3,1.3,17.7,3.8c-4.9,3.5-9.9-3.1-13.6,3.3c-0.7-0.8-1.4-1.6-2.4-2.7c-0.4,1.7-1,3.1-1,4.6c0,0.6,1.1,1.9,1.6,1.8
			c17.2-3.4,34.7-3.9,50.4-18c11.7-10.5,23.5-20.8,34.5-32.9c7.9-8.7,15.5-17.9,23.1-27.3c12.3-15.2,24.4-30.8,36.6-46
			c0.8-1,2.3-1.8,3.4-1.5c2.2,0.5,3-0.9,3.5-3.6c1.2-5.7,2.9-7.4,6.7-4.8c8.6,6.1,17.2,12.5,25.5,19.6c4.7,4,8.8,8.9,15,8.1
			c3.9-0.5,7.9,0.8,11.8,1.3c0.9,0.1,1.8,0,2.6,0c0.2-0.4,0.4-0.8,0.5-1.2c-2.8-3.8-5.3-8-8.4-11.3c-6.8-7.4-13.9-14.1-20.8-21.3
			c-6-6.3-12-12.9-18-19.2c-3.1-3.2-6.5-4.4-10.3-2.7c-10,4.5-20.1,8.8-30.1,13.1c-7.9,3.4-15.8,6.6-23.6,10.2
			c-9.4,4.3-18.6,9.5-28.1,13.4c-16.4,6.6-32.2,15-47.7,25c-11.5,7.5-20.6,19.4-28.2,33.8c-1.9,3.5-3,7.9-4.4,11.8
			c-0.4,1.1-0.9,2.1-1.4,3.1c-0.4-0.2-0.8-0.3-1.1-0.5c0.3-1.8,0.4-3.7,0.9-5.2c1.5-3.9,3.2-7.7,4.8-11.5c1.2-2.8,1.1-5.3,0-8.3
			c-7.6-19.5-12-40.5-13.5-62.7c-0.3-4.1,0.8-8.4,1.3-13.2c1.6,0.8,2.8,1.4,4.2,2c-0.2,2.6-0.4,5-0.6,7.8c1.5-0.1,2.5-0.2,3.6-0.3
			c0.1,0.7,0.4,1.3,0.3,1.5c-2.9,5.3-1,10.5,0.3,15.5c1.6,6,3.3,11.9,5,17.8c0.3,1.1,1,2,1.6,3c0.3-0.2,0.5-0.3,0.8-0.5
			c-0.2-1.2-0.4-2.5-0.7-3.6c-1-3.7-2.1-7.3-3.1-11c-0.2-0.9-0.3-2.3,0-3c2.1-5,1.9-10.3,1.6-15.9c-0.2-4,1.5-7.2,4.2-8.6
			c1.9-1,2.3-2.1,1.9-4.9c-0.9-6.6,0.3-9.6,4.3-12.8c2.7-2.2,5.4-4.5,7.9-7.2c4.2-4.5,8.6-3,13.4-1.3c-6.6-1.4-7,7.3-10.4,13.3
			c-0.4-3.9-0.7-6.5-1-9.1c-4,0.7-4.6,2.8-3.8,15c5.4-2.2,10.7-3.9,15.7-6.6c6.4-3.5,9.1-2.8,13.6,4.7c1.4,2.3,3.3,4,5,6
			c1.3,1.5,2.6,3.1,3.9,4.7c-0.3,0.5-0.5,0.9-0.8,1.4c-2-2.3-4.1-4.5-6.1-6.8c-2.7-3-5.3-6.2-8.2-8.8c-0.9-0.9-2.6-0.9-3.8-0.3
			c-5.8,2.9-11.5,6-17.2,9.3c-1.2,0.7-2.7,2.2-3.1,3.8c-1.4,5.5-1.2,5.6-5.4,3.5c0.1,2.8,0.2,5.2,0.4,9c6.8-4.2,13-7.7,18.9-11.7
			c3-2,5.3-1.5,8,1.4c6.1,6.6,12.6,12.5,18.8,19.8c-1.9-0.8-4-1.1-5.8-2.3c-4.1-2.9-8-6.3-12-9.4c-0.9-0.7-1.8-1.2-2.7-1.8
			c-1.6,7.8-1.1,10,3.2,13.5c2.5,2,5.1,4.1,7.7,5.9c4.1,2.9,8.3,3.2,12.7,0.9c4.1-2.2,8.3-3.9,12.4-6c1.2-0.6,2.3-1.8,3.6-2.9
			c-9-13.8-17.6-27.1-26.6-40.9c-0.5,0.9-0.9,2.5-1.6,2.8c-0.8,0.3-2.5-1-2.5-1.2c0.8-5.1-1.6-4.8-3.9-5c-0.8-0.1-1.6-0.5-2.5-2
			c1.3-0.3,2.5-0.6,3.8-0.8c7.6-1,10.1,8,14.3,14.2c6.8,10.2,13.9,20,20.9,30c0.5,0.7,1.2,1.4,1.8,1.5c3.3,0.4,12-7,13.1-11.4
			c0.4-1.5,0.1-3.6-0.4-5.1c-4.8-13.9-9.5-27.8-16.9-39.5c-1.1-1.8-1.7-4.4-2.4-6.7c-3.3-11.1-8.9-19.6-14.3-28.5
			c-1.4-2.4-2.9-4.7-4-7.4c-1-2.6,0.1-4.4,2.2-3.8c0.5,0.1,1,0.5,1.5,0.8c9.4,6.5,19,12.7,28.3,19.6c6.4,4.7,12.3,10.6,18.6,15.6
			c5.3,4.3,10.8,8.3,16.3,12.3c0.6,0.4,1.8-0.3,2.5-1.1c0.7-0.8,1-2.3,1.4-3.4c2.4-5.7,4.3-6,6.7-0.2c1.6,3.9,2.6,2.7,4.1,0.3
			c3-4.9,2.9-4.7,5.6,0.6c0.6,1.2,2.4,2.5,3.2,2.1c3.1-1.5,6.2-3.3,9-5.8c4.1-3.7,7.9-8.3,12-12c4.9-4.5,10.1-8.3,15-12.6
			c6.5-5.7,13-11.7,20.4-15c4.1-1.9,7.6-5,11.2-8.2c0.9-0.8,2.3-0.6,3.4-0.9c-0.3,1.5-0.3,3.4-0.9,4.6c-5,10-10.3,19.9-15.3,29.9
			c-1.6,3.1-2.5,6.9-3.9,10.1c-4.2,9.6-8.5,19.1-12.7,28.6c-0.5,1-1,1.9-1.5,2.9c-3.3,7.1-3,8.9,1.7,13.9
			c7.4,7.8,14.7,15.6,22.1,23.4c4.7,5,6.8,5.2,11.2-0.5c6-7.6,11.9-15.5,13.4-27.6c0.4-2.9,0.7-5.9,1-8.8c0.3,0,0.6,0,1,0.1
			c0.1,1.2,0.3,2.4,0.1,3.5c-1.3,15.6-1.1,31.2,0.3,46.8c0.3,3.9,1.4,6.2,4.3,7.6c3.8,1.8,7.4,4.7,11,7.4c2,1.5,3.1,1.1,4.4-1.6
			c5.2-11.2,10.2-22.5,13.3-35.3c0.6-2.4,0.5-5.2,0.8-7.7c0.2-1.7,0.7-3.4,1.1-5.8c-0.5-1.1-1.3-2.9-2.5-5.5
			c1.7,0.2,2.7,0.3,4.7,0.4c-1.6-3.3-2.8-5.7-4.3-9c2,0.8,3.3,1.4,4.6,2c2.2-5.4-1.4-7.1-3.1-9.9c2.7-1,6,2.8,6.1,6.4
			c0.1,12.3-0.2,24.5-2.2,36.5c-2,12.5-4.5,24.9-9,36.1c-1.5,3.7-1,6,1.1,8.8c2.9,4,5.7,8.3,8.1,12.9c1.8,3.3,2.9,7.4,2,12
			c-0.5-0.3-0.8-0.4-0.9-0.6c-6.5-19.1-18.2-29.5-30.9-38.9c-10.3-7.6-20.8-5.4-31.5-5.6c-11.3-0.2-22.7-0.9-34-1.7
			c-4.1-0.3-7.9,0.4-11.2,4c-5.1,5.4-10.2,10.7-15,16.5c-2,2.5-3.5,6.3-4.7,9.9c-0.4,1.4,0.2,4.7,1.1,5.5
			c6.7,6.1,13.5,11.8,20.3,17.5c4.3,3.6,8.6,7.1,13,10.5c1.8,1.4,3.8,3,5.7,3.2c5,0.6,8.9,4.6,13.2,7.5c7.6,5,15.4,9.5,23.2,14.1
			c3.2,1.9,6.5,3.3,9.7,4.9c9.5,4.6,19.2,5.4,29,3.8c3.3-0.5,6.4-3.3,9.6-4.8c3.2-1.5,6.4-2.8,9.5-4.3c3.3-1.7,5.7-0.2,7.3,4.2
			c0.2,0.6,0.5,1.1,0.8,1.7c0.3,0,0.7,0,1,0.1c0.4-3.3,1.2-6.7,1-10c-0.3-4.2-0.1-7.6,2.3-10.5c2.5-3.2,3-7.6,2.4-12
			c-1.2-8.9-0.3-17.5,1.5-26c3.8-18,5-36.4,4.9-55.2c-0.1-15.9-0.3-31.6-3.6-46.9c-3.4-16.3-6.6-32.7-14.7-45.9
			c-0.4-0.7-0.6-1.7-0.9-2.5c0.3-0.3,0.5-0.6,0.8-0.9c2.2,3.8,4.3,7.6,7,12.2c3-17.2,2.3-32.8-3.2-47.8c3.1,4.3,4.7,9.5,5.1,15.5
			c0.6,11.5,2.7,23,0.3,34.6c-0.3,1.6,0.3,3.8,0.7,5.6c2.9,12.7,6.5,25.2,8.7,38.2c3.2,18.8,3.1,38.1,2,57.4
			c-0.1,2.2-0.3,4.5-0.2,6.7c0,1.1,0.6,2.1,0.9,3.1c0.4-0.1,0.8-0.1,1.2-0.2c0.2-4.6,0.8-9.3,0.6-13.9c-0.3-6.1-1.1-12,3.6-15.6
			c0.3-0.3,0.7-0.9,0.8-1.4c1.3-9.3,3.3-18.6,0.9-28c-1.8-7.1-0.6-11.6,4.1-15.1c1.3-0.9,2.4-3.3,2.8-5.3c1.8-8.6,3.1-17.3,4.8-25.9
			c1.8-8.8,9.4-14.2,16.6-11.2c-3.2,1.5-5.6,2.9-8.2,3.8c-4.2,1.6-6.5,5-7.3,11.3c-1.3,9.5-3.2,18.8-4.7,28.3
			c-0.8,5.2-0.3,6,3.2,5.6c2.8-0.3,4.9,1,6.9,4c2.3,3.3,5.5,5.5,7.9,8.7c2.3,2.9,4.2,6.5,6.5,10.1c0.4-1.4,0.8-2.2,1-3.1
			c1.5-7.2,3.1-14.4,4.6-21.6c0.1-0.7,0.5-1.6,0.3-2c-1.7-4.5-3-9.6-5.4-13.4c-4.2-6.9-9.1-13-13.7-19.5c-0.4-0.6-0.6-1.4-1.5-3.3
			c1.6,0.6,2.5,0.7,3.1,1.3c8,7,15.1,15.4,18.2,28.8c0.8,3.5,2.2,4.8,5.5,2c-3.9,0.6-4.1-3-5.1-5.7c-1.4-3.8-3-7.3-4.6-10.9
			c0.2-0.3,0.4-0.7,0.5-1c0.7,0.3,1.3,0.6,2,0.9c0.9,0.3,1.8,0.6,2.7,0.9c0.2,0,0.4-0.1,0.6-0.1c2.5,0.4,8.4,8.6,8.5,12.3
			c0.1,3.7,0.7,5.9,3.6,6c1.3,0,2.6,1.5,4.4,2.7c1.4-5.1,0.7-10.1-1.3-13.9c-4.8-9.2-9.9-18.1-15.1-26.7c-1.5-2.4-3.9-3.5-6-5.4
			c4-0.6,7.2,2.2,9.3,6c5.1,8.8,9.9,18,14.4,27.4c2.9,6.1,2.4,13.2,0.9,19.9c-1.4,6.4-3.6,12.5-4.6,19c-1,6.4-1.2,13.2-1.1,19.9
			c0.2,6.8-0.6,11.7-5.5,15.3c-4.9,3.6-7.3,10.6-7.2,18.6c0.1,6.8-1.2,12.3-4.7,17.2c-1.5,2.1-1.8,6.6-1.7,9.9
			c0.2,6.4-1,11.6-3.9,16.3c-2.3,3.8-3.9,8.2-3.4,13.4c0.5,5.8-1.4,10-3.5,14.7c-2.1,4.6-3.5,10.3-4,15.7c-0.7,7.3-1.3,14.3-4,20.8
			c-1.2,3-1.6,6.7-2.3,10.1c-15.2,0-30.4,0-45.6,0c0.3-2.5,0.6-5,1-7.4c1.2-7.2-0.5-10.4-5.3-10.3c-1,0-2.1,0-3.1,0
			c-11.3-0.1-22.7-0.1-34-0.3c-3.1-0.1-4,2.4-4,6.1c0,4,0.3,8,0.4,12c-43.1,0-86.3,0-129.4,0c-2.4-2.6-5.8-2.6-8.8,0
			c-5.4,0-10.8,0-16.3,0c-2.4-3.8-5-7.2-7-11.3c-2.6-5.3-2.4-5.5-6.7-3.2c-8,4.3-16,8.5-23.9,12.8c-0.6,0.3-1.2,1.1-1.7,1.7
			C304.2,600,297.7,600,291.3,600z M567.5,565.9l0.1,0.1c-1.2-3.1-2.5-6.1-3.9-9.8c-1.3,5.2-3,9.8-3.6,14.6c-0.3,2.3,1.4,5,2.1,7.5
			c0.2,0.8,0.3,1.8,0.5,2.6c1.3,3.8,2.7,7.7,4.2,11.3c0.4,0.9,1.5,1.4,2.3,1.6c1.3,0.3,2.6,0.1,4.1,0.1c0.7-2,1.7-4.7,3-8.7
			C573.7,579.3,570.6,572.6,567.5,565.9z M378.7,423.7c5.4-2.6,10.8-5.6,16.2-7.9c10.2-4.2,20.4-8,30.6-12c5.7-2.2,11.2-3,16.5,1.9
			c1.1,1,3.5,1.8,3.8,1.2c1.2-2.7,3-6.4,2.6-8.9c-1.8-10.1-4.4-19.8-6.6-29.8c-0.8-3.7-2-3.5-3.8-1.6c-3.5,3.5-6.9,7.2-10.5,10.3
			c-3.6,3-7.4,6-11.4,7.8c-1.9,0.8-4.5-1.3-6.7-2.1c0-0.5-0.1-1-0.1-1.5c-1.5,2.3-2.9,6.2-4.6,6.6c-1.7,0.4-3.7-2.8-6-4.8
			c-0.5,1-1.5,2.4-2.1,4c-1.2,2.8-2.8,2.9-4.5,1.5c-5.1-4.2-10.3-8.3-15.3-12.9c-8.3-7.6-17.3-12.8-26.3-18.1
			c-3.1-1.9-4.6,1.7-6.4,3.9c-0.7,1-0.6,3.3-0.8,5.1c0.3,0.1,0.6,0.3,1,0.4c1.3-2.1,2.4-4.3,3.8-6.2c0.4-0.6,1.4-0.3,2.1-0.4
			c0,0.9,0.1,2-0.2,2.7c-0.6,1.5-1.5,2.9-2.2,4.3c-2.2,4.4-1.8,10.5,1.5,13.3c3.5,3.1,5.2,8,7,12.8c1.4,3.8,2.9,7.7,4.6,12.4
			c1-2.3,1.5-3.5,2.1-4.7c3-7,5.8-14.1,8.9-21c0.4-1,1.6-1.4,2.4-2.1c0,1.4,0.4,3.2-0.1,4.3c-3.5,9-7,17.9-10.8,26.7
			c-0.9,2.2-0.6,3.4-0.1,5.6c0.9,3.4,1.3,7.2,1.8,10.9c0.2,1.5-0.1,3.1-0.1,5.5c4.9-2.5,9.4-4.9,13.8-7.2
			C378.8,423.6,378.7,423.7,378.7,423.7z M394.3,175.4c0,0.1,0,0.3,0,0.4c-5.8,3.1-11.6,6.2-16.4,8.8c-8.5-9.2-17.2-15.7-26.4-21.4
			c0.3,3.7,1,6.7,1.8,9.7c2.5,8.9,5.5,17.5,10.8,23.8c7.1,8.5,15.1,14.6,23.7,19.4c19.1,10.6,41.5,3.7,56-17
			c10.1-14.4,16.1-31.7,18.7-51.5c0.8-6.4,1.2-12.8,1.8-19.5c-3.3,2.1-4.1,1.8-4.2-2.3c-0.2-17.1-5.6-31.5-11.2-45.8
			c-1.9-4.8-4.4-9.2-6.6-13.8c-0.2,0.2-0.4,0.3-0.6,0.5c0.7,5.1,1.3,10.1,2,15.2c-0.4,0.2-0.8,0.4-1.1,0.7
			c-6.7-7.8-9.8-20.1-16.3-28.2c-0.4,0.2-0.8,0.3-1.1,0.5c0.9,17.8,1.8,35.7,2.8,53.8c-4.6-2.3-4.7-2.1-9.5-9.7
			c-6.8-10.7-13.3-21.8-17.9-34.8c-4.3-11.9-8.3-23.9-12.5-35.9c-0.5-1.4-1.4-2.4-2.1-3.6c-0.9,1.1-1.9,2.1-2.5,3.5
			c-8.3,19.6-12.5,41.1-15.1,63.5c-0.2,1.8-0.5,3.5-0.8,5.3c-0.4,0.1-0.8,0.1-1.3,0.2c-1.5-9.2-3-18.3-4.6-28.3
			c-1.4,2.1-2.8,3.4-3.3,5.3c-2,6.4-4.3,12.8-5.3,19.5c-1.7,11.3-2.6,22.9-3.8,34.4c-0.3,2.7-0.1,5.9-3.7,3.5
			c0.7,5.5,1.5,10.1,1.8,14.8c0.3,4.9,1.7,8.3,4.8,10.7c8.2,6.5,16.4,13.1,24.3,20.1c2.9,2.6,5.3,2.8,8.5,1.2
			C387.9,176.8,391.1,176.3,394.3,175.4z M402.7,560.8c-0.1,0-0.2,0-0.3,0c0-2.5,0-5.1,0-7.6c0.1-3.1-1-4.5-3-4.1
			c-2.6,0.5-5.3,0.4-7.6,1.7c-8.5,4.8-16.9,10-25.2,15.3c-6.6,4.2-13.1,8.9-19.7,13.2c-2.2,1.4-2.5,3-1,5.7c1.2,2,2,4.6,3.4,6.4
			c3.4,4.5,7.5,6.9,12,4.4c10.3-5.7,21.1-10.1,30.4-19.2c2.2-2.1,4.8-4.1,7.4-4.5c3.8-0.6,4.3-3.3,3.9-7.7
			C402.8,563.1,402.8,561.9,402.7,560.8z M298.4,274.1c5.1-0.1,10.2-5.3,12.1-12c2-7,5.5-12.4,10-16.1c5.7-4.7,9.9-11.4,14-18.5
			c1.7-3,3.2-5.8,6.3-5.6c0.7,0,1.6-0.5,2.2-1.2c3.2-3.9,6.4-7.8,9.5-12c0.7-0.9,1-3.3,0.7-4.6c-0.2-1.1-1.7-2.5-2.5-2.4
			c-2.5,0.6-5.2,1.3-7.5,2.8c-4.5,3.1-8.9,6.3-13,10.3c-9,8.9-17.6,18.4-24,31.5c-1.1,2.3-2.5,4.3-3.7,6.6
			c-2.2,4.6-4.6,9.2-6.5,14.2C294.7,271.1,295.8,274.1,298.4,274.1z M445.3,580.4c-2.4-1.2-4.6-2-6.6-3.5
			c-9.2-7.2-18.3-14.7-27.4-22c-1.7-1.3-3.5-2.2-5.3-3.3c-0.2,3-0.3,6-0.6,9c-0.8,7.7,1.4,11.4,6.7,14c6,2.9,11.6,7.8,17,12.7
			C433.6,591.3,443,586.4,445.3,580.4z M451.7,395.7c3.8-8.1,7.1-14.9,10.2-21.8c0.3-0.7,0.2-2.3-0.1-3.1c-2.2-5.3-4.5-10.6-7-15.7
			c-0.3-0.7-1.9-1-2.5-0.5c-2.1,1.8-4,4.1-6.1,5.9c-1.9,1.5-2.2,3-1.4,6c2,7.3,3.5,14.9,5.2,22.3
			C450.4,390.6,450.9,392.5,451.7,395.7z M608.2,452.6c0.5-0.3,0.9-0.5,1.4-0.7c-0.2-1.5-0.1-3.3-0.7-4.3
			c-3.5-6.5-7.2-12.6-10.6-19.1c-4.1-7.8-8.8-15-10.9-24.7c-0.2-1.1-1.5-2.5-2.2-2.4c-0.9,0.2-2,1.5-2.4,2.8
			c-1.1,4.1,0.1,9,2.5,11.9c1.3,1.5,2.5,3.1,3.6,4.9c5.5,9,11,18.2,16.5,27.2C606.3,449.7,607.2,451.2,608.2,452.6z M300.9,427.1
			c-3.4,1.3-6.9,2.7-10.4,3.9c-3.1,1-4.4,3.3-3.4,7.9c0.3,1.2-0.1,2.6-0.3,5.4c-2.1-2.9-3.4-4.7-4.8-6.5c-1.1,4.3-0.1,8.4,1.9,7.7
			c4-1.4,8.1-2.8,11.9-4.8C300,438.5,302.5,434.6,300.9,427.1z M354.5,291.5c-0.1,0.3-0.1,0.7-0.2,1c0.9,0.6,1.7,1.1,2.6,1.7
			c9.2,5.6,19,7.3,28.8,9.3c4.2,0.8,8,2.3,10.3,7.9c0.2,0.4,0.6,0.6,1.3,1.2c0.5-2.5,0.8-4.6,1.3-6.6c0.6-3,0-4.5-2.3-4.7
			c-2.6-0.2-5.2-0.5-7.8-1.1c-10.8-2.8-21.6-5.7-32.4-8.5C355.5,291.4,355,291.5,354.5,291.5z M355.2,186.3
			c-0.2-1.2-0.2-1.9-0.4-2.6c-1.5-6.4-5.8-8.4-9.3-11.5c-1.6-1.5-3.4-2.8-4.9-4.5c-5.5-6-5.8-15.4-7.6-23.8
			c-0.6-2.8,0.5-4.2,2.6-3.6c0.6,0.2,1.2,0.3,1.8,0.5c0.1-0.4,0.2-0.7,0.3-1c-1.8-1.5-3.5-3-5.4-4.5
			C328.2,150.2,341.5,183.4,355.2,186.3z M339.4,283c0,0.6,0,1.1,0,1.7c16.4,5,32.7,10.4,49.6,10.1c-2.6-0.8-5.3-1-7.9-1.8
			c-12.1-3.3-24.2-6.8-36.4-10C343,282.6,341.1,283,339.4,283z M468.6,358.8c4.4-8.6,8.5-16.7,12.6-24.7c-2.1,0.8-3.8,2.4-5.6,3.3
			c-2.2,1.1-3.2,2.5-2.6,6.2c0.3,1.6-0.6,3.6-1,5.4c-0.4-0.1-0.8-0.2-1.2-0.3c-0.5-2.4-0.9-4.9-1.3-7.2c-6.3,1.2-7,3.3-3.8,10.5
			C466.4,354.1,467.3,356.1,468.6,358.8z M599.4,483.1c0.4-0.1,0.7-0.3,1.1-0.5c-5-19.8-10.1-39.7-15.1-59.5
			c-0.4,0.2-0.8,0.4-1.1,0.5C587.2,444.5,593,463.9,599.4,483.1z M576,488.3c-0.4,0.2-0.8,0.4-1.1,0.6c1.6,18.3,5.9,35.4,12.7,51.4
			c0.5-1.9,0.9-4.1,0.4-5.5c-4.7-12.7-8.2-26-10.5-39.9C577,492.6,576.5,490.5,576,488.3z M455,185.4c1.7-1,3-1.3,3.9-2.3
			c6.4-7.3,11.9-15.6,14.7-26.9c0.6-2.2,1.1-4.5,1.4-6.8c0.1-0.7-0.8-1.6-1.3-2.4c-0.5,0.6-1.2,1.2-1.4,2c-1.2,4.4-2.5,8.8-3.3,13.4
			c-1.2,6.9-4.6,10.2-8.7,12.9C457.6,176.9,455.8,179.9,455,185.4z M346.4,354.2c-1.5-1.8-1.9-2.6-2.1-2.5c-3.6,1.9-4.6-0.9-6.1-5.1
			c-1.6-4.4-5.4-5.7-9.6-6.8c3.9,6.5,7.3,12.2,10.9,17.7c0.5,0.8,2.2,0.5,3.1,0C343.8,356.9,344.9,355.6,346.4,354.2z M610.7,442.2
			c0.4-0.4,0.8-0.7,1.3-1.1c-0.3-1.5-0.4-3.3-1.1-4.5c-3.2-6.2-6.5-12.3-9.9-18.2c-0.4-0.7-1.5-0.6-2.3-1c-0.1,1.1-0.6,2.7-0.2,3.4
			C602.4,428,606.6,435,610.7,442.2z M463.7,367.9c0.4,0,0.8,0,1.2,0c0.4-2,1.5-4.5,1.1-6c-0.9-3.5-2.6-6.7-4-9.9
			c-2-4.4-2.6-4.4-5.3,0.1C459,357.2,461.4,362.6,463.7,367.9z M475,143.6c-0.3-2.5-0.6-4.8-0.9-7.3c-6.8,4.4-12.8,19.8-11.8,29.4
			c0.9-1.9,1.7-4,1.7-6.1C464,150.5,469.1,142.4,475,143.6z M596.3,455c1.3,5.2,6.7,8.6,9,6.8c0.6-0.4,1.1-1.5,1.2-2.4
			c0-0.7-0.7-1.9-1.2-2C602.6,456.5,599.8,455.9,596.3,455z M409.7,302.6c-1.2,3.8,0.7,19.3,2.6,21.1
			C413.6,320.3,411.9,306.3,409.7,302.6z M580.5,569.8c0.6-0.3,1.1-0.6,1.7-0.9c-2.1-7.8-4.2-15.6-6.3-23.3
			C576.2,554.3,578.2,562.2,580.5,569.8z M597.9,490.6c-0.7-5.1-2-8-5.2-7.8c-0.8,0.1-1.6,0.8-2.5,1.2c0.4,1.4,0.6,3.6,1.3,4.1
			C593.3,489.3,595.4,489.7,597.9,490.6z M585.4,483.6c2.5,8.9,5,17.9,7.9,27.9C594.1,507.1,589.3,489.9,585.4,483.6z M285.6,403.7
			c-0.4-0.5-0.7-0.9-1-1.4c-1.4,1-3.2,1.6-4.2,3.2c-0.7,1.2-0.4,3.8-0.5,5.7c1.2-0.2,2.9,0.1,3.5-0.8
			C284.5,408.6,284.9,406,285.6,403.7z M407,306.2c-0.3-0.1-0.7-0.2-1-0.3c-0.6,2.1-1.3,4.2-1.6,6.4c-0.1,0.8,0.9,2,1.5,3
			c0.7-0.9,1.8-1.8,1.9-2.7C407.8,310.4,407.2,308.3,407,306.2z M402,307c-0.3-0.1-0.6-0.2-0.8-0.3c-0.9,5.6-2.9,10.9-2.6,16.8
			c0.4,0.1,0.8,0.2,1.2,0.3C400.5,318.3,401.3,312.7,402,307z M278.6,444.6c-1.4-1.8-2.2-2.8-3-3.8c-0.7,1.3-1.6,2.4-1.9,3.8
			c-0.1,0.6,1.1,2.5,1.8,2.5C276.4,447.1,277.2,445.8,278.6,444.6z M590.9,515.8c-0.6-4-2.7-3.8-4.6-3.4c-0.4,0.1-0.7,1.5-1,2.2
			c1.5,0.6,2.9,1.2,4.3,1.7C590,516.5,590.4,516.1,590.9,515.8z M346.8,158c-2.3,5.2-1.4,7.9,2.9,9.8
			C348.6,164.4,347.8,161.7,346.8,158z M580.4,541.4c-0.3,0.6-0.6,1.1-0.8,1.7c0,3.3,1.8,3.6,3.6,3.7c0.5,0,0.9-1.1,1.4-1.7
			C583.1,543.9,581.8,542.6,580.4,541.4z M572.1,489.2c-0.4,0-0.8-0.1-1.2-0.1c-0.4,4.2-0.7,8.4-1.1,12.6c0.4,0.1,0.8,0.1,1.2,0.2
			C571.4,497.6,571.8,493.4,572.1,489.2z M407.6,299.1c1.2-7,0.5-8.9-2.7-8.4C405.7,293.3,406.5,295.7,407.6,299.1z M581.7,487
			c0.3-0.5,0.5-1,0.8-1.5c-0.4-3.5-1.9-4.1-3.8-3.5c-0.2,0.6-0.5,1.1-0.7,1.7C579.2,484.7,580.5,485.9,581.7,487z M404,300.2
			c0.4-0.3,0.7-0.7,1.1-1c-0.9-2.6-1.9-5.2-2.8-7.8c-0.4,0.3-0.8,0.6-1.3,1C402,295,403,297.6,404,300.2z M570.5,513.8
			c-0.3,0.1-0.5,0.2-0.8,0.3c0.4,3.1,0.8,6.1,1.2,9.2c0.3-0.1,0.6-0.1,0.9-0.2c-0.3-2.8-0.5-5.5-0.8-8.2
			C571,514.4,570.7,514.1,570.5,513.8z M277.3,424.7c-0.4-0.1-0.9-0.1-1.3-0.2c0,1.9,0,3.7,0,5.6c0.4,0,0.7,0,1.1,0
			C277.1,428.3,277.2,426.5,277.3,424.7z"/>
		<path class="st0" d="M504.4,600c-0.2-4-0.4-8-0.4-12c0-3.7,0.8-6.2,4-6.1c11.3,0.2,22.7,0.3,34,0.3c1,0,2.1,0,3.1,0
			c4.9,0,6.5,3.2,5.3,10.3c-0.4,2.5-0.7,5-1,7.4C534.4,600,519.4,600,504.4,600z"/>
		<path class="st0" d="M310.6,600c0.6-0.6,1.1-1.4,1.7-1.7c8-4.3,16-8.4,23.9-12.8c4.3-2.3,4.1-2.1,6.7,3.2c2,4.1,4.7,7.6,7,11.3
			C336.9,600,323.8,600,310.6,600z"/>
		<path class="st0" d="M340,0c-1.7,0.7-3.4,2-5,2c-7.9,0.2-15.7,0.2-23.6,0c-1.1,0-2.2-1.3-3.3-2C318.8,0,329.4,0,340,0z"/>
		<path class="st0" d="M366.3,600c2.9-2.6,6.4-2.6,8.8,0C372.1,600,369.2,600,366.3,600z"/>
		<path d="M451.1,494c6.3,1.5,12.6,3.2,19,4.5c10.8,2.1,21.6,5.1,32.6,3.6c0.3,0,0.7-0.1,0.9,0.1c2.9,1.8,4.7,1.2,4.2-4.2
			c0-0.3,0.1-0.6,0.2-0.8c0.1-0.2,0.3-0.4,0.5-0.5c0.1,0,0.3,0,0.3,0c1.6,9.2,8.4,6.7,12.2,10.9c0.9,1,1.7,2.2,2.5,3.3
			c-0.9,1-1.7,2.6-2.7,2.9c-2.5,0.9-5.1,1.2-7.7,1.8c-1.1,0.3-2.1,1-3.2,1.5c-0.6,0.3-1.5,1.2-1.9,0.8c-3.7-3.1-7.5-0.9-11.2-1
			c-2.5,0-5-1.3-7.5-2c-4.7-1.2-9.5-1.9-14.1-3.7c-7.6-2.9-14.6-7.6-21-14.4c-1-1-2.1-1.7-3.2-2.5
			C451.1,494.3,451.1,494.1,451.1,494z"/>
		<path d="M337.3,484c-2,7.7-6,12.7-10.3,17.1c-7.4,7.6-15.3,14.5-22.9,21.6c-0.9,0.9-2.1,1.8-3.2,1.8c-7.2,0-14.3-0.2-21.5-0.6
			c-1,0-2-1.6-3-2.4c0.8-1,1.6-2.3,2.5-2.9c5.8-3.5,11.6-7.1,17.6-10.1c3.4-1.7,7.1-1.9,10.7-3.1c9.1-3.2,17.3-9.3,25-16.7
			C333.9,487.1,335.6,485.6,337.3,484z"/>
		<path d="M318.2,311.3c-0.8-2.2-1.3-3.5-1.7-4.9c0.3-0.3,0.5-0.6,0.8-1c1.7,2.6,3.5,5.3,5,7.5c-4.2,6.2-7.9,11.6-11.5,16.9
			c0.3,0.4,0.5,0.9,0.8,1.3c2.9-3.4,5.7-6.9,8.6-10.3c0.2,0.3,0.4,0.6,0.5,0.9c-5.7,10-11.3,20.1-17.5,31c-0.4-3.9-1.1-7.3-1-10.6
			c0.4-8.7,1.6-17,5.5-24.3C310.3,312.8,313.8,311.7,318.2,311.3z"/>
		<path d="M485.3,312.5c7.3-2.9,13,0.6,16.5,10.1c2.6,6.9,4.2,14.3,3.9,22.3c-0.3,0.3-0.5,0.6-0.8,0.9c-0.9-1.3-2-2.5-2.7-4
			c-4.3-8.9-8.4-18-14.5-24.7C486.8,316.1,486.2,314.4,485.3,312.5z"/>
		<path d="M553.1,543.8c-3.5-4.5-3.5-4.4-7.8-0.4c-2.2,2-4.5,3.4-6.8,5.1c-0.2-0.6-0.5-1.1-0.7-1.7c0.8-1.1,1.6-2.4,2.6-3.2
			c4.4-3.3,7.5-8.3,10.4-13.8c0.7-1.2,2.1-1.7,3.1-2.4c0.7,2.5,1.4,5.1,2.1,7.7c-1.2,0-2.4,0-4,0c0.6,2.7,1.3,5.6,2,8.5
			C553.7,543.5,553.4,543.6,553.1,543.8z"/>
		<path d="M424.8,305.8c5.8-1.1,11.7-1.9,17.5-3.3c5.8-1.4,11.5-3.4,16.9-5.1C453.4,302.3,445,308.7,424.8,305.8z"/>
		<path d="M311.5,386.1c-3.4-10.1-6.8-20.4-10.3-30.7C305,358.2,312.6,381.4,311.5,386.1z"/>
		<path d="M533.7,285.6c4.7,3.3,9,6.2,13.2,9.2c-0.1,0.3-0.2,0.6-0.3,1c-2.3-1.6-4.7-3.2-7-4.7c-0.2,0.3-0.4,0.7-0.6,1
			c1.1,4,2.1,7.9,3.2,11.9c-0.3,0.2-0.5,0.4-0.8,0.5C538.9,298.4,536.4,292.4,533.7,285.6z"/>
		<path d="M329.6,428.1c2.5,2.3,5,4.7,7.4,7c-0.3,0.7-0.7,1.4-1,2.1c-2.4-2.5-4.8-4.9-7.3-7.3C329,429.3,329.3,428.7,329.6,428.1z"
			/>
		<path d="M266,323.4c-1.6-5.1-0.6-8.7,2.4-11.4C267.5,316.1,266.8,319.8,266,323.4z"/>
		<path d="M320,298c2,3,3.9,5.9,5.9,8.9c-0.3,0.4-0.6,0.8-0.9,1.2c-1.9-2.9-3.8-5.9-5.8-8.8C319.5,298.9,319.8,298.4,320,298z"/>
		<path d="M404,362.4c0,3,0,5.9,0,8.9c-0.3,0-0.6,0-0.9,0c0-3,0-5.9,0-8.9C403.4,362.4,403.7,362.4,404,362.4z"/>
		<path class="st0" d="M394.3,175.4c-3.1,0.9-6.4,1.4-9.4,2.9c-3.1,1.6-5.5,1.3-8.5-1.2c-8-7-16.1-13.6-24.3-20.1
			c-3.1-2.4-4.4-5.8-4.8-10.7c-0.3-4.7-1.1-9.3-1.8-14.8c3.5,2.4,3.4-0.9,3.7-3.5c1.2-11.5,2.1-23,3.8-34.4c1-6.7,3.3-13.1,5.3-19.5
			c0.6-1.9,2-3.2,3.3-5.3c1.6,10,3.1,19.2,4.6,28.3c0.4-0.1,0.8-0.1,1.3-0.2c0.3-1.8,0.6-3.5,0.8-5.3c2.5-22.4,6.8-43.9,15.1-63.5
			c0.6-1.4,1.7-2.3,2.5-3.5c0.7,1.2,1.6,2.2,2.1,3.6c4.2,11.9,8.2,24,12.5,35.9c4.6,13,11.1,24.1,17.9,34.8c4.8,7.6,4.9,7.4,9.5,9.7
			c-0.9-18.1-1.9-35.9-2.8-53.8c0.4-0.2,0.8-0.3,1.1-0.5c6.5,8.1,9.6,20.4,16.3,28.2c0.4-0.2,0.8-0.4,1.1-0.7
			c-0.7-5.1-1.3-10.1-2-15.2c0.2-0.2,0.4-0.3,0.6-0.5c2.2,4.6,4.7,8.9,6.6,13.8c5.6,14.3,11,28.8,11.2,45.8c0,4.1,0.8,4.4,4.2,2.3
			c-0.6,6.7-1,13.1-1.8,19.5c-2.6,19.9-8.5,37.1-18.7,51.5c-14.6,20.7-36.9,27.6-56,17c-8.6-4.8-16.6-11-23.7-19.4
			c-5.3-6.3-8.3-14.8-10.8-23.8c-0.8-3-1.5-6-1.8-9.7c9.2,5.6,17.9,12.2,26.4,21.4c4.9-2.6,10.6-5.7,16.4-8.8
			C394.3,175.7,394.3,175.5,394.3,175.4z M397.1,113.3c-0.8,1.1-1.7,2.2-2.5,3.3c-3.1,4.3-4,4.4-7.9,1.5c-0.8-0.6-1.8-0.9-3-1.6
			c2,7.1,3.8,13.3,5.4,19c0.1,1.9,0,3.3,0.2,4.6c0.1,1.2,0.7,2.3,0.7,3.4c0,7,2.9,11.2,6.6,14.6c3.3,3.2,6.9,0.4,7.3-5.4
			c0.2-2.5,0.8-4.9,1.4-8.4c-0.2-0.4-1-2.6-1.9-2.8c-2-0.4-2-2-2.1-4c-0.1-2.4-0.1-4.8-0.2-7.1c-0.1-2.6-0.6-4.6-2.7-5.1
			c-2.5-0.6-2.2-2.4-0.7-4.5c1-1.4,1.9-2.8,2.8-4.3c-0.1-0.2-0.3-0.4-0.5-0.6c-1.2,1.2-2.3,2.5-3.5,3.7c-0.2-0.2-0.4-0.4-0.6-0.7
			c0.4-1.9,0.8-3.8,1.2-5.8c3.8-7.1,1.3-14.9,1.2-22.4c0-1.8-1.4-4-2.6-5.4c-0.8-0.9-2.3-0.7-3.5-0.7c-0.2,0-0.7,1.8-0.5,2.6
			c0.7,2.8,1.3,5.8,2.4,8.1C397,100.8,398.1,106.6,397.1,113.3z M421.2,133.8c0.1-1.6,0.1-3.8,0.5-5.8c0.5-2.7,0.8-6.6,2-7.5
			c6.2-4.4,10.7-15.1,18.4-11.1c1-3.2,1.9-5.7,2.9-8.9c-3.2,2.3-5.9,4.4-8.8,6.4c-5.8,4.2-11.7,8.3-17.6,12.5c-2,1.4-4,1-5.4-1.4
			c-1.4-2.4-2.6-5.1-3.9-7.7c-0.1,0-0.3,0.1-0.4,0.1c0.6,3,1.2,6,1.8,9c-0.2,0.1-0.4,0.3-0.6,0.4c-1.1-1.4-2.2-2.8-3.3-4.2
			c-0.3,0.3-0.5,0.6-0.8,0.9c1,1.9,2.6,3.7,3,5.9c0.4,2.3-0.2,5-0.4,6.9c1.1,2.1,2,3.7,2.5,4.7C414.6,133.8,417.6,133.8,421.2,133.8
			z M356.5,93.4c-0.2,0.4-0.4,0.7-0.6,1.1c2.7,3.6,5.3,7.2,8,10.8c1.7,2.2,1.9,4.1-0.3,5.9c-5,4.2-6.1,11-5.9,18.7
			c0.4-5.8,1.2-11.6,4.9-14.7c3.3-2.7,7-4.2,10.6-6.2C368,104,362.3,98.7,356.5,93.4z M433.6,130c3,0.2,4.8-2.2,5-6.7
			c0.1-3.8-1.6-6.6-4.2-6.8c-2.7-0.3-5,2.7-5.1,6.7C429.1,127.7,430.5,129.7,433.6,130z M449.3,152.7c-1.8,0-3-0.3-4.2,0.1
			c-1.6,0.5-3.1,2.3-4.6,2.2c-4.9-0.2-9.7-1-14.6-1.5c-0.2,0-0.5,0.3-0.8,0.6c6.8,6.2,14,5.1,21.5,3.2
			C447.1,156.4,448,154.9,449.3,152.7z M373.8,117.4c-2.7,0.1-4.1,2.1-4.1,5.7c0,3.6,1.9,6.2,4.3,6.1c2.4-0.1,4.3-2.9,4.2-6.4
			C378.1,119.4,376.4,117.3,373.8,117.4z M430.6,183.3c-6.9-5.7-14.1-10.3-22.8-8.4C415.7,177.9,423.1,180.6,430.6,183.3z
			 M397.3,194.7c4.1-0.3,8.1-0.5,12.8-0.9C406.5,190,399.4,190.1,397.3,194.7z M433,148.4c0,0.6,0.1,1.2,0.1,1.9
			c2.1-0.2,4.3-0.4,6.5-0.6c0-0.4,0-0.9-0.1-1.3C437.3,148.4,435.2,148.4,433,148.4z"/>
		<path class="st0" d="M378.8,423.6c-4.5,2.3-8.9,4.6-13.8,7.2c0.1-2.4,0.3-4,0.1-5.5c-0.5-3.7-0.8-7.5-1.8-10.9
			c-0.6-2.1-0.9-3.4,0.1-5.6c3.7-8.8,7.3-17.7,10.8-26.7c0.4-1.1,0.1-2.8,0.1-4.3c-0.8,0.7-2,1-2.4,2.1c-3,6.9-5.9,14-8.9,21
			c-0.5,1.2-1.1,2.4-2.1,4.7c-1.8-4.7-3.2-8.6-4.6-12.4c-1.8-4.8-3.4-9.7-7-12.8c-3.3-2.8-3.7-8.8-1.5-13.3c0.7-1.5,1.6-2.8,2.2-4.3
			c0.3-0.7,0.1-1.8,0.2-2.7c-0.7,0.1-1.7-0.2-2.1,0.4c-1.4,1.9-2.6,4.1-3.8,6.2c-0.3-0.1-0.6-0.3-1-0.4c0.3-1.7,0.1-4.1,0.8-5.1
			c1.7-2.2,3.2-5.8,6.4-3.9c9,5.3,18.1,10.5,26.3,18.1c5,4.6,10.2,8.7,15.3,12.9c1.8,1.4,3.3,1.3,4.5-1.5c0.7-1.6,1.6-3,2.1-4
			c2.3,2,4.3,5.2,6,4.8c1.7-0.4,3.1-4.2,4.6-6.6c0,0.5,0.1,1,0.1,1.5c2.3,0.8,4.8,2.9,6.7,2.1c4-1.7,7.8-4.7,11.4-7.8
			c3.7-3.1,7-6.8,10.5-10.3c1.9-1.9,3-2.1,3.8,1.6c2.2,9.9,4.8,19.7,6.6,29.8c0.5,2.6-1.4,6.2-2.6,8.9c-0.3,0.6-2.7-0.2-3.8-1.2
			c-5.3-4.9-10.9-4.1-16.5-1.9c-10.2,4-20.5,7.8-30.6,12c-5.5,2.3-10.8,5.2-16.2,7.8c0.5-2.5,1.2-5,1.5-7.6c0.1-0.8-0.9-1.8-1.4-2.8
			c-0.8,2.3-1.8,4.6-2.1,7C376.5,421.2,378,422.5,378.8,423.6z M367.4,417.5c0.9-1.4,1.7-2.2,2.1-3.3c2.7-6.1,5.3-12.3,8-18.5
			c0.6-1.5,1.3-3,1.8-4.6c0.2-0.7,0.1-2.2-0.1-2.3c-0.6-0.3-1.4-0.2-1.9,0.2c-0.5,0.4-0.9,1.2-1.2,2c-3,6.9-6,13.8-9,20.8
			c-0.4,0.9-0.7,1.9-0.7,2.9C366.4,415.3,366.9,416.1,367.4,417.5z M364.7,373.3c-0.4-0.3-0.7-0.5-1-0.8c-2.3,3.8-4.5,7.5-6.7,11.4
			c-0.3,0.6,0,2.1,0.1,3.1c0.6-0.3,1.6-0.2,1.9-0.8c2-3.3,3.8-6.6,5.6-10.1C364.9,375.5,364.7,374.2,364.7,373.3z M441.1,401.2
			c2.4-4.1,1.1-9.4-3.1-12.1C439,393,440,396.8,441.1,401.2z"/>
		<path class="st0" d="M402.7,560.8c0.1,1.2,0.1,2.4,0.2,3.6c0.5,4.4,0,7.1-3.9,7.7c-2.6,0.4-5.2,2.4-7.4,4.5
			c-9.3,9-20.1,13.5-30.4,19.2c-4.5,2.5-8.6,0.2-12-4.4c-1.3-1.8-2.2-4.3-3.4-6.4c-1.5-2.7-1.2-4.3,1-5.7c6.6-4.3,13.1-9,19.7-13.2
			c8.3-5.3,16.7-10.4,25.2-15.3c2.3-1.3,5.1-1.3,7.6-1.7c2.1-0.4,3.1,1,3,4.1c0,2.5,0,5.1,0,7.6
			C402.5,560.8,402.6,560.8,402.7,560.8z"/>
		<path class="st0" d="M298.4,274.1c-2.6,0-3.7-2.9-2.2-7c1.9-5,4.2-9.5,6.5-14.1c1.1-2.3,2.5-4.3,3.7-6.6c6.4-13.1,15-22.6,24-31.5
			c4-4,8.5-7.2,13-10.3c2.3-1.6,4.9-2.3,7.5-2.8c0.8-0.2,2.2,1.3,2.5,2.4c0.3,1.3,0,3.6-0.7,4.6c-3,4.2-6.2,8.1-9.5,12
			c-0.6,0.7-1.5,1.3-2.2,1.2c-3-0.2-4.6,2.7-6.3,5.6c-4.1,7.1-8.3,13.8-14,18.5c-4.5,3.7-8,9.1-10,16.1
			C308.6,268.8,303.5,274,298.4,274.1z"/>
		<path class="st0" d="M445.3,580.4c-2.3,6-11.8,10.9-16.2,6.9c-5.4-4.9-11-9.8-17-12.7c-5.4-2.6-7.5-6.3-6.7-14c0.3-3,0.4-6,0.6-9
			c1.8,1.1,3.6,2,5.3,3.3c9.1,7.3,18.2,14.8,27.4,22C440.7,578.4,443,579.2,445.3,580.4z"/>
		<path class="st0" d="M451.7,395.7c-0.8-3.1-1.3-5-1.8-6.9c-1.7-7.5-3.3-15-5.2-22.3c-0.8-3.1-0.5-4.5,1.4-6c2.1-1.7,4-4.1,6.1-5.9
			c0.6-0.5,2.2-0.2,2.5,0.5c2.5,5.1,4.7,10.4,7,15.7c0.3,0.8,0.5,2.4,0.1,3.1C458.8,380.8,455.5,387.6,451.7,395.7z"/>
		<path class="st0" d="M567.5,565.9c3.1,6.7,6.2,13.4,8.9,19.3c-1.4,4-2.3,6.7-3,8.7c-1.5,0-2.8,0.2-4.1-0.1
			c-0.8-0.2-1.9-0.7-2.3-1.6c-1.5-3.7-2.9-7.5-4.2-11.3c-0.3-0.8-0.3-1.7-0.5-2.6c-0.7-2.5-2.4-5.3-2.1-7.5
			c0.6-4.8,2.2-9.4,3.6-14.6c1.5,3.7,2.7,6.7,3.9,9.8c-3.1-0.9-4.2,1.1-3.8,4.5c1.4,0.4,2.6,0.7,4,1
			C567.7,569.8,567.6,567.9,567.5,565.9z"/>
		<path class="st0" d="M608.2,452.6c-0.9-1.5-1.9-2.9-2.8-4.4c-5.5-9.1-11-18.2-16.5-27.2c-1.1-1.8-2.3-3.4-3.6-4.9
			c-2.5-2.9-3.7-7.8-2.5-11.9c0.3-1.2,1.5-2.6,2.4-2.8c0.7-0.1,2,1.3,2.2,2.4c2.1,9.7,6.8,16.9,10.9,24.7
			c3.4,6.5,7.1,12.7,10.6,19.1c0.6,1.1,0.5,2.9,0.7,4.3C609.1,452.1,608.6,452.4,608.2,452.6z"/>
		<path class="st0" d="M300.9,427.1c1.6,7.5-0.9,11.4-5,13.6c-3.9,2-7.9,3.5-11.9,4.8c-2,0.7-3-3.4-1.9-7.7c1.3,1.8,2.7,3.7,4.8,6.5
			c0.2-2.8,0.5-4.3,0.3-5.4c-1.1-4.7,0.2-6.9,3.4-7.9C294.1,429.8,297.5,428.4,300.9,427.1z"/>
		<path class="st0" d="M354.5,291.5c0.5,0,1.1-0.1,1.6,0c10.8,2.8,21.6,5.8,32.4,8.5c2.5,0.6,5.2,1,7.8,1.1c2.3,0.2,2.9,1.7,2.3,4.7
			c-0.4,2.1-0.8,4.2-1.3,6.6c-0.7-0.6-1.1-0.8-1.3-1.2c-2.4-5.5-6.1-7-10.3-7.9c-9.8-1.9-19.6-3.6-28.8-9.3
			c-0.9-0.5-1.8-1.1-2.6-1.7C354.3,292.2,354.4,291.9,354.5,291.5z"/>
		<path class="st0" d="M355.2,186.3c-13.6-2.9-27-36-22.7-51.1c1.8,1.6,3.6,3,5.4,4.5c-0.1,0.4-0.2,0.7-0.3,1
			c-0.6-0.2-1.2-0.3-1.8-0.5c-2.1-0.6-3.2,0.9-2.6,3.6c1.8,8.4,2.1,17.8,7.6,23.8c1.5,1.7,3.3,3,4.9,4.5c3.5,3.2,7.8,5.1,9.3,11.5
			C355,184.4,355,185.1,355.2,186.3z"/>
		<path class="st0" d="M339.4,283c1.8,0,3.6-0.4,5.3,0.1c12.1,3.3,24.2,6.7,36.4,10c2.6,0.7,5.3,1,7.9,1.8
			c-16.9,0.3-33.2-5.1-49.6-10.1C339.3,284.2,339.4,283.6,339.4,283z"/>
		<path class="st0" d="M468.6,358.8c-1.2-2.7-2.1-4.7-3-6.7c-3.1-7.2-2.4-9.3,3.8-10.5c0.4,2.4,0.9,4.8,1.3,7.2
			c0.4,0.1,0.8,0.2,1.2,0.3c0.4-1.8,1.3-3.8,1-5.4c-0.6-3.7,0.5-5.1,2.6-6.2c1.8-1,3.5-2.5,5.6-3.3
			C477.1,342.1,473,350.2,468.6,358.8z"/>
		<path class="st0" d="M599.4,483.1c-6.4-19.1-12.1-38.6-15.1-59.4c0.4-0.2,0.8-0.4,1.1-0.5c5,19.8,10.1,39.7,15.1,59.5
			C600.1,482.8,599.8,482.9,599.4,483.1z"/>
		<path class="st0" d="M576,488.3c0.5,2.2,1.1,4.3,1.5,6.5c2.4,13.9,5.8,27.2,10.5,39.9c0.5,1.4,0.1,3.6-0.4,5.5
			c-6.8-16-11.1-33.1-12.7-51.4C575.2,488.7,575.6,488.5,576,488.3z"/>
		<path class="st0" d="M455,185.4c0.8-5.6,2.6-8.5,5.3-10.2c4.1-2.6,7.5-6,8.7-12.9c0.8-4.6,2.1-9,3.3-13.4c0.2-0.8,0.9-1.3,1.4-2
			c0.5,0.8,1.4,1.7,1.3,2.4c-0.3,2.3-0.8,4.6-1.4,6.8c-2.8,11.3-8.3,19.7-14.7,26.9C458,184.2,456.7,184.5,455,185.4z"/>
		<path class="st0" d="M346.4,354.2c-1.5,1.4-2.5,2.7-3.8,3.4c-1,0.5-2.6,0.7-3.1,0c-3.6-5.5-6.9-11.2-10.9-17.7
			c4.2,1,8,2.4,9.6,6.8c1.5,4.2,2.5,7,6.1,5.1C344.5,351.6,344.9,352.4,346.4,354.2z"/>
		<path class="st0" d="M610.7,442.2c-4.1-7.1-8.3-14.2-12.3-21.4c-0.3-0.6,0.1-2.2,0.2-3.4c0.8,0.3,1.9,0.2,2.3,1
			c3.4,6,6.7,12.1,9.9,18.2c0.6,1.2,0.7,3,1.1,4.5C611.5,441.4,611.1,441.8,610.7,442.2z"/>
		<path class="st0" d="M463.7,367.9c-2.4-5.3-4.7-10.6-7-15.9c2.7-4.5,3.3-4.5,5.3-0.1c1.5,3.2,3.1,6.4,4,9.9c0.4,1.6-0.7,4-1.1,6
			C464.5,367.9,464.1,367.9,463.7,367.9z"/>
		<path class="st0" d="M475,143.6c-5.9-1.2-11,7-11,16c0,2.1-0.9,4.2-1.7,6.1c-1-9.7,5-25.1,11.8-29.4
			C474.4,138.8,474.7,141,475,143.6z"/>
		<path class="st0" d="M596.3,455c3.4,0.9,6.2,1.5,9,2.4c0.5,0.2,1.2,1.4,1.2,2c0,0.8-0.6,2-1.2,2.4
			C603.1,463.6,597.7,460.2,596.3,455z"/>
		<path class="st0" d="M409.7,302.6c2.2,3.7,3.9,17.6,2.6,21.1C410.5,321.9,408.5,306.4,409.7,302.6z"/>
		<path class="st0" d="M580.5,569.8c-2.3-7.7-4.3-15.5-4.6-24.3c2.1,7.8,4.2,15.6,6.3,23.3C581.6,569.2,581.1,569.5,580.5,569.8z"/>
		<path class="st0" d="M597.9,490.6c-2.5-0.9-4.6-1.3-6.4-2.5c-0.7-0.5-0.9-2.7-1.3-4.1c0.8-0.4,1.6-1.1,2.5-1.2
			C595.9,482.7,597.2,485.5,597.9,490.6z"/>
		<path class="st0" d="M585.4,483.6c3.9,6.3,8.7,23.5,7.9,27.9C590.4,501.5,587.9,492.5,585.4,483.6z"/>
		<path class="st0" d="M285.6,403.7c-0.7,2.3-1.2,4.9-2.3,6.7c-0.6,1-2.3,0.6-3.5,0.8c0.1-1.9-0.2-4.5,0.5-5.7
			c1-1.6,2.7-2.2,4.2-3.2C285,402.8,285.3,403.2,285.6,403.7z"/>
		<path class="st0" d="M407,306.2c0.3,2.1,0.8,4.2,0.7,6.3c0,0.9-1.2,1.8-1.9,2.7c-0.5-1-1.6-2.1-1.5-3c0.3-2.2,1-4.3,1.6-6.4
			C406.3,306,406.6,306.1,407,306.2z"/>
		<path class="st0" d="M402,307c-0.8,5.6-1.5,11.3-2.3,16.9c-0.4-0.1-0.8-0.2-1.2-0.3c-0.3-6,1.7-11.2,2.6-16.8
			C401.5,306.9,401.7,307,402,307z"/>
		<path class="st0" d="M278.6,444.6c-1.5,1.2-2.3,2.5-3.1,2.5c-0.6,0-1.9-1.9-1.8-2.5c0.3-1.4,1.2-2.6,1.9-3.8
			C276.5,441.8,277.3,442.8,278.6,444.6z"/>
		<path class="st0" d="M590.9,515.8c-0.5,0.2-0.9,0.6-1.3,0.5c-1.5-0.5-2.9-1.1-4.3-1.7c0.3-0.8,0.6-2.1,1-2.2
			C588.3,512,590.3,511.8,590.9,515.8z"/>
		<path class="st0" d="M346.8,158c1.1,3.7,1.9,6.5,2.9,9.8C345.4,165.9,344.5,163.2,346.8,158z"/>
		<path class="st0" d="M580.4,541.4c1.4,1.3,2.8,2.5,4.1,3.8c-0.5,0.6-1,1.7-1.4,1.7c-1.8-0.1-3.6-0.4-3.6-3.7
			C579.8,542.5,580.1,541.9,580.4,541.4z"/>
		<path class="st0" d="M572.1,489.2c-0.4,4.2-0.7,8.4-1.1,12.6c-0.4-0.1-0.8-0.1-1.2-0.2c0.4-4.2,0.7-8.4,1.1-12.6
			C571.4,489.1,571.8,489.1,572.1,489.2z"/>
		<path class="st0" d="M407.6,299.1c-1.1-3.4-1.9-5.8-2.7-8.4C408.1,290.2,408.8,292.1,407.6,299.1z"/>
		<path class="st0" d="M581.7,487c-1.2-1.1-2.5-2.2-3.7-3.3c0.2-0.6,0.5-1.1,0.7-1.7c1.9-0.5,3.4,0,3.8,3.5
			C582.2,486,582,486.5,581.7,487z"/>
		<path class="st0" d="M404,300.2c-1-2.6-2-5.2-3-7.9c0.4-0.3,0.8-0.6,1.3-1c0.9,2.6,1.9,5.2,2.8,7.8
			C404.7,299.5,404.4,299.9,404,300.2z"/>
		<path class="st0" d="M570.5,513.8c0.2,0.3,0.4,0.6,0.5,1c0.3,2.7,0.5,5.5,0.8,8.2c-0.3,0.1-0.6,0.1-0.9,0.2
			c-0.4-3.1-0.8-6.1-1.2-9.2C570,514,570.3,513.9,570.5,513.8z"/>
		<path class="st0" d="M277.3,424.7c-0.1,1.8-0.1,3.6-0.2,5.5c-0.4,0-0.7,0-1.1,0c0-1.9,0-3.7,0-5.6
			C276.4,424.6,276.8,424.6,277.3,424.7z"/>
		<path d="M397.1,113.2c-0.4,1.9-0.8,3.8-1.3,5.8c0.2,0.2,0.4,0.4,0.6,0.7c1.2-1.2,2.3-2.5,3.5-3.7c0.1,0.2,0.3,0.4,0.5,0.6
			c-0.9,1.4-1.9,2.9-2.8,4.3c-1.5,2.1-1.8,3.9,0.7,4.5c2.1,0.5,2.7,2.5,2.7,5.1c0.1,2.4,0.1,4.8,0.2,7.1c0,2,0.1,3.6,2.1,4
			c1,0.2,1.7,2.4,1.9,2.8c-0.6,3.5-1.3,5.9-1.4,8.4c-0.4,5.7-3.9,8.6-7.3,5.4c-3.6-3.5-6.6-7.6-6.6-14.6c0-1.1-0.6-2.2-0.7-3.4
			c-0.1-1.3-0.1-2.7-0.2-4.6c-1.6-5.7-3.4-11.9-5.4-19c1.2,0.6,2.1,0.9,3,1.6c4,2.9,4.8,2.8,7.9-1.5
			C395.4,115.5,396.3,114.4,397.1,113.2C397.1,113.3,397.1,113.2,397.1,113.2z"/>
		<path d="M421.2,133.8c-3.5,0-6.5,0-9.9,0c-0.5-0.9-1.4-2.6-2.5-4.7c0.1-1.8,0.8-4.5,0.4-6.8c-0.4-2.2-2-4-3-5.9
			c0.3-0.3,0.5-0.6,0.8-0.9c1.1,1.4,2.2,2.8,3.3,4.2c0.2-0.1,0.4-0.3,0.6-0.4c-0.6-3-1.2-6-1.8-9c0.1,0,0.3-0.1,0.4-0.1
			c1.3,2.6,2.4,5.3,3.9,7.7c1.4,2.4,3.4,2.8,5.4,1.4c5.9-4.1,11.7-8.3,17.6-12.5c2.8-2,5.6-4.1,8.8-6.4c-1,3.2-1.9,5.8-2.9,8.9
			c-7.7-4-12.3,6.7-18.4,11.1c-1.3,0.9-1.5,4.9-2,7.5C421.3,130,421.3,132.2,421.2,133.8z"/>
		<path d="M356.5,93.4c5.7,5.3,11.5,10.7,16.8,15.6c-3.6,2.1-7.4,3.5-10.6,6.2c-3.7,3.1-4.5,8.9-4.9,14.7
			c-0.2-7.6,0.9-14.5,5.9-18.7c2.2-1.8,2-3.7,0.3-5.9c-2.7-3.6-5.4-7.2-8-10.8C356.1,94.1,356.3,93.8,356.5,93.4z"/>
		<path d="M433.6,130c-3.2-0.2-4.5-2.3-4.3-6.7c0.1-4,2.4-7,5.1-6.7c2.6,0.2,4.3,3,4.2,6.8C438.5,127.7,436.6,130.2,433.6,130z"/>
		<path d="M397.1,113.3c1-6.7-0.1-12.5-2.9-18c-1.2-2.3-1.8-5.3-2.4-8.1c-0.2-0.7,0.3-2.6,0.5-2.6c1.2,0,2.6-0.2,3.5,0.7
			c1.2,1.3,2.6,3.5,2.6,5.4c0.1,7.5,2.6,15.3-1.2,22.4C397.1,113.2,397.1,113.3,397.1,113.3z"/>
		<path d="M449.3,152.7c-1.3,2.2-2.2,3.7-2.7,4.7c-7.5,1.8-14.7,2.9-21.5-3.2c0.4-0.3,0.6-0.6,0.8-0.6c4.9,0.5,9.7,1.3,14.6,1.5
			c1.5,0.1,3-1.7,4.6-2.2C446.3,152.4,447.5,152.7,449.3,152.7z"/>
		<path d="M373.8,117.4c2.6-0.1,4.3,2,4.4,5.4c0.1,3.5-1.8,6.3-4.2,6.4c-2.5,0.1-4.3-2.5-4.3-6.1
			C369.6,119.5,371.1,117.4,373.8,117.4z"/>
		<path d="M430.6,183.3c-7.5-2.7-14.9-5.5-22.8-8.4C416.5,173,423.6,177.6,430.6,183.3z"/>
		<path d="M397.3,194.7c2.1-4.6,9.1-4.7,12.8-0.9C405.5,194.2,401.4,194.4,397.3,194.7z"/>
		<path d="M433,148.4c2.2,0,4.3,0,6.5,0c0,0.4,0,0.9,0.1,1.3c-2.1,0.2-4.3,0.4-6.5,0.6C433.1,149.6,433,149,433,148.4z"/>
		<path d="M367.4,417.5c-0.5-1.4-1-2.2-1-3c0-1,0.3-2,0.7-2.9c3-7,6-13.9,9-20.8c0.3-0.8,0.7-1.6,1.2-2c0.5-0.4,1.3-0.4,1.9-0.2
			c0.2,0.1,0.3,1.7,0.1,2.3c-0.5,1.6-1.2,3.1-1.8,4.6c-2.6,6.2-5.3,12.4-8,18.5C369.1,415.3,368.3,416.1,367.4,417.5z"/>
		<path d="M364.7,373.3c0,1,0.2,2.2-0.1,2.8c-1.8,3.5-3.6,6.8-5.6,10.1c-0.4,0.6-1.3,0.6-1.9,0.8c0-1.1-0.4-2.5-0.1-3.1
			c2.1-3.9,4.4-7.6,6.7-11.4C364,372.8,364.4,373,364.7,373.3z"/>
		<path d="M441.1,401.2c-1.1-4.4-2.1-8.2-3.1-12.1C442.2,391.9,443.5,397.1,441.1,401.2z"/>
		<path d="M378.8,423.6c-0.8-1.1-2.3-2.4-2.1-3.2c0.4-2.5,1.4-4.7,2.1-7c0.5,0.9,1.5,2,1.4,2.8c-0.3,2.6-1,5.1-1.5,7.6L378.8,423.6z
			"/>
		<path d="M567.5,565.9c0.1,2,0.2,3.9,0.3,5.6c-1.4-0.3-2.6-0.6-4-1c-0.4-3.4,0.6-5.4,3.8-4.5C567.6,566,567.5,565.9,567.5,565.9z"
			/>
	</g>
</g>
</svg>
