<svg id="blanc" xmlns="http://www.w3.org/2000/svg" viewBox="0 0 1000 1000"><defs><style>.cls-1{fill:#fdfdfd;}</style></defs><path class="cls-1" d="M1000.37,876.76c3.06,13.4.52,27,1.43,40.47.38,5.61-1.92,6.89-7.43,8-38.76,8-62.84,31.44-70.56,70.51-1.1,5.6-2.5,7.71-8,7.35-13.48-.89-27.08,1.56-40.48-1.37,0,0,.09-.76.09-.76,8.15-70.4,53.68-115.85,124.37-124.15Z"/><path class="cls-1" d="M121.44,1001.7c-13.4,3-27,.53-40.45,1.41-5.36.35-7.14-1.38-8.32-7.19C64.91,957.86,41.74,934,3.83,925.54c-7.33-1.63-9.41-4.19-8.74-10.82.28-2.8,0-5.65,0-8.48,0-33.51.15-34,33.14-22.86,56.18,19,85.34,60,93.06,117.62C121.32,1001,121.44,1001.7,121.44,1001.7Z"/><path class="cls-1" d="M999.66,122.67c-65.63-8.81-110.42-49-122.47-109.16C874.7,1.07,875.85-6.39,891-3.57a5.32,5.32,0,0,0,1.69,0c18.76-2.7,30.1.12,36.15,23.24,7.9,30.25,32.7,47.87,63.8,54.41,5.19,1.09,9.82.65,9.19,8.18-1.12,13.46,1.58,27.08-1.46,40.49C1000.39,122.75,999.66,122.67,999.66,122.67Z"/><path class="cls-1" d="M94.7-3.55c28.5,0,28.5,0,22.34,25.57C104.66,73.44,58.39,114.78,6.36,121.57c-9,1.17-12.67-.9-11.29-10.18a31.68,31.68,0,0,0,0-8.48c-2.14-17.52-.29-28.6,22.19-33.56,26.42-5.84,45.31-26.69,51.85-53.53C73.4-1.78,80.75-7.76,94.7-3.55Z"/><path class="cls-1" d="M553.92,361.62a5.2,5.2,0,0,0,1.86,1s.16.16.16.16c2.26,6.89,9.2,7.7,14.33,10.42,29.26,15.51,46.76,41.8,63.86,68.54l-.56.73.63.67.09,4.44c13.33,35.45,10.81,70.93.33,106.44,0,1.22-.09,2.45-.14,3.67l.19-.36C614.24,591.5,589.3,620.9,550.92,636l-1-.14c-35.18,13.76-70.46,10.53-105.79.68l-3.54-.7.29.12c-33.58-18.44-60-44.05-78.22-78l.48-.71-.46-.73a2.67,2.67,0,0,0-.54-2.85c-.7-1.46.41-4.68-3.21-3.29l.43.37c-7.72-35.32-10-70.5,2.71-105.3.14-1.21.28-2.43.41-3.64l-.19.37c18.5-33.72,43.89-60.52,78.49-78.05l.82.56.79-.62s-.2-.29-.2-.29c2.28-.59,5.6.48,5.67-3.58l-.32.39c1.54.24,3.26,1,4.61.64,32.15-9.64,64.08-10,95.82,1.81C550.12,363.9,552.3,363.67,553.92,361.62ZM402.65,498.88a95.7,95.7,0,0,0,95.06,96.64c52,.32,95.57-42.39,96-94.11.45-53.48-41.39-96.7-94.32-97.43A95.57,95.57,0,0,0,402.65,498.88Z"/></svg>