<svg id="bleu_ciel" data-name="bleu ciel" xmlns="http://www.w3.org/2000/svg" viewBox="0 0 1000 1000"><defs><style>.cls-1{fill:#bbd9ef;}</style></defs><path class="cls-1" d="M597.87,255.9q76.38-11.57,152.75-23.12c5.35-.8,10.87-4.1,16,.7l-3.35,4.15.2-.4-64.23,61.23c-28,12.86-55.77,26.1-84,38.47-19.75,8.66-37.78,21.34-59.34,25.83l-.17-.12C567,325.94,585.25,292,597.87,255.9Z"/><path class="cls-1" d="M396.44,744.11c-50.34,7.56-100.66,15.2-151,22.56-5,.73-10.76,5.07-15.42-1.17l67.48-64.72c21.86-10,43.54-20.47,65.62-30,26.07-11.26,50.26-26.71,77.73-34.82l-.29-.12C428.78,673.12,412.53,708.58,396.44,744.11Z"/><path class="cls-1" d="M742.57,398.17q60.93,45.24,121.79,90.53c4.3,3.21,10.31,4.78,11.7,11.11l-94-.55c-13.08-5.05-26-10.69-39.27-15-36.32-11.79-71.17-27.93-108.51-36.7l-.09-4.43Z"/><path class="cls-1" d="M253.7,600.63q-61.11-45-122.13-90.15c-4.07-3-10.41-4.24-11-11l94.13.71c26.89,9.95,53.57,20.46,80.69,29.68,21.21,7.21,41.43,17.53,63.89,20.87l-.43-.37c-.13,2.27,1.3,3,3.21,3.29a2.67,2.67,0,0,1,.54,2.85Z"/><path class="cls-1" d="M397.75,255.07c30-40.86,59.8-81.81,90.05-122.46,2.9-3.89,3.61-11,10.94-10.55q-.56,46.84-1.11,93.68c-9.13,24.85-18.76,49.51-27.23,74.57-7.89,23.35-19.48,45.52-22.91,70.32l.32-.39c-3-.52-4.06,1.94-5.67,3.58l.21.29Q420,309.6,397.75,255.07Z"/><path class="cls-1" d="M556,635.74c8.18,30.66,23.38,58.58,34.49,88.09,2.58,6.88,5.26,13.72,7.9,20.58q-44.88,61.23-89.83,122.43c-2.87,3.89-4.43,9.24-10.08,10.55q-.18-45.95-.37-91.9c8.33-22.74,17-45.34,24.88-68.26,9.23-27,21.59-53.05,26.89-81.38l1,.14A3.31,3.31,0,0,1,556,635.74Z"/><path class="cls-1" d="M767,765.44c-24.84-19.17-44.34-43.92-67.57-64.76C688.91,677.8,678.17,655,668.05,632c-11-25-25.93-48.17-33.38-74.7l-.19.36c36.58,13.39,72.41,28.58,107.91,44.55Q754.68,683.84,767,765.44Z"/><path class="cls-1" d="M41.08,1003.12c-4,0-7.94,0-11.85,0-37.77.27-39.46-2-34.24-40.46.93-6.84,3-6.55,8.49-5.14C22.48,962.44,37.44,979.93,41.08,1003.12Z"/><path class="cls-1" d="M40.82-2C36.23,23.69,23.66,36.6-2.77,42.66c-2.8-1.11-1.91-3.72-2-5.7C-5.83-7.86-5.23-8.36,40.82-2Z"/><path class="cls-1" d="M1001.8,43.87C975.55,38.28,960,24,954.05-3.49c14.19,0,27.33.26,40.45-.12,6.23-.18,7.48,2.61,7.38,8C1001.63,17.21,1001.8,30,1001.8,43.87Z"/><path class="cls-1" d="M229.83,234.16,297,299c1.83,4.66,3.47,9.41,5.53,14,19.51,43.29,42.47,85,59.75,129.3l.19-.37-107-42.11Z"/><path class="cls-1" d="M955.23,1003.13c5.58-26.25,19.85-41.79,47.36-47.74,0,14.19-.26,27.33.11,40.44.18,6.24-2.61,7.49-8,7.38C981.89,1003,969.11,1003.13,955.23,1003.13Z"/></svg>