<svg id="bleu_marine" data-name="bleu marine" xmlns="http://www.w3.org/2000/svg" viewBox="0 0 1000 1000"><defs><style>.cls-1{fill:none;}.cls-2{fill:#250264;}</style></defs><circle class="cls-1" cx="500.98" cy="497.98" r="497.98"/><path class="cls-2" d="M970.18,975.53a42,42,0,0,1,5.87-6.14c7.5-6.66,16.64-14.08,25.75-12.59V0H501C776,0,999,223,999,498S776,996,501,996,3,773,3,498,226,0,501,0H0V1001.8H960.81a4.15,4.15,0,0,1-.42-.71C956.64,992.46,964.43,983.26,970.18,975.53Z"/><path class="cls-2" d="M976.05,969.39a42,42,0,0,0-5.87,6.14c-5.75,7.73-13.54,16.93-9.79,25.56a4.15,4.15,0,0,0,.42.71h39.85a7.82,7.82,0,0,0,1.14-.49V956.8C992.69,955.31,983.55,962.73,976.05,969.39Z"/><path class="cls-2" d="M110.66,499.42C110.67,285.69,284.8,111,499,112.23S885.59,284,885.54,499.81,713.12,887.22,497,887.07C282.09,886.92,110.72,712.07,110.66,499.42ZM763.27,237.63l3.35-4.15c-5.13-4.8-10.65-1.5-16-.7Q674.24,244.3,597.87,255.9C565.54,210.76,534,165,498.74,122.06c-7.33-.4-8,6.66-10.94,10.55-30.25,40.65-60.09,81.6-90.05,122.46-37.18-2.5-73.49-11.29-110.41-15.35-19.12-2.1-37.71-10.52-57.51-5.56l25.65,165.58c-20.14,14.19-40.83,27.69-60.29,42.76-24.75,19.17-52.28,34.7-74.59,57,.56,6.71,6.9,7.93,11,11q60.88,45.3,122.13,90.15c-.84,7.8-1.42,15.64-2.57,23.39Q240.68,694.78,230,765.5c4.66,6.24,10.39,1.9,15.42,1.17,50.36-7.36,100.68-15,151-22.56,13.93,18.27,27.64,36.71,41.86,54.76,20.42,25.9,36.65,55,60.18,78.52,5.65-1.31,7.21-6.66,10.08-10.55q45-61.14,89.83-122.44c37.52,2.56,74.19,11.28,111.44,15.45,19,2.13,37.46,10.49,57.13,5.59q-12.29-81.62-24.56-163.22c7.75-10,19-15.75,28.72-23.28,34.7-26.76,72-50.08,104.95-79.13-1.39-6.33-7.4-7.9-11.7-11.11q-60.81-45.37-121.79-90.53c3.16-22.92,6.62-45.79,9.4-68.75,3.72-30.75,12.72-60.84,11.5-92.19Z"/><path class="cls-2" d="M634.13,441.72c-17.1-26.74-34.6-53-63.86-68.54-5.13-2.72-12.07-3.53-14.33-10.42,21.56-4.49,39.59-17.17,59.34-25.83,28.19-12.37,56-25.61,84-38.47-10.13,22.63-20.16,45.32-30.42,67.89C657.37,391.53,645.7,416.6,634.13,441.72Z"/><path class="cls-2" d="M362.61,558c18.19,33.9,44.64,59.51,78.22,78-27.47,8.11-51.66,23.56-77.73,34.82-22.08,9.54-43.76,20-65.62,30,15.85-42.86,38.26-82.71,57-124.23C357.29,570.4,359.92,564.19,362.61,558Z"/><path class="cls-2" d="M634.62,554c10.48-35.51,13-71-.33-106.44,37.34,8.76,72.19,24.9,108.51,36.69,13.31,4.32,26.19,10,39.27,15-19.77,12.72-43,16.6-64.46,25.09C690.32,535.17,662.32,544.2,634.62,554Z"/><path class="cls-2" d="M362,445.49c-12.72,34.8-10.43,70-2.71,105.3-22.46-3.34-42.68-13.66-63.89-20.87-27.12-9.22-53.8-19.73-80.69-29.68,14.28-11,32.18-13.38,48.35-19.7C295.66,467.82,329,457.06,362,445.49Z"/><path class="cls-2" d="M550.92,636c38.38-15.09,63.32-44.49,83.75-78.68,7.45,26.53,22.41,49.72,33.38,74.7,10.12,23,20.86,45.79,31.33,68.67-41.52-15.1-79.55-37.8-120.08-55L556,635.75Q553.34,633.5,550.92,636Z"/><path class="cls-2" d="M553.92,361.62c-1.62,2.05-3.8,2.28-6,1.46-31.74-11.84-63.67-11.45-95.82-1.81-1.35.4-3.07-.4-4.61-.64,3.43-24.8,15-47,22.91-70.32,8.47-25.06,18.1-49.72,27.23-74.57C512.18,242,518.4,271.44,529.48,299,537.83,319.81,543.19,341.76,553.92,361.62Z"/><path class="cls-2" d="M440.73,364.17c-34.6,17.53-60,44.33-78.49,78.05-17.28-44.32-40.24-86-59.75-129.3-2.06-4.56-3.7-9.31-5.53-14,20.4,6.37,39.09,16.65,58.38,25.57Q398.06,344.28,440.73,364.17Z"/><path class="cls-2" d="M444.08,636.53c35.33,9.85,70.61,13.08,105.79-.68-5.3,28.33-17.66,54.35-26.89,81.38-7.83,22.92-16.55,45.52-24.88,68.26Q471.08,711,444.08,636.53Z"/><path class="cls-2" d="M402.65,498.88A95.57,95.57,0,0,1,499.4,404c52.93.73,94.77,43.95,94.32,97.43-.44,51.72-44,94.43-96,94.11A95.7,95.7,0,0,1,402.65,498.88Z"/></svg>