<?xml version="1.0" encoding="utf-8"?>
<!-- Generator: Adobe Illustrator 25.4.1, SVG Export Plug-In . SVG Version: 6.00 Build 0)  -->
<svg version="1.1" id="Calque_1" xmlns="http://www.w3.org/2000/svg" xmlns:xlink="http://www.w3.org/1999/xlink" x="0px" y="0px"
	 viewBox="0 0 800 800" style="enable-background:new 0 0 800 800;" xml:space="preserve">
<g>
	<path d="M656.8,185.5c-0.8-0.2-1.7-0.4-2.5-0.7c-6.8-2.1-10.5-8.7-8.9-16c0.1-0.5,0.3-1,0.5-1.8c0.5,0.3,0.9,0.6,1.3,0.8
		c3.5,2.4,6.9,4.7,10.4,7.1c2,1.4,3.5,1.4,5.5,0c2.1-1.4,4.2-2.8,6.2-4.3c0.7-0.5,1.2-0.5,1.9,0c2,1.5,4.1,2.9,6.2,4.3
		c2,1.3,3.5,1.4,5.4,0c2.1-1.4,4.2-2.9,6.3-4.4c0.7-0.5,1.1-0.5,1.8,0c2.1,1.5,4.2,2.9,6.3,4.4c1.9,1.3,3.4,1.3,5.3,0
		c3.9-2.6,7.7-5.3,11.7-8.1c1.1,3.2,1.3,6.4,0.2,9.5c-1.7,4.9-5.2,7.7-10.2,8.7c-0.3,0.1-0.6,0.2-0.9,0.3
		C687.9,185.5,672.4,185.5,656.8,185.5z"/>
	<path d="M643,74.1c5.6,0,10.9,0,16.4,0c0,0.7,0,1.2,0,1.8c0,4.4,1.3,6.3,4.1,6.3c2.9,0,4.1-2,4.1-6.4c0-0.5,0-1.1,0-1.7
		c2.8,0,5.4,0,8.2,0c0,1.1,0,2.1,0,3.2c0,3.1,1.6,4.9,4.1,5c2.6,0,4.1-1.9,4.1-5c0-1,0-2,0-3.1c2.8,0,5.4,0,8.2,0c0,1.3,0,2.5,0,3.7
		c0.1,2.6,1.7,4.4,4.1,4.4c2.3,0,4.1-1.8,4.1-4.3c0-1.2,0-2.5,0-3.8c5.6,0,11,0,16.5,0c0,0,0.1,0.1,0.1,0.2
		c-0.2,6.3,0.2,12.7-0.6,19c-1.2,10.1-5.6,19.2-10.8,27.8c-0.9,1.6-2,2.1-3.8,2.1c-15-0.1-29.9-0.1-44.9,0c-1.1,0-1.7-0.3-2.3-1.2
		c-5.4-8.9-9.7-18.2-11.2-28.6c-0.6-4-0.5-8.1-0.6-12.1C643,78.9,643,76.5,643,74.1z"/>
	<path d="M642.8,65.8c0.2-3.9,0-7.7,0.7-11.5c1-5.2,6.1-9,11.4-9c16.8-0.1,33.6-0.1,50.4,0c6.2,0,11.5,5.1,11.8,11.3
		c0.2,3,0,6.1,0,9.2C692.4,65.8,667.8,65.8,642.8,65.8z"/>
	<path d="M710.2,148.5c0.7,3.1,1.4,6,2,8.9c0.1,0.4-0.1,1-0.4,1.2c-3.9,2.8-7.9,5.5-11.8,8.2c-2.4-1.6-4.7-3.2-7-4.8
		c-2.2-1.5-3.6-1.5-5.8,0c-2,1.3-3.9,2.6-5.8,4.1c-0.9,0.7-1.5,0.6-2.4,0c-1.9-1.4-3.8-2.7-5.7-4c-2.3-1.6-3.7-1.6-6,0
		c-2.3,1.6-4.6,3.2-6.9,4.7c-4-2.7-7.9-5.4-11.8-8.1c-0.3-0.2-0.5-0.9-0.5-1.3c0.6-2.9,1.3-5.9,2-9c0.5,0.3,0.9,0.5,1.3,0.8
		c2.1,1.4,4.2,2.9,6.3,4.4c1.9,1.3,3.4,1.3,5.3,0c2.1-1.4,4.2-2.9,6.3-4.4c0.7-0.5,1.2-0.5,1.9,0c2,1.5,4.1,2.9,6.2,4.3
		c2,1.3,3.5,1.4,5.4,0c2.1-1.4,4.2-2.9,6.3-4.4c0.7-0.5,1.1-0.5,1.8,0c2,1.5,4.1,2.9,6.2,4.3c2,1.4,3.5,1.4,5.6,0
		C705.1,152,707.6,150.3,710.2,148.5z"/>
	<path d="M660.4,145.5c-2.6-1.8-5.1-3.5-7.6-5.3c-0.3-0.2-0.5-0.8-0.5-1.2c0.5-2.3,1-4.5,1.5-6.8c0.2-0.8,0.5-0.9,1.2-0.9
		c2.5,0,4.9,0,7.4,0c14.1,0,28.2,0,42.3,0c1.1,0,1.6,0.2,1.8,1.4c0.4,2.1,1,4.2,1.4,6.3c0.1,0.4-0.1,1.1-0.4,1.4
		c-2.5,1.8-5,3.4-7.6,5.2c-2.4-1.6-4.7-3.2-7-4.8c-2.2-1.5-3.6-1.5-5.8,0c-2,1.4-4.1,2.8-6.1,4.2c-0.7,0.5-1.2,0.5-1.9,0
		c-1.9-1.4-3.9-2.7-5.8-4.1c-2.4-1.7-3.7-1.7-6.2,0C664.9,142.4,662.7,143.9,660.4,145.5z"/>
</g>
<g>
	<path d="M96.6,185.5c-0.8-0.2-1.7-0.4-2.5-0.7c-6.8-2.1-10.5-8.7-8.9-16c0.1-0.5,0.3-1,0.5-1.8c0.5,0.3,0.9,0.6,1.3,0.8
		c3.5,2.4,6.9,4.7,10.4,7.1c2,1.4,3.5,1.4,5.5,0c2.1-1.4,4.2-2.8,6.2-4.3c0.7-0.5,1.2-0.5,1.9,0c2,1.5,4.1,2.9,6.2,4.3
		c2,1.3,3.5,1.4,5.4,0c2.1-1.4,4.2-2.9,6.3-4.4c0.7-0.5,1.1-0.5,1.8,0c2.1,1.5,4.2,2.9,6.3,4.4c1.9,1.3,3.4,1.3,5.3,0
		c3.9-2.6,7.7-5.3,11.7-8.1c1.1,3.2,1.3,6.4,0.2,9.5c-1.7,4.9-5.2,7.7-10.2,8.7c-0.3,0.1-0.6,0.2-0.9,0.3
		C127.6,185.5,112.1,185.5,96.6,185.5z"/>
	<path d="M82.7,74.1c5.6,0,10.9,0,16.4,0c0,0.7,0,1.2,0,1.8c0,4.4,1.3,6.3,4.1,6.3c2.9,0,4.1-2,4.1-6.4c0-0.5,0-1.1,0-1.7
		c2.8,0,5.4,0,8.2,0c0,1.1,0,2.1,0,3.2c0,3.1,1.6,4.9,4.1,5c2.6,0,4.1-1.9,4.1-5c0-1,0-2,0-3.1c2.8,0,5.4,0,8.2,0c0,1.3,0,2.5,0,3.7
		c0.1,2.6,1.7,4.4,4.1,4.4c2.3,0,4.1-1.8,4.1-4.3c0-1.2,0-2.5,0-3.8c5.6,0,11,0,16.5,0c0,0,0.1,0.1,0.1,0.2
		c-0.2,6.3,0.2,12.7-0.6,19c-1.2,10.1-5.6,19.2-10.8,27.8c-0.9,1.6-2,2.1-3.8,2.1c-15-0.1-29.9-0.1-44.9,0c-1.1,0-1.7-0.3-2.3-1.2
		c-5.4-8.9-9.7-18.2-11.2-28.6c-0.6-4-0.5-8.1-0.6-12.1C82.7,78.9,82.7,76.5,82.7,74.1z"/>
	<path d="M82.5,65.8c0.2-3.9,0-7.7,0.7-11.5c1-5.2,6.1-9,11.4-9c16.8-0.1,33.6-0.1,50.4,0c6.2,0,11.5,5.1,11.8,11.3
		c0.2,3,0,6.1,0,9.2C132.2,65.8,107.5,65.8,82.5,65.8z"/>
	<path d="M149.9,148.5c0.7,3.1,1.4,6,2,8.9c0.1,0.4-0.1,1-0.4,1.2c-3.9,2.8-7.9,5.5-11.8,8.2c-2.4-1.6-4.7-3.2-7-4.8
		c-2.2-1.5-3.6-1.5-5.8,0c-2,1.3-3.9,2.6-5.8,4.1c-0.9,0.7-1.5,0.6-2.4,0c-1.9-1.4-3.8-2.7-5.7-4c-2.3-1.6-3.7-1.6-6,0
		c-2.3,1.6-4.6,3.2-6.9,4.7c-4-2.7-7.9-5.4-11.8-8.1c-0.3-0.2-0.5-0.9-0.5-1.3c0.6-2.9,1.3-5.9,2-9c0.5,0.3,0.9,0.5,1.3,0.8
		c2.1,1.4,4.2,2.9,6.3,4.4c1.9,1.3,3.4,1.3,5.3,0c2.1-1.4,4.2-2.9,6.3-4.4c0.7-0.5,1.2-0.5,1.9,0c2,1.5,4.1,2.9,6.2,4.3
		c2,1.3,3.5,1.4,5.4,0c2.1-1.4,4.2-2.9,6.3-4.4c0.7-0.5,1.1-0.5,1.8,0c2,1.5,4.1,2.9,6.2,4.3c2,1.4,3.5,1.4,5.6,0
		C144.8,152,147.3,150.3,149.9,148.5z"/>
	<path d="M100.1,145.5c-2.6-1.8-5.1-3.5-7.6-5.3c-0.3-0.2-0.5-0.8-0.5-1.2c0.5-2.3,1-4.5,1.5-6.8c0.2-0.8,0.5-0.9,1.2-0.9
		c2.5,0,4.9,0,7.4,0c14.1,0,28.2,0,42.3,0c1.1,0,1.6,0.2,1.8,1.4c0.4,2.1,1,4.2,1.4,6.3c0.1,0.4-0.1,1.1-0.4,1.4
		c-2.5,1.8-5,3.4-7.6,5.2c-2.4-1.6-4.7-3.2-7-4.8c-2.2-1.5-3.6-1.5-5.8,0c-2,1.4-4.1,2.8-6.1,4.2c-0.7,0.5-1.2,0.5-1.9,0
		c-1.9-1.4-3.9-2.7-5.8-4.1c-2.4-1.7-3.7-1.7-6.2,0C104.6,142.4,102.4,143.9,100.1,145.5z"/>
</g>
<g>
	<path d="M706.7,602c0.9,0.3,1.8,0.5,2.7,0.9c4.6,2,7.4,5.5,7.7,10.5c0.2,3,0,6,0,9.1c-24.7,0-49.3,0-74,0c0-0.2-0.1-0.4-0.1-0.6
		c0-2.7-0.1-5.4,0.1-8.1c0.3-5.8,4-10.2,9.7-11.5c0.3-0.1,0.5-0.2,0.7-0.3C671.3,602,689,602,706.7,602z"/>
	<path d="M643,630.8c5.5,0,10.9,0,16.4,0c0,1.3,0,2.5,0,3.7c0.1,2.6,1.7,4.4,4,4.4c2.4,0,4.1-1.8,4.2-4.4c0-1.2,0-2.4,0-3.7
		c2.8,0,5.4,0,8.2,0c0,1.3,0,2.5,0,3.7c0.1,2.6,1.7,4.4,4,4.4c2.4,0,4.1-1.8,4.2-4.4c0-1.2,0-2.4,0-3.7c2.7,0,5.4,0,8.2,0
		c0,1.2,0,2.4,0,3.7c0.1,2.6,1.7,4.4,4,4.4c2.4,0,4.1-1.8,4.2-4.5c0-1.2,0-2.4,0-3.7c5.6,0,11.1,0,16.6,0c0,0.1,0.1,0.2,0.1,0.3
		c-0.1,5.6,0.1,11.2-0.3,16.8c-0.6,8-3.5,15.4-7.1,22.6c-1.5,2.9-3.1,5.7-4.8,8.4c-0.3,0.5-1,0.9-1.6,0.9c-15.6,0-31.1,0-46.7,0
		c-0.5,0-1.3-0.3-1.5-0.7c-5.7-9-10.1-18.5-11.6-29.1c-0.7-4.9-0.4-9.9-0.6-14.9C642.9,633.7,643,632.3,643,630.8z"/>
	<path d="M646,723.8c3,2,5.9,4,8.9,6c1,0.7,2,1.3,2.9,2c1.7,1.1,3.3,1.1,5,0c2.1-1.5,4.3-2.9,6.4-4.4c0.8-0.6,1.3-0.5,2,0
		c2,1.5,4.1,2.9,6.2,4.3c1.9,1.3,3.4,1.3,5.3,0c2.2-1.5,4.3-2.9,6.4-4.4c0.6-0.4,1-0.5,1.7,0c2,1.5,4.1,2.9,6.2,4.3
		c2.1,1.5,3.5,1.5,5.7,0c3.8-2.6,7.7-5.3,11.5-7.9c2.3,5.6,0.7,13.9-6.6,17.1c-1.8,0.8-3.9,1.3-5.9,1.3c-14.4,0.1-28.7,0.1-43.1,0
		c-9.6-0.1-15.8-8.9-12.8-18.1C645.8,724.1,645.9,724,646,723.8z"/>
	<path d="M710.2,705.3c0.7,3.2,1.4,6.1,2,9.1c0.1,0.3-0.3,0.9-0.6,1.2c-3.7,2.6-7.3,5.1-11.1,7.6c-0.3,0.2-1,0.2-1.4,0
		c-2.1-1.3-4.1-2.8-6.1-4.2c-2.5-1.7-3.7-1.7-6.2,0c-2,1.4-3.9,2.7-5.8,4.1c-0.6,0.5-1.1,0.5-1.8,0c-2.1-1.5-4.2-2.9-6.3-4.4
		c-2-1.3-3.5-1.3-5.4,0c-2.4,1.6-4.7,3.3-7.2,5c-4-2.7-8-5.4-11.9-8.2c-0.3-0.2-0.4-0.8-0.3-1.1c0.6-3,1.3-6,2.1-9.1
		c1.9,1.3,3.8,2.6,5.6,3.8c4.6,3.2,4.7,3.2,9.4,0c1.4-1,2.9-1.9,4.3-3c0.6-0.5,1.1-0.5,1.8,0c2,1.4,4,2.8,6,4.1
		c2.4,1.6,3.7,1.6,6.1,0c1.9-1.3,3.9-2.6,5.7-4c0.8-0.6,1.3-0.6,2.1,0c2,1.5,4,2.8,6.1,4.2c2,1.4,3.5,1.4,5.4,0.1
		C705.1,708.7,707.5,707,710.2,705.3z"/>
	<path d="M699.9,702.3c-2.4-1.6-4.7-3.2-7-4.8c-2.2-1.5-3.6-1.5-5.8,0c-2.1,1.4-4.1,2.8-6.2,4.3c-0.6,0.4-1,0.4-1.7,0
		c-2.1-1.5-4.2-2.9-6.3-4.4c-2-1.4-3.5-1.4-5.5,0c-2.4,1.6-4.7,3.3-7.1,4.9c-2.6-1.8-5.1-3.5-7.6-5.3c-0.3-0.2-0.6-0.8-0.5-1.2
		c0.5-2.3,1-4.5,1.5-6.8c0.2-0.7,0.5-0.9,1.2-0.9c1.6,0,3.1,0,4.7,0c15,0,30,0,45.1,0c1.1,0,1.6,0.2,1.8,1.4c0.4,2.1,1,4.2,1.4,6.3
		c0.1,0.4-0.1,1.1-0.4,1.4C705,698.8,702.5,700.5,699.9,702.3z"/>
</g>
<g>
	<path d="M146.4,602c0.9,0.3,1.8,0.5,2.7,0.9c4.6,2,7.4,5.5,7.7,10.5c0.2,3,0,6,0,9.1c-24.7,0-49.3,0-74,0c0-0.2-0.1-0.4-0.1-0.6
		c0-2.7-0.1-5.4,0.1-8.1c0.3-5.8,4-10.2,9.7-11.5c0.3-0.1,0.5-0.2,0.7-0.3C111,602,128.7,602,146.4,602z"/>
	<path d="M82.7,630.8c5.5,0,10.9,0,16.4,0c0,1.3,0,2.5,0,3.7c0.1,2.6,1.7,4.4,4,4.4c2.4,0,4.1-1.8,4.2-4.4c0-1.2,0-2.4,0-3.7
		c2.8,0,5.4,0,8.2,0c0,1.3,0,2.5,0,3.7c0.1,2.6,1.7,4.4,4,4.4c2.4,0,4.1-1.8,4.2-4.4c0-1.2,0-2.4,0-3.7c2.7,0,5.4,0,8.2,0
		c0,1.2,0,2.4,0,3.7c0.1,2.6,1.7,4.4,4,4.4c2.4,0,4.1-1.8,4.2-4.5c0-1.2,0-2.4,0-3.7c5.6,0,11.1,0,16.6,0c0,0.1,0.1,0.2,0.1,0.3
		c-0.1,5.6,0.1,11.2-0.3,16.8c-0.6,8-3.5,15.4-7.1,22.6c-1.5,2.9-3.1,5.7-4.8,8.4c-0.3,0.5-1,0.9-1.6,0.9c-15.6,0-31.1,0-46.7,0
		c-0.5,0-1.3-0.3-1.5-0.7c-5.7-9-10.1-18.5-11.6-29.1c-0.7-4.9-0.4-9.9-0.6-14.9C82.7,633.7,82.7,632.3,82.7,630.8z"/>
	<path d="M85.8,723.8c3,2,5.9,4,8.9,6c1,0.7,2,1.3,2.9,2c1.7,1.1,3.3,1.1,5,0c2.1-1.5,4.3-2.9,6.4-4.4c0.8-0.6,1.3-0.5,2,0
		c2,1.5,4.1,2.9,6.2,4.3c1.9,1.3,3.4,1.3,5.3,0c2.2-1.5,4.3-2.9,6.4-4.4c0.6-0.4,1-0.5,1.7,0c2,1.5,4.1,2.9,6.2,4.3
		c2.1,1.5,3.5,1.5,5.7,0c3.8-2.6,7.6-5.2,11.4-7.8c0,0,0.1,0,0.1,0c2.3,5.5,0.7,13.8-6.6,17c-1.8,0.8-3.9,1.3-5.9,1.3
		c-14.4,0.1-28.7,0.1-43.1,0c-9.6-0.1-15.8-8.9-12.8-18.1C85.5,724.1,85.6,724,85.8,723.8z"/>
	<path d="M149.9,705.3c0.7,3.2,1.4,6.1,2,9.1c0.1,0.3-0.3,0.9-0.6,1.2c-3.7,2.6-7.3,5.1-11.1,7.6c-0.3,0.2-1,0.2-1.4,0
		c-2.1-1.3-4.1-2.8-6.1-4.2c-2.5-1.7-3.7-1.7-6.2,0c-2,1.4-3.9,2.7-5.8,4.1c-0.6,0.5-1.1,0.5-1.8,0c-2.1-1.5-4.2-2.9-6.3-4.4
		c-2-1.3-3.5-1.3-5.4,0c-2.4,1.6-4.7,3.3-7.2,5c-4-2.7-8-5.4-11.9-8.2c-0.3-0.2-0.4-0.8-0.3-1.1c0.6-3,1.3-6,2.1-9.1
		c1.9,1.3,3.8,2.6,5.6,3.8c4.6,3.2,4.7,3.2,9.4,0c1.4-1,2.9-1.9,4.3-3c0.6-0.5,1.1-0.5,1.8,0c2,1.4,4,2.8,6,4.1
		c2.4,1.6,3.7,1.6,6.1,0c1.9-1.3,3.9-2.6,5.7-4c0.8-0.6,1.3-0.6,2.1,0c2,1.5,4,2.8,6.1,4.2c2,1.4,3.5,1.4,5.4,0.1
		C144.8,708.7,147.3,707,149.9,705.3z"/>
	<path d="M139.6,702.3c-2.4-1.6-4.7-3.2-7-4.8c-2.2-1.5-3.6-1.5-5.8,0c-2.1,1.4-4.1,2.8-6.2,4.3c-0.6,0.4-1,0.4-1.7,0
		c-2.1-1.5-4.2-2.9-6.3-4.4c-2-1.4-3.5-1.4-5.5,0c-2.4,1.6-4.7,3.3-7.1,4.9c-2.6-1.8-5.1-3.5-7.6-5.3c-0.3-0.2-0.6-0.8-0.5-1.2
		c0.5-2.3,1-4.5,1.5-6.8c0.2-0.7,0.5-0.9,1.2-0.9c1.6,0,3.1,0,4.7,0c15,0,30,0,45.1,0c1.1,0,1.6,0.2,1.8,1.4c0.4,2.1,1,4.2,1.4,6.3
		c0.1,0.4-0.1,1.1-0.4,1.4C144.8,698.8,142.2,700.5,139.6,702.3z"/>
</g>
</svg>
