<?xml version="1.0" encoding="utf-8"?>
<!-- Generator: Adobe Illustrator 25.4.1, SVG Export Plug-In . SVG Version: 6.00 Build 0)  -->
<svg version="1.1" id="Calque_1" xmlns="http://www.w3.org/2000/svg" xmlns:xlink="http://www.w3.org/1999/xlink" x="0px" y="0px"
	 viewBox="0 0 800 800" style="enable-background:new 0 0 800 800;" xml:space="preserve">
<style type="text/css">
	.st0{fill:#00458B;}
	.st1{fill:none;stroke:#00458B;stroke-width:0.63;}
	.st2{fill:none;}
</style>
<g>
	<g>
		<g>
			<g>
				<polygon class="st0" points="768,749.2 768.3,749.2 778.3,733.4 778,733.4 				"/>
				<polygon class="st0" points="783.7,749.2 784,749.2 794,733.4 793.7,733.4 				"/>
				<line class="st1" x1="771.1" y1="747.3" x2="784.9" y2="747.3"/>
				<line class="st1" x1="773" y1="744.3" x2="786.8" y2="744.3"/>
				<line class="st1" x1="774.9" y1="741.4" x2="788.7" y2="741.4"/>
				<line class="st1" x1="776.8" y1="738.4" x2="790.6" y2="738.4"/>
				<line class="st1" x1="778.7" y1="735.4" x2="792.5" y2="735.4"/>
				<polygon class="st0" points="768,749.2 778,764.9 794,764.9 784,749.2 				"/>
			</g>
			<g>
				<polygon class="st0" points="768,717.7 768.3,717.7 778.3,702 778,702 				"/>
				<polygon class="st0" points="783.7,717.7 784,717.7 794,702 793.7,702 				"/>
				<line class="st1" x1="771.1" y1="715.9" x2="784.9" y2="715.9"/>
				<line class="st1" x1="773" y1="712.9" x2="786.8" y2="712.9"/>
				<line class="st1" x1="774.9" y1="709.9" x2="788.7" y2="709.9"/>
				<line class="st1" x1="776.8" y1="706.9" x2="790.6" y2="706.9"/>
				<line class="st1" x1="778.7" y1="704" x2="792.5" y2="704"/>
				<polygon class="st0" points="768,717.7 778,733.4 794,733.4 784,717.7 				"/>
			</g>
			<g>
				<polygon class="st0" points="768,686.3 768.3,686.3 778.3,670.5 778,670.5 				"/>
				<polygon class="st0" points="783.7,686.3 784,686.3 794,670.5 793.7,670.5 				"/>
				<line class="st1" x1="771.1" y1="684.4" x2="784.9" y2="684.4"/>
				<line class="st1" x1="773" y1="681.4" x2="786.8" y2="681.4"/>
				<line class="st1" x1="774.9" y1="678.5" x2="788.7" y2="678.5"/>
				<line class="st1" x1="776.8" y1="675.5" x2="790.6" y2="675.5"/>
				<line class="st1" x1="778.7" y1="672.5" x2="792.5" y2="672.5"/>
				<polygon class="st0" points="768,686.3 778,702 794,702 784,686.3 				"/>
			</g>
			<g>
				<polygon class="st0" points="768,654.8 768.3,654.8 778.3,639.1 778,639.1 				"/>
				<polygon class="st0" points="783.7,654.8 784,654.8 794,639.1 793.7,639.1 				"/>
				<line class="st1" x1="771.1" y1="653" x2="784.9" y2="653"/>
				<line class="st1" x1="773" y1="650" x2="786.8" y2="650"/>
				<line class="st1" x1="774.9" y1="647" x2="788.7" y2="647"/>
				<line class="st1" x1="776.8" y1="644" x2="790.6" y2="644"/>
				<line class="st1" x1="778.7" y1="641" x2="792.5" y2="641"/>
				<polygon class="st0" points="768,654.8 778,670.5 794,670.5 784,654.8 				"/>
			</g>
			<g>
				<polygon class="st0" points="768,623.4 768.3,623.4 778.3,607.6 778,607.6 				"/>
				<polygon class="st0" points="783.7,623.4 784,623.4 794,607.6 793.7,607.6 				"/>
				<line class="st1" x1="771.1" y1="621.5" x2="784.9" y2="621.5"/>
				<line class="st1" x1="773" y1="618.5" x2="786.8" y2="618.5"/>
				<line class="st1" x1="774.9" y1="615.6" x2="788.7" y2="615.6"/>
				<line class="st1" x1="776.8" y1="612.6" x2="790.6" y2="612.6"/>
				<line class="st1" x1="778.7" y1="609.6" x2="792.5" y2="609.6"/>
				<polygon class="st0" points="768,623.4 778,639.1 794,639.1 784,623.4 				"/>
			</g>
			<g>
				<polygon class="st0" points="768,591.9 768.3,591.9 778.3,576.2 778,576.2 				"/>
				<polygon class="st0" points="783.7,591.9 784,591.9 794,576.2 793.7,576.2 				"/>
				<line class="st1" x1="771.1" y1="590.1" x2="784.9" y2="590.1"/>
				<line class="st1" x1="773" y1="587.1" x2="786.8" y2="587.1"/>
				<line class="st1" x1="774.9" y1="584.1" x2="788.7" y2="584.1"/>
				<line class="st1" x1="776.8" y1="581.1" x2="790.6" y2="581.1"/>
				<line class="st1" x1="778.7" y1="578.1" x2="792.5" y2="578.1"/>
				<polygon class="st0" points="768,591.9 778,607.6 794,607.6 784,591.9 				"/>
			</g>
			<g>
				<polygon class="st0" points="768,560.5 768.3,560.5 778.3,544.7 778,544.7 				"/>
				<polygon class="st0" points="783.7,560.5 784,560.5 794,544.7 793.7,544.7 				"/>
				<line class="st1" x1="771.1" y1="558.6" x2="784.9" y2="558.6"/>
				<line class="st1" x1="773" y1="555.6" x2="786.8" y2="555.6"/>
				<line class="st1" x1="774.9" y1="552.7" x2="788.7" y2="552.7"/>
				<line class="st1" x1="776.8" y1="549.7" x2="790.6" y2="549.7"/>
				<line class="st1" x1="778.7" y1="546.7" x2="792.5" y2="546.7"/>
				<polygon class="st0" points="768,560.5 778,576.2 794,576.2 784,560.5 				"/>
			</g>
			<g>
				<polygon class="st0" points="768,529 768.3,529 778.3,513.3 778,513.3 				"/>
				<polygon class="st0" points="783.7,529 784,529 794,513.3 793.7,513.3 				"/>
				<line class="st1" x1="771.1" y1="527.2" x2="784.9" y2="527.2"/>
				<line class="st1" x1="773" y1="524.2" x2="786.8" y2="524.2"/>
				<line class="st1" x1="774.9" y1="521.2" x2="788.7" y2="521.2"/>
				<line class="st1" x1="776.8" y1="518.2" x2="790.6" y2="518.2"/>
				<line class="st1" x1="778.7" y1="515.2" x2="792.5" y2="515.2"/>
				<polygon class="st0" points="768,529 778,544.7 794,544.7 784,529 				"/>
			</g>
			<g>
				<polygon class="st0" points="768,497.6 768.3,497.6 778.3,481.8 778,481.8 				"/>
				<polygon class="st0" points="783.7,497.6 784,497.6 794,481.8 793.7,481.8 				"/>
				<line class="st1" x1="771.1" y1="495.7" x2="784.9" y2="495.7"/>
				<line class="st1" x1="773" y1="492.7" x2="786.8" y2="492.7"/>
				<line class="st1" x1="774.9" y1="489.7" x2="788.7" y2="489.7"/>
				<line class="st1" x1="776.8" y1="486.8" x2="790.6" y2="486.8"/>
				<line class="st1" x1="778.7" y1="483.8" x2="792.5" y2="483.8"/>
				<polygon class="st0" points="768,497.6 778,513.3 794,513.3 784,497.6 				"/>
			</g>
			<g>
				<polygon class="st0" points="768,466.1 768.3,466.1 778.3,450.4 778,450.4 				"/>
				<polygon class="st0" points="783.7,466.1 784,466.1 794,450.4 793.7,450.4 				"/>
				<line class="st1" x1="771.1" y1="464.3" x2="784.9" y2="464.3"/>
				<line class="st1" x1="773" y1="461.3" x2="786.8" y2="461.3"/>
				<line class="st1" x1="774.9" y1="458.3" x2="788.7" y2="458.3"/>
				<line class="st1" x1="776.8" y1="455.3" x2="790.6" y2="455.3"/>
				<line class="st1" x1="778.7" y1="452.3" x2="792.5" y2="452.3"/>
				<polygon class="st0" points="768,466.1 778,481.8 794,481.8 784,466.1 				"/>
			</g>
			<g>
				<polygon class="st0" points="768,434.6 768.3,434.6 778.3,418.9 778,418.9 				"/>
				<polygon class="st0" points="783.7,434.6 784,434.6 794,418.9 793.7,418.9 				"/>
				<line class="st1" x1="771.1" y1="432.8" x2="784.9" y2="432.8"/>
				<line class="st1" x1="773" y1="429.8" x2="786.8" y2="429.8"/>
				<line class="st1" x1="774.9" y1="426.8" x2="788.7" y2="426.8"/>
				<line class="st1" x1="776.8" y1="423.9" x2="790.6" y2="423.9"/>
				<line class="st1" x1="778.7" y1="420.9" x2="792.5" y2="420.9"/>
				<polygon class="st0" points="768,434.6 778,450.4 794,450.4 784,434.6 				"/>
			</g>
			<g>
				<polygon class="st0" points="768,403.2 768.3,403.2 778.3,387.5 778,387.5 				"/>
				<polygon class="st0" points="783.7,403.2 784,403.2 794,387.5 793.7,387.5 				"/>
				<line class="st1" x1="771.1" y1="401.4" x2="784.9" y2="401.4"/>
				<line class="st1" x1="773" y1="398.4" x2="786.8" y2="398.4"/>
				<line class="st1" x1="774.9" y1="395.4" x2="788.7" y2="395.4"/>
				<line class="st1" x1="776.8" y1="392.4" x2="790.6" y2="392.4"/>
				<line class="st1" x1="778.7" y1="389.4" x2="792.5" y2="389.4"/>
				<polygon class="st0" points="768,403.2 778,418.9 794,418.9 784,403.2 				"/>
			</g>
			<g>
				<polygon class="st0" points="768,371.7 768.3,371.7 778.3,356 778,356 				"/>
				<polygon class="st0" points="783.7,371.7 784,371.7 794,356 793.7,356 				"/>
				<line class="st1" x1="771.1" y1="369.9" x2="784.9" y2="369.9"/>
				<line class="st1" x1="773" y1="366.9" x2="786.8" y2="366.9"/>
				<line class="st1" x1="774.9" y1="363.9" x2="788.7" y2="363.9"/>
				<line class="st1" x1="776.8" y1="361" x2="790.6" y2="361"/>
				<line class="st1" x1="778.7" y1="358" x2="792.5" y2="358"/>
				<polygon class="st0" points="768,371.7 778,387.5 794,387.5 784,371.7 				"/>
			</g>
			<g>
				<polygon class="st0" points="768,340.3 768.3,340.3 778.3,324.6 778,324.6 				"/>
				<polygon class="st0" points="783.7,340.3 784,340.3 794,324.6 793.7,324.6 				"/>
				<line class="st1" x1="771.1" y1="338.4" x2="784.9" y2="338.4"/>
				<line class="st1" x1="773" y1="335.5" x2="786.8" y2="335.5"/>
				<line class="st1" x1="774.9" y1="332.5" x2="788.7" y2="332.5"/>
				<line class="st1" x1="776.8" y1="329.5" x2="790.6" y2="329.5"/>
				<line class="st1" x1="778.7" y1="326.5" x2="792.5" y2="326.5"/>
				<polygon class="st0" points="768,340.3 778,356 794,356 784,340.3 				"/>
			</g>
			<g>
				<polygon class="st0" points="768,308.8 768.3,308.8 778.3,293.1 778,293.1 				"/>
				<polygon class="st0" points="783.7,308.8 784,308.8 794,293.1 793.7,293.1 				"/>
				<line class="st1" x1="771.1" y1="307" x2="784.9" y2="307"/>
				<line class="st1" x1="773" y1="304" x2="786.8" y2="304"/>
				<line class="st1" x1="774.9" y1="301" x2="788.7" y2="301"/>
				<line class="st1" x1="776.8" y1="298.1" x2="790.6" y2="298.1"/>
				<line class="st1" x1="778.7" y1="295.1" x2="792.5" y2="295.1"/>
				<polygon class="st0" points="768,308.8 778,324.6 794,324.6 784,308.8 				"/>
			</g>
			<g>
				<polygon class="st0" points="768,277.4 768.3,277.4 778.3,261.7 778,261.7 				"/>
				<polygon class="st0" points="783.7,277.4 784,277.4 794,261.7 793.7,261.7 				"/>
				<line class="st1" x1="771.1" y1="275.5" x2="784.9" y2="275.5"/>
				<line class="st1" x1="773" y1="272.6" x2="786.8" y2="272.6"/>
				<line class="st1" x1="774.9" y1="269.6" x2="788.7" y2="269.6"/>
				<line class="st1" x1="776.8" y1="266.6" x2="790.6" y2="266.6"/>
				<line class="st1" x1="778.7" y1="263.6" x2="792.5" y2="263.6"/>
				<polygon class="st0" points="768,277.4 778,293.1 794,293.1 784,277.4 				"/>
			</g>
			<g>
				<polygon class="st0" points="768,245.9 768.3,245.9 778.3,230.2 778,230.2 				"/>
				<polygon class="st0" points="783.7,245.9 784,245.9 794,230.2 793.7,230.2 				"/>
				<line class="st1" x1="771.1" y1="244.1" x2="784.9" y2="244.1"/>
				<line class="st1" x1="773" y1="241.1" x2="786.8" y2="241.1"/>
				<line class="st1" x1="774.9" y1="238.1" x2="788.7" y2="238.1"/>
				<line class="st1" x1="776.8" y1="235.1" x2="790.6" y2="235.1"/>
				<line class="st1" x1="778.7" y1="232.2" x2="792.5" y2="232.2"/>
				<polygon class="st0" points="768,245.9 778,261.7 794,261.7 784,245.9 				"/>
			</g>
			<g>
				<polygon class="st0" points="768,214.5 768.3,214.5 778.3,198.8 778,198.8 				"/>
				<polygon class="st0" points="783.7,214.5 784,214.5 794,198.8 793.7,198.8 				"/>
				<line class="st1" x1="771.1" y1="212.6" x2="784.9" y2="212.6"/>
				<line class="st1" x1="773" y1="209.7" x2="786.8" y2="209.7"/>
				<line class="st1" x1="774.9" y1="206.7" x2="788.7" y2="206.7"/>
				<line class="st1" x1="776.8" y1="203.7" x2="790.6" y2="203.7"/>
				<line class="st1" x1="778.7" y1="200.7" x2="792.5" y2="200.7"/>
				<polygon class="st0" points="768,214.5 778,230.2 794,230.2 784,214.5 				"/>
			</g>
			<g>
				<polygon class="st0" points="768,183 768.3,183 778.3,167.3 778,167.3 				"/>
				<polygon class="st0" points="783.7,183 784,183 794,167.3 793.7,167.3 				"/>
				<line class="st1" x1="771.1" y1="181.2" x2="784.9" y2="181.2"/>
				<line class="st1" x1="773" y1="178.2" x2="786.8" y2="178.2"/>
				<line class="st1" x1="774.9" y1="175.2" x2="788.7" y2="175.2"/>
				<line class="st1" x1="776.8" y1="172.2" x2="790.6" y2="172.2"/>
				<line class="st1" x1="778.7" y1="169.3" x2="792.5" y2="169.3"/>
				<polygon class="st0" points="768,183 778,198.8 794,198.8 784,183 				"/>
			</g>
			<g>
				<polygon class="st0" points="768,151.6 768.3,151.6 778.3,135.9 778,135.9 				"/>
				<polygon class="st0" points="783.7,151.6 784,151.6 794,135.9 793.7,135.9 				"/>
				<line class="st1" x1="771.1" y1="149.7" x2="784.9" y2="149.7"/>
				<line class="st1" x1="773" y1="146.8" x2="786.8" y2="146.8"/>
				<line class="st1" x1="774.9" y1="143.8" x2="788.7" y2="143.8"/>
				<line class="st1" x1="776.8" y1="140.8" x2="790.6" y2="140.8"/>
				<line class="st1" x1="778.7" y1="137.8" x2="792.5" y2="137.8"/>
				<polygon class="st0" points="768,151.6 778,167.3 794,167.3 784,151.6 				"/>
			</g>
			<g>
				<polygon class="st0" points="768,120.1 768.3,120.1 778.3,104.4 778,104.4 				"/>
				<polygon class="st0" points="783.7,120.1 784,120.1 794,104.4 793.7,104.4 				"/>
				<line class="st1" x1="771.1" y1="118.3" x2="784.9" y2="118.3"/>
				<line class="st1" x1="773" y1="115.3" x2="786.8" y2="115.3"/>
				<line class="st1" x1="774.9" y1="112.3" x2="788.7" y2="112.3"/>
				<line class="st1" x1="776.8" y1="109.3" x2="790.6" y2="109.3"/>
				<line class="st1" x1="778.7" y1="106.4" x2="792.5" y2="106.4"/>
				<polygon class="st0" points="768,120.1 778,135.9 794,135.9 784,120.1 				"/>
			</g>
			<g>
				<polygon class="st0" points="768,88.7 768.3,88.7 778.3,73 778,72.9 				"/>
				<polygon class="st0" points="783.7,88.7 784,88.7 794,72.9 793.7,72.9 				"/>
				<line class="st1" x1="771.1" y1="86.8" x2="784.9" y2="86.8"/>
				<line class="st1" x1="773" y1="83.8" x2="786.8" y2="83.8"/>
				<line class="st1" x1="774.9" y1="80.9" x2="788.7" y2="80.9"/>
				<line class="st1" x1="776.8" y1="77.9" x2="790.6" y2="77.9"/>
				<line class="st1" x1="778.7" y1="74.9" x2="792.5" y2="74.9"/>
				<polygon class="st0" points="768,88.7 778,104.4 794,104.4 784,88.7 				"/>
			</g>
			<g>
				<polygon class="st0" points="768,57.2 768.3,57.2 778.3,41.5 778,41.5 				"/>
				<polygon class="st0" points="783.7,57.2 784,57.2 794,41.5 793.7,41.5 				"/>
				<line class="st1" x1="771.1" y1="55.4" x2="784.9" y2="55.4"/>
				<line class="st1" x1="773" y1="52.4" x2="786.8" y2="52.4"/>
				<line class="st1" x1="774.9" y1="49.4" x2="788.7" y2="49.4"/>
				<line class="st1" x1="776.8" y1="46.4" x2="790.6" y2="46.4"/>
				<line class="st1" x1="778.7" y1="43.5" x2="792.5" y2="43.5"/>
				<polygon class="st0" points="768,57.2 778,73 794,73 784,57.2 				"/>
			</g>
			<g>
				<polygon class="st0" points="752.3,41.5 752.3,41.2 736.5,31.2 736.5,31.5 				"/>
				<polygon class="st0" points="752.3,25.8 752.3,25.5 736.5,15.5 736.5,15.8 				"/>
				<line class="st1" x1="750.4" y1="38.4" x2="750.4" y2="24.6"/>
				<line class="st1" x1="747.4" y1="36.5" x2="747.4" y2="22.7"/>
				<line class="st1" x1="744.5" y1="34.6" x2="744.5" y2="20.8"/>
				<line class="st1" x1="741.5" y1="32.7" x2="741.5" y2="18.9"/>
				<line class="st1" x1="738.5" y1="30.8" x2="738.5" y2="17"/>
				<polygon class="st0" points="752.3,41.5 768,31.5 768,15.5 752.3,25.5 				"/>
			</g>
			<g>
				<polygon class="st0" points="720.8,41.5 720.8,41.2 705.1,31.2 705.1,31.5 				"/>
				<polygon class="st0" points="720.8,25.8 720.8,25.5 705.1,15.5 705.1,15.8 				"/>
				<line class="st1" x1="719" y1="38.4" x2="719" y2="24.6"/>
				<line class="st1" x1="716" y1="36.5" x2="716" y2="22.7"/>
				<line class="st1" x1="713" y1="34.6" x2="713" y2="20.8"/>
				<line class="st1" x1="710" y1="32.7" x2="710" y2="18.9"/>
				<line class="st1" x1="707.1" y1="30.8" x2="707.1" y2="17"/>
				<polygon class="st0" points="720.8,41.5 736.5,31.5 736.5,15.5 720.8,25.5 				"/>
			</g>
			<g>
				<polygon class="st0" points="689.4,41.5 689.4,41.2 673.6,31.2 673.6,31.5 				"/>
				<polygon class="st0" points="689.4,25.8 689.4,25.5 673.6,15.5 673.6,15.8 				"/>
				<line class="st1" x1="687.5" y1="38.4" x2="687.5" y2="24.6"/>
				<line class="st1" x1="684.5" y1="36.5" x2="684.5" y2="22.7"/>
				<line class="st1" x1="681.6" y1="34.6" x2="681.6" y2="20.8"/>
				<line class="st1" x1="678.6" y1="32.7" x2="678.6" y2="18.9"/>
				<line class="st1" x1="675.6" y1="30.8" x2="675.6" y2="17"/>
				<polygon class="st0" points="689.4,41.5 705.1,31.5 705.1,15.5 689.4,25.5 				"/>
			</g>
			<g>
				<polygon class="st0" points="657.9,41.5 657.9,41.2 642.2,31.2 642.2,31.5 				"/>
				<polygon class="st0" points="657.9,25.8 657.9,25.5 642.2,15.5 642.2,15.8 				"/>
				<line class="st1" x1="656.1" y1="38.4" x2="656.1" y2="24.6"/>
				<line class="st1" x1="653.1" y1="36.5" x2="653.1" y2="22.7"/>
				<line class="st1" x1="650.1" y1="34.6" x2="650.1" y2="20.8"/>
				<line class="st1" x1="647.1" y1="32.7" x2="647.1" y2="18.9"/>
				<line class="st1" x1="644.1" y1="30.8" x2="644.1" y2="17"/>
				<polygon class="st0" points="657.9,41.5 673.6,31.5 673.6,15.5 657.9,25.5 				"/>
			</g>
			<g>
				<polygon class="st0" points="626.5,41.5 626.5,41.2 610.7,31.2 610.7,31.5 				"/>
				<polygon class="st0" points="626.5,25.8 626.5,25.5 610.7,15.5 610.7,15.8 				"/>
				<line class="st1" x1="624.6" y1="38.4" x2="624.6" y2="24.6"/>
				<line class="st1" x1="621.6" y1="36.5" x2="621.6" y2="22.7"/>
				<line class="st1" x1="618.7" y1="34.6" x2="618.7" y2="20.8"/>
				<line class="st1" x1="615.7" y1="32.7" x2="615.7" y2="18.9"/>
				<line class="st1" x1="612.7" y1="30.8" x2="612.7" y2="17"/>
				<polygon class="st0" points="626.5,41.5 642.2,31.5 642.2,15.5 626.5,25.5 				"/>
			</g>
			<g>
				<polygon class="st0" points="595,41.5 595,41.2 579.3,31.2 579.3,31.5 				"/>
				<polygon class="st0" points="595,25.8 595,25.5 579.3,15.5 579.3,15.8 				"/>
				<line class="st1" x1="593.2" y1="38.4" x2="593.2" y2="24.6"/>
				<line class="st1" x1="590.2" y1="36.5" x2="590.2" y2="22.7"/>
				<line class="st1" x1="587.2" y1="34.6" x2="587.2" y2="20.8"/>
				<line class="st1" x1="584.2" y1="32.7" x2="584.2" y2="18.9"/>
				<line class="st1" x1="581.2" y1="30.8" x2="581.2" y2="17"/>
				<polygon class="st0" points="595,41.5 610.7,31.5 610.7,15.5 595,25.5 				"/>
			</g>
			<g>
				<polygon class="st0" points="563.6,41.5 563.6,41.2 547.8,31.2 547.8,31.5 				"/>
				<polygon class="st0" points="563.6,25.8 563.6,25.5 547.8,15.5 547.8,15.8 				"/>
				<line class="st1" x1="561.7" y1="38.4" x2="561.7" y2="24.6"/>
				<line class="st1" x1="558.7" y1="36.5" x2="558.7" y2="22.7"/>
				<line class="st1" x1="555.8" y1="34.6" x2="555.8" y2="20.8"/>
				<line class="st1" x1="552.8" y1="32.7" x2="552.8" y2="18.9"/>
				<line class="st1" x1="549.8" y1="30.8" x2="549.8" y2="17"/>
				<polygon class="st0" points="563.6,41.5 579.3,31.5 579.3,15.5 563.6,25.5 				"/>
			</g>
			<g>
				<polygon class="st0" points="532.1,41.5 532.1,41.2 516.4,31.2 516.4,31.5 				"/>
				<polygon class="st0" points="532.1,25.8 532.1,25.5 516.4,15.5 516.4,15.8 				"/>
				<line class="st1" x1="530.3" y1="38.4" x2="530.3" y2="24.6"/>
				<line class="st1" x1="527.3" y1="36.5" x2="527.3" y2="22.7"/>
				<line class="st1" x1="524.3" y1="34.6" x2="524.3" y2="20.8"/>
				<line class="st1" x1="521.3" y1="32.7" x2="521.3" y2="18.9"/>
				<line class="st1" x1="518.3" y1="30.8" x2="518.3" y2="17"/>
				<polygon class="st0" points="532.1,41.5 547.8,31.5 547.8,15.5 532.1,25.5 				"/>
			</g>
			<g>
				<polygon class="st0" points="500.7,41.5 500.7,41.2 484.9,31.2 484.9,31.5 				"/>
				<polygon class="st0" points="500.7,25.8 500.7,25.5 484.9,15.5 484.9,15.8 				"/>
				<line class="st1" x1="498.8" y1="38.4" x2="498.8" y2="24.6"/>
				<line class="st1" x1="495.8" y1="36.5" x2="495.8" y2="22.7"/>
				<line class="st1" x1="492.8" y1="34.6" x2="492.8" y2="20.8"/>
				<line class="st1" x1="489.9" y1="32.7" x2="489.9" y2="18.9"/>
				<line class="st1" x1="486.9" y1="30.8" x2="486.9" y2="17"/>
				<polygon class="st0" points="500.7,41.5 516.4,31.5 516.4,15.5 500.7,25.5 				"/>
			</g>
			<g>
				<polygon class="st0" points="469.2,41.5 469.2,41.2 453.5,31.2 453.5,31.5 				"/>
				<polygon class="st0" points="469.2,25.8 469.2,25.5 453.5,15.5 453.5,15.8 				"/>
				<line class="st1" x1="467.4" y1="38.4" x2="467.4" y2="24.6"/>
				<line class="st1" x1="464.4" y1="36.5" x2="464.4" y2="22.7"/>
				<line class="st1" x1="461.4" y1="34.6" x2="461.4" y2="20.8"/>
				<line class="st1" x1="458.4" y1="32.7" x2="458.4" y2="18.9"/>
				<line class="st1" x1="455.4" y1="30.8" x2="455.4" y2="17"/>
				<polygon class="st0" points="469.2,41.5 484.9,31.5 484.9,15.5 469.2,25.5 				"/>
			</g>
			<g>
				<polygon class="st0" points="437.7,41.5 437.7,41.2 422,31.2 422,31.5 				"/>
				<polygon class="st0" points="437.7,25.8 437.7,25.5 422,15.5 422,15.8 				"/>
				<line class="st1" x1="435.9" y1="38.4" x2="435.9" y2="24.6"/>
				<line class="st1" x1="432.9" y1="36.5" x2="432.9" y2="22.7"/>
				<line class="st1" x1="429.9" y1="34.6" x2="429.9" y2="20.8"/>
				<line class="st1" x1="427" y1="32.7" x2="427" y2="18.9"/>
				<line class="st1" x1="424" y1="30.8" x2="424" y2="17"/>
				<polygon class="st0" points="437.7,41.5 453.5,31.5 453.5,15.5 437.7,25.5 				"/>
			</g>
			<g>
				<polygon class="st0" points="406.3,41.5 406.3,41.2 390.6,31.2 390.6,31.5 				"/>
				<polygon class="st0" points="406.3,25.8 406.3,25.5 390.6,15.5 390.6,15.8 				"/>
				<line class="st1" x1="404.5" y1="38.4" x2="404.5" y2="24.6"/>
				<line class="st1" x1="401.5" y1="36.5" x2="401.5" y2="22.7"/>
				<line class="st1" x1="398.5" y1="34.6" x2="398.5" y2="20.8"/>
				<line class="st1" x1="395.5" y1="32.7" x2="395.5" y2="18.9"/>
				<line class="st1" x1="392.5" y1="30.8" x2="392.5" y2="17"/>
				<polygon class="st0" points="406.3,41.5 422,31.5 422,15.5 406.3,25.5 				"/>
			</g>
			<g>
				<polygon class="st0" points="374.8,41.5 374.8,41.2 359.1,31.2 359.1,31.5 				"/>
				<polygon class="st0" points="374.8,25.8 374.8,25.5 359.1,15.5 359.1,15.8 				"/>
				<line class="st1" x1="373" y1="38.4" x2="373" y2="24.6"/>
				<line class="st1" x1="370" y1="36.5" x2="370" y2="22.7"/>
				<line class="st1" x1="367" y1="34.6" x2="367" y2="20.8"/>
				<line class="st1" x1="364.1" y1="32.7" x2="364.1" y2="18.9"/>
				<line class="st1" x1="361.1" y1="30.8" x2="361.1" y2="17"/>
				<polygon class="st0" points="374.8,41.5 390.6,31.5 390.6,15.5 374.8,25.5 				"/>
			</g>
			<g>
				<polygon class="st0" points="343.4,41.5 343.4,41.2 327.7,31.2 327.7,31.5 				"/>
				<polygon class="st0" points="343.4,25.8 343.4,25.5 327.7,15.5 327.7,15.8 				"/>
				<line class="st1" x1="341.5" y1="38.4" x2="341.5" y2="24.6"/>
				<line class="st1" x1="338.6" y1="36.5" x2="338.6" y2="22.7"/>
				<line class="st1" x1="335.6" y1="34.6" x2="335.6" y2="20.8"/>
				<line class="st1" x1="332.6" y1="32.7" x2="332.6" y2="18.9"/>
				<line class="st1" x1="329.6" y1="30.8" x2="329.6" y2="17"/>
				<polygon class="st0" points="343.4,41.5 359.1,31.5 359.1,15.5 343.4,25.5 				"/>
			</g>
			<g>
				<polygon class="st0" points="311.9,41.5 311.9,41.2 296.2,31.2 296.2,31.5 				"/>
				<polygon class="st0" points="311.9,25.8 311.9,25.5 296.2,15.5 296.2,15.8 				"/>
				<line class="st1" x1="310.1" y1="38.4" x2="310.1" y2="24.6"/>
				<line class="st1" x1="307.1" y1="36.5" x2="307.1" y2="22.7"/>
				<line class="st1" x1="304.1" y1="34.6" x2="304.1" y2="20.8"/>
				<line class="st1" x1="301.2" y1="32.7" x2="301.2" y2="18.9"/>
				<line class="st1" x1="298.2" y1="30.8" x2="298.2" y2="17"/>
				<polygon class="st0" points="311.9,41.5 327.7,31.5 327.7,15.5 311.9,25.5 				"/>
			</g>
			<g>
				<polygon class="st0" points="280.5,41.5 280.5,41.2 264.8,31.2 264.8,31.5 				"/>
				<polygon class="st0" points="280.5,25.8 280.5,25.5 264.8,15.5 264.8,15.8 				"/>
				<line class="st1" x1="278.6" y1="38.4" x2="278.6" y2="24.6"/>
				<line class="st1" x1="275.7" y1="36.5" x2="275.7" y2="22.7"/>
				<line class="st1" x1="272.7" y1="34.6" x2="272.7" y2="20.8"/>
				<line class="st1" x1="269.7" y1="32.7" x2="269.7" y2="18.9"/>
				<line class="st1" x1="266.7" y1="30.8" x2="266.7" y2="17"/>
				<polygon class="st0" points="280.5,41.5 296.2,31.5 296.2,15.5 280.5,25.5 				"/>
			</g>
			<g>
				<polygon class="st0" points="249,41.5 249,41.2 233.3,31.2 233.3,31.5 				"/>
				<polygon class="st0" points="249,25.8 249,25.5 233.3,15.5 233.3,15.8 				"/>
				<line class="st1" x1="247.2" y1="38.4" x2="247.2" y2="24.6"/>
				<line class="st1" x1="244.2" y1="36.5" x2="244.2" y2="22.7"/>
				<line class="st1" x1="241.2" y1="34.6" x2="241.2" y2="20.8"/>
				<line class="st1" x1="238.2" y1="32.7" x2="238.2" y2="18.9"/>
				<line class="st1" x1="235.3" y1="30.8" x2="235.3" y2="17"/>
				<polygon class="st0" points="249,41.5 264.8,31.5 264.8,15.5 249,25.5 				"/>
			</g>
			<g>
				<polygon class="st0" points="217.6,41.5 217.6,41.2 201.9,31.2 201.9,31.5 				"/>
				<polygon class="st0" points="217.6,25.8 217.6,25.5 201.9,15.5 201.9,15.8 				"/>
				<line class="st1" x1="215.7" y1="38.4" x2="215.7" y2="24.6"/>
				<line class="st1" x1="212.8" y1="36.5" x2="212.8" y2="22.7"/>
				<line class="st1" x1="209.8" y1="34.6" x2="209.8" y2="20.8"/>
				<line class="st1" x1="206.8" y1="32.7" x2="206.8" y2="18.9"/>
				<line class="st1" x1="203.8" y1="30.8" x2="203.8" y2="17"/>
				<polygon class="st0" points="217.6,41.5 233.3,31.5 233.3,15.5 217.6,25.5 				"/>
			</g>
			<g>
				<polygon class="st0" points="186.1,41.5 186.1,41.2 170.4,31.2 170.4,31.5 				"/>
				<polygon class="st0" points="186.1,25.8 186.1,25.5 170.4,15.5 170.4,15.8 				"/>
				<line class="st1" x1="184.3" y1="38.4" x2="184.3" y2="24.6"/>
				<line class="st1" x1="181.3" y1="36.5" x2="181.3" y2="22.7"/>
				<line class="st1" x1="178.3" y1="34.6" x2="178.3" y2="20.8"/>
				<line class="st1" x1="175.3" y1="32.7" x2="175.3" y2="18.9"/>
				<line class="st1" x1="172.4" y1="30.8" x2="172.4" y2="17"/>
				<polygon class="st0" points="186.1,41.5 201.9,31.5 201.9,15.5 186.1,25.5 				"/>
			</g>
			<g>
				<polygon class="st0" points="154.7,41.5 154.7,41.2 139,31.2 139,31.5 				"/>
				<polygon class="st0" points="154.7,25.8 154.7,25.5 139,15.5 139,15.8 				"/>
				<line class="st1" x1="152.8" y1="38.4" x2="152.8" y2="24.6"/>
				<line class="st1" x1="149.9" y1="36.5" x2="149.9" y2="22.7"/>
				<line class="st1" x1="146.9" y1="34.6" x2="146.9" y2="20.8"/>
				<line class="st1" x1="143.9" y1="32.7" x2="143.9" y2="18.9"/>
				<line class="st1" x1="140.9" y1="30.8" x2="140.9" y2="17"/>
				<polygon class="st0" points="154.7,41.5 170.4,31.5 170.4,15.5 154.7,25.5 				"/>
			</g>
			<g>
				<polygon class="st0" points="123.2,41.5 123.2,41.2 107.5,31.2 107.5,31.5 				"/>
				<polygon class="st0" points="123.2,25.8 123.2,25.5 107.5,15.5 107.5,15.8 				"/>
				<line class="st1" x1="121.4" y1="38.4" x2="121.4" y2="24.6"/>
				<line class="st1" x1="118.4" y1="36.5" x2="118.4" y2="22.7"/>
				<line class="st1" x1="115.4" y1="34.6" x2="115.4" y2="20.8"/>
				<line class="st1" x1="112.4" y1="32.7" x2="112.4" y2="18.9"/>
				<line class="st1" x1="109.5" y1="30.8" x2="109.5" y2="17"/>
				<polygon class="st0" points="123.2,41.5 139,31.5 139,15.5 123.2,25.5 				"/>
			</g>
			<g>
				<polygon class="st0" points="91.8,41.5 91.8,41.2 76.1,31.2 76,31.5 				"/>
				<polygon class="st0" points="91.8,25.8 91.8,25.5 76,15.5 76,15.8 				"/>
				<line class="st1" x1="89.9" y1="38.4" x2="89.9" y2="24.6"/>
				<line class="st1" x1="86.9" y1="36.5" x2="86.9" y2="22.7"/>
				<line class="st1" x1="84" y1="34.6" x2="84" y2="20.8"/>
				<line class="st1" x1="81" y1="32.7" x2="81" y2="18.9"/>
				<line class="st1" x1="78" y1="30.8" x2="78" y2="17"/>
				<polygon class="st0" points="91.8,41.5 107.5,31.5 107.5,15.5 91.8,25.5 				"/>
			</g>
			<g>
				<polygon class="st0" points="60.3,41.5 60.3,41.2 44.6,31.2 44.6,31.5 				"/>
				<polygon class="st0" points="60.3,25.8 60.3,25.5 44.6,15.5 44.6,15.8 				"/>
				<line class="st1" x1="58.5" y1="38.4" x2="58.5" y2="24.6"/>
				<line class="st1" x1="55.5" y1="36.5" x2="55.5" y2="22.7"/>
				<line class="st1" x1="52.5" y1="34.6" x2="52.5" y2="20.8"/>
				<line class="st1" x1="49.5" y1="32.7" x2="49.5" y2="18.9"/>
				<line class="st1" x1="46.6" y1="30.8" x2="46.6" y2="17"/>
				<polygon class="st0" points="60.3,41.5 76.1,31.5 76.1,15.5 60.3,25.5 				"/>
			</g>
			<g>
				<polygon class="st0" points="44.6,57.2 44.3,57.2 34.3,73 34.6,73 				"/>
				<polygon class="st0" points="28.9,57.2 28.6,57.2 18.6,73 18.9,73 				"/>
				<line class="st1" x1="41.5" y1="59.1" x2="27.7" y2="59.1"/>
				<line class="st1" x1="39.6" y1="62.1" x2="25.8" y2="62.1"/>
				<line class="st1" x1="37.7" y1="65" x2="23.9" y2="65"/>
				<line class="st1" x1="35.8" y1="68" x2="22" y2="68"/>
				<line class="st1" x1="33.9" y1="71" x2="20.1" y2="71"/>
				<polygon class="st0" points="44.6,57.2 34.6,41.5 18.6,41.5 28.6,57.2 				"/>
			</g>
			<g>
				<polygon class="st0" points="44.6,88.7 44.3,88.7 34.3,104.4 34.6,104.4 				"/>
				<polygon class="st0" points="28.9,88.7 28.6,88.7 18.6,104.4 18.9,104.4 				"/>
				<line class="st1" x1="41.5" y1="90.5" x2="27.7" y2="90.5"/>
				<line class="st1" x1="39.6" y1="93.5" x2="25.8" y2="93.5"/>
				<line class="st1" x1="37.7" y1="96.5" x2="23.9" y2="96.5"/>
				<line class="st1" x1="35.8" y1="99.5" x2="22" y2="99.5"/>
				<line class="st1" x1="33.9" y1="102.4" x2="20.1" y2="102.4"/>
				<polygon class="st0" points="44.6,88.7 34.6,73 18.6,73 28.6,88.7 				"/>
			</g>
			<g>
				<polygon class="st0" points="44.6,120.1 44.3,120.1 34.3,135.9 34.6,135.9 				"/>
				<polygon class="st0" points="28.9,120.1 28.6,120.1 18.6,135.9 18.9,135.9 				"/>
				<line class="st1" x1="41.5" y1="122" x2="27.7" y2="122"/>
				<line class="st1" x1="39.6" y1="125" x2="25.8" y2="125"/>
				<line class="st1" x1="37.7" y1="127.9" x2="23.9" y2="127.9"/>
				<line class="st1" x1="35.8" y1="130.9" x2="22" y2="130.9"/>
				<line class="st1" x1="33.9" y1="133.9" x2="20.1" y2="133.9"/>
				<polygon class="st0" points="44.6,120.1 34.6,104.4 18.6,104.4 28.6,120.1 				"/>
			</g>
			<g>
				<polygon class="st0" points="44.6,151.6 44.3,151.6 34.3,167.3 34.6,167.3 				"/>
				<polygon class="st0" points="28.9,151.6 28.6,151.6 18.6,167.3 18.9,167.3 				"/>
				<line class="st1" x1="41.5" y1="153.4" x2="27.7" y2="153.4"/>
				<line class="st1" x1="39.6" y1="156.4" x2="25.8" y2="156.4"/>
				<line class="st1" x1="37.7" y1="159.4" x2="23.9" y2="159.4"/>
				<line class="st1" x1="35.8" y1="162.4" x2="22" y2="162.4"/>
				<line class="st1" x1="33.9" y1="165.4" x2="20.1" y2="165.4"/>
				<polygon class="st0" points="44.6,151.6 34.6,135.9 18.6,135.9 28.6,151.6 				"/>
			</g>
			<g>
				<polygon class="st0" points="44.6,183 44.3,183 34.3,198.8 34.6,198.8 				"/>
				<polygon class="st0" points="28.9,183 28.6,183 18.6,198.8 18.9,198.8 				"/>
				<line class="st1" x1="41.5" y1="184.9" x2="27.7" y2="184.9"/>
				<line class="st1" x1="39.6" y1="187.9" x2="25.8" y2="187.9"/>
				<line class="st1" x1="37.7" y1="190.8" x2="23.9" y2="190.8"/>
				<line class="st1" x1="35.8" y1="193.8" x2="22" y2="193.8"/>
				<line class="st1" x1="33.9" y1="196.8" x2="20.1" y2="196.8"/>
				<polygon class="st0" points="44.6,183 34.6,167.3 18.6,167.3 28.6,183 				"/>
			</g>
			<g>
				<polygon class="st0" points="44.6,214.5 44.3,214.5 34.3,230.2 34.6,230.2 				"/>
				<polygon class="st0" points="28.9,214.5 28.6,214.5 18.6,230.2 18.9,230.2 				"/>
				<line class="st1" x1="41.5" y1="216.3" x2="27.7" y2="216.3"/>
				<line class="st1" x1="39.6" y1="219.3" x2="25.8" y2="219.3"/>
				<line class="st1" x1="37.7" y1="222.3" x2="23.9" y2="222.3"/>
				<line class="st1" x1="35.8" y1="225.3" x2="22" y2="225.3"/>
				<line class="st1" x1="33.9" y1="228.3" x2="20.1" y2="228.3"/>
				<polygon class="st0" points="44.6,214.5 34.6,198.8 18.6,198.8 28.6,214.5 				"/>
			</g>
			<g>
				<polygon class="st0" points="44.6,245.9 44.3,245.9 34.3,261.7 34.6,261.7 				"/>
				<polygon class="st0" points="28.9,245.9 28.6,245.9 18.6,261.7 18.9,261.7 				"/>
				<line class="st1" x1="41.5" y1="247.8" x2="27.7" y2="247.8"/>
				<line class="st1" x1="39.6" y1="250.8" x2="25.8" y2="250.8"/>
				<line class="st1" x1="37.7" y1="253.7" x2="23.9" y2="253.7"/>
				<line class="st1" x1="35.8" y1="256.7" x2="22" y2="256.7"/>
				<line class="st1" x1="33.9" y1="259.7" x2="20.1" y2="259.7"/>
				<polygon class="st0" points="44.6,245.9 34.6,230.2 18.6,230.2 28.6,245.9 				"/>
			</g>
			<g>
				<polygon class="st0" points="44.6,277.4 44.3,277.4 34.3,293.1 34.6,293.1 				"/>
				<polygon class="st0" points="28.9,277.4 28.6,277.4 18.6,293.1 18.9,293.1 				"/>
				<line class="st1" x1="41.5" y1="279.2" x2="27.7" y2="279.2"/>
				<line class="st1" x1="39.6" y1="282.2" x2="25.8" y2="282.2"/>
				<line class="st1" x1="37.7" y1="285.2" x2="23.9" y2="285.2"/>
				<line class="st1" x1="35.8" y1="288.2" x2="22" y2="288.2"/>
				<line class="st1" x1="33.9" y1="291.2" x2="20.1" y2="291.2"/>
				<polygon class="st0" points="44.6,277.4 34.6,261.7 18.6,261.7 28.6,277.4 				"/>
			</g>
			<g>
				<polygon class="st0" points="44.6,308.8 44.3,308.8 34.3,324.6 34.6,324.6 				"/>
				<polygon class="st0" points="28.9,308.8 28.6,308.8 18.6,324.6 18.9,324.6 				"/>
				<line class="st1" x1="41.5" y1="310.7" x2="27.7" y2="310.7"/>
				<line class="st1" x1="39.6" y1="313.7" x2="25.8" y2="313.7"/>
				<line class="st1" x1="37.7" y1="316.7" x2="23.9" y2="316.7"/>
				<line class="st1" x1="35.8" y1="319.6" x2="22" y2="319.6"/>
				<line class="st1" x1="33.9" y1="322.6" x2="20.1" y2="322.6"/>
				<polygon class="st0" points="44.6,308.8 34.6,293.1 18.6,293.1 28.6,308.8 				"/>
			</g>
			<g>
				<polygon class="st0" points="44.6,340.3 44.3,340.3 34.3,356 34.6,356 				"/>
				<polygon class="st0" points="28.9,340.3 28.6,340.3 18.6,356 18.9,356 				"/>
				<line class="st1" x1="41.5" y1="342.1" x2="27.7" y2="342.1"/>
				<line class="st1" x1="39.6" y1="345.1" x2="25.8" y2="345.1"/>
				<line class="st1" x1="37.7" y1="348.1" x2="23.9" y2="348.1"/>
				<line class="st1" x1="35.8" y1="351.1" x2="22" y2="351.1"/>
				<line class="st1" x1="33.9" y1="354.1" x2="20.1" y2="354.1"/>
				<polygon class="st0" points="44.6,340.3 34.6,324.6 18.6,324.6 28.6,340.3 				"/>
			</g>
			<g>
				<polygon class="st0" points="44.6,371.8 44.3,371.8 34.3,387.5 34.6,387.5 				"/>
				<polygon class="st0" points="28.9,371.8 28.6,371.8 18.6,387.5 18.9,387.5 				"/>
				<line class="st1" x1="41.5" y1="373.6" x2="27.7" y2="373.6"/>
				<line class="st1" x1="39.6" y1="376.6" x2="25.8" y2="376.6"/>
				<line class="st1" x1="37.7" y1="379.6" x2="23.9" y2="379.6"/>
				<line class="st1" x1="35.8" y1="382.5" x2="22" y2="382.5"/>
				<line class="st1" x1="33.9" y1="385.5" x2="20.1" y2="385.5"/>
				<polygon class="st0" points="44.6,371.8 34.6,356 18.6,356 28.6,371.8 				"/>
			</g>
			<g>
				<polygon class="st0" points="44.6,403.2 44.3,403.2 34.3,418.9 34.6,418.9 				"/>
				<polygon class="st0" points="28.9,403.2 28.6,403.2 18.6,418.9 18.9,418.9 				"/>
				<line class="st1" x1="41.5" y1="405" x2="27.7" y2="405"/>
				<line class="st1" x1="39.6" y1="408" x2="25.8" y2="408"/>
				<line class="st1" x1="37.7" y1="411" x2="23.9" y2="411"/>
				<line class="st1" x1="35.8" y1="414" x2="22" y2="414"/>
				<line class="st1" x1="33.9" y1="417" x2="20.1" y2="417"/>
				<polygon class="st0" points="44.6,403.2 34.6,387.5 18.6,387.5 28.6,403.2 				"/>
			</g>
			<g>
				<polygon class="st0" points="44.6,434.7 44.3,434.7 34.3,450.4 34.6,450.4 				"/>
				<polygon class="st0" points="28.9,434.7 28.6,434.7 18.6,450.4 18.9,450.4 				"/>
				<line class="st1" x1="41.5" y1="436.5" x2="27.7" y2="436.5"/>
				<line class="st1" x1="39.6" y1="439.5" x2="25.8" y2="439.5"/>
				<line class="st1" x1="37.7" y1="442.5" x2="23.9" y2="442.5"/>
				<line class="st1" x1="35.8" y1="445.4" x2="22" y2="445.4"/>
				<line class="st1" x1="33.9" y1="448.4" x2="20.1" y2="448.4"/>
				<polygon class="st0" points="44.6,434.7 34.6,418.9 18.6,418.9 28.6,434.7 				"/>
			</g>
			<g>
				<polygon class="st0" points="44.6,466.1 44.3,466.1 34.3,481.8 34.6,481.8 				"/>
				<polygon class="st0" points="28.9,466.1 28.6,466.1 18.6,481.8 18.9,481.8 				"/>
				<line class="st1" x1="41.5" y1="468" x2="27.7" y2="468"/>
				<line class="st1" x1="39.6" y1="470.9" x2="25.8" y2="470.9"/>
				<line class="st1" x1="37.7" y1="473.9" x2="23.9" y2="473.9"/>
				<line class="st1" x1="35.8" y1="476.9" x2="22" y2="476.9"/>
				<line class="st1" x1="33.9" y1="479.9" x2="20.1" y2="479.9"/>
				<polygon class="st0" points="44.6,466.1 34.6,450.4 18.6,450.4 28.6,466.1 				"/>
			</g>
			<g>
				<polygon class="st0" points="44.6,497.6 44.3,497.6 34.3,513.3 34.6,513.3 				"/>
				<polygon class="st0" points="28.9,497.6 28.6,497.6 18.6,513.3 18.9,513.3 				"/>
				<line class="st1" x1="41.5" y1="499.4" x2="27.7" y2="499.4"/>
				<line class="st1" x1="39.6" y1="502.4" x2="25.8" y2="502.4"/>
				<line class="st1" x1="37.7" y1="505.4" x2="23.9" y2="505.4"/>
				<line class="st1" x1="35.8" y1="508.3" x2="22" y2="508.3"/>
				<line class="st1" x1="33.9" y1="511.3" x2="20.1" y2="511.3"/>
				<polygon class="st0" points="44.6,497.6 34.6,481.8 18.6,481.8 28.6,497.6 				"/>
			</g>
			<g>
				<polygon class="st0" points="44.6,529 44.3,529 34.3,544.7 34.6,544.7 				"/>
				<polygon class="st0" points="28.9,529 28.6,529 18.6,544.7 18.9,544.7 				"/>
				<line class="st1" x1="41.5" y1="530.9" x2="27.7" y2="530.9"/>
				<line class="st1" x1="39.6" y1="533.8" x2="25.8" y2="533.8"/>
				<line class="st1" x1="37.7" y1="536.8" x2="23.9" y2="536.8"/>
				<line class="st1" x1="35.8" y1="539.8" x2="22" y2="539.8"/>
				<line class="st1" x1="33.9" y1="542.8" x2="20.1" y2="542.8"/>
				<polygon class="st0" points="44.6,529 34.6,513.3 18.6,513.3 28.6,529 				"/>
			</g>
			<g>
				<polygon class="st0" points="44.6,560.5 44.3,560.5 34.3,576.2 34.6,576.2 				"/>
				<polygon class="st0" points="28.9,560.5 28.6,560.5 18.6,576.2 18.9,576.2 				"/>
				<line class="st1" x1="41.5" y1="562.3" x2="27.7" y2="562.3"/>
				<line class="st1" x1="39.6" y1="565.3" x2="25.8" y2="565.3"/>
				<line class="st1" x1="37.7" y1="568.3" x2="23.9" y2="568.3"/>
				<line class="st1" x1="35.8" y1="571.3" x2="22" y2="571.3"/>
				<line class="st1" x1="33.9" y1="574.2" x2="20.1" y2="574.2"/>
				<polygon class="st0" points="44.6,560.5 34.6,544.7 18.6,544.7 28.6,560.5 				"/>
			</g>
			<g>
				<polygon class="st0" points="44.6,591.9 44.3,591.9 34.3,607.6 34.6,607.6 				"/>
				<polygon class="st0" points="28.9,591.9 28.6,591.9 18.6,607.6 18.9,607.6 				"/>
				<line class="st1" x1="41.5" y1="593.8" x2="27.7" y2="593.8"/>
				<line class="st1" x1="39.6" y1="596.7" x2="25.8" y2="596.7"/>
				<line class="st1" x1="37.7" y1="599.7" x2="23.9" y2="599.7"/>
				<line class="st1" x1="35.8" y1="602.7" x2="22" y2="602.7"/>
				<line class="st1" x1="33.9" y1="605.7" x2="20.1" y2="605.7"/>
				<polygon class="st0" points="44.6,591.9 34.6,576.2 18.6,576.2 28.6,591.9 				"/>
			</g>
			<g>
				<polygon class="st0" points="44.6,623.4 44.3,623.4 34.3,639.1 34.6,639.1 				"/>
				<polygon class="st0" points="28.9,623.4 28.6,623.4 18.6,639.1 18.9,639.1 				"/>
				<line class="st1" x1="41.5" y1="625.2" x2="27.7" y2="625.2"/>
				<line class="st1" x1="39.6" y1="628.2" x2="25.8" y2="628.2"/>
				<line class="st1" x1="37.7" y1="631.2" x2="23.9" y2="631.2"/>
				<line class="st1" x1="35.8" y1="634.2" x2="22" y2="634.2"/>
				<line class="st1" x1="33.9" y1="637.1" x2="20.1" y2="637.1"/>
				<polygon class="st0" points="44.6,623.4 34.6,607.6 18.6,607.6 28.6,623.4 				"/>
			</g>
			<g>
				<polygon class="st0" points="44.6,654.8 44.3,654.8 34.3,670.5 34.6,670.5 				"/>
				<polygon class="st0" points="28.9,654.8 28.6,654.8 18.6,670.5 18.9,670.5 				"/>
				<line class="st1" x1="41.5" y1="656.7" x2="27.7" y2="656.7"/>
				<line class="st1" x1="39.6" y1="659.6" x2="25.8" y2="659.6"/>
				<line class="st1" x1="37.7" y1="662.6" x2="23.9" y2="662.6"/>
				<line class="st1" x1="35.8" y1="665.6" x2="22" y2="665.6"/>
				<line class="st1" x1="33.9" y1="668.6" x2="20.1" y2="668.6"/>
				<polygon class="st0" points="44.6,654.8 34.6,639.1 18.6,639.1 28.6,654.8 				"/>
			</g>
			<g>
				<polygon class="st0" points="44.6,686.3 44.3,686.3 34.3,702 34.6,702 				"/>
				<polygon class="st0" points="28.9,686.3 28.6,686.3 18.6,702 18.9,702 				"/>
				<line class="st1" x1="41.5" y1="688.1" x2="27.7" y2="688.1"/>
				<line class="st1" x1="39.6" y1="691.1" x2="25.8" y2="691.1"/>
				<line class="st1" x1="37.7" y1="694.1" x2="23.9" y2="694.1"/>
				<line class="st1" x1="35.8" y1="697.1" x2="22" y2="697.1"/>
				<line class="st1" x1="33.9" y1="700" x2="20.1" y2="700"/>
				<polygon class="st0" points="44.6,686.3 34.6,670.5 18.6,670.5 28.6,686.3 				"/>
			</g>
			<g>
				<polygon class="st0" points="44.6,717.7 44.3,717.7 34.3,733.4 34.6,733.5 				"/>
				<polygon class="st0" points="28.9,717.7 28.6,717.7 18.6,733.5 18.9,733.5 				"/>
				<line class="st1" x1="41.5" y1="719.6" x2="27.7" y2="719.6"/>
				<line class="st1" x1="39.6" y1="722.6" x2="25.8" y2="722.6"/>
				<line class="st1" x1="37.7" y1="725.5" x2="23.9" y2="725.5"/>
				<line class="st1" x1="35.8" y1="728.5" x2="22" y2="728.5"/>
				<line class="st1" x1="33.9" y1="731.5" x2="20.1" y2="731.5"/>
				<polygon class="st0" points="44.6,717.7 34.6,702 18.6,702 28.6,717.7 				"/>
			</g>
			<g>
				<polygon class="st0" points="44.6,749.2 44.3,749.2 34.3,764.9 34.6,764.9 				"/>
				<polygon class="st0" points="28.9,749.2 28.6,749.2 18.6,764.9 18.9,764.9 				"/>
				<line class="st1" x1="41.5" y1="751" x2="27.7" y2="751"/>
				<line class="st1" x1="39.6" y1="754" x2="25.8" y2="754"/>
				<line class="st1" x1="37.7" y1="757" x2="23.9" y2="757"/>
				<line class="st1" x1="35.8" y1="760" x2="22" y2="760"/>
				<line class="st1" x1="33.9" y1="762.9" x2="20.1" y2="762.9"/>
				<polygon class="st0" points="44.6,749.2 34.6,733.4 18.6,733.4 28.6,749.2 				"/>
			</g>
			<g>
				<polygon class="st0" points="60.3,764.9 60.3,765.2 76.1,775.2 76.1,774.9 				"/>
				<polygon class="st0" points="60.3,780.6 60.3,780.9 76.1,790.9 76.1,790.6 				"/>
				<line class="st1" x1="62.2" y1="768" x2="62.2" y2="781.8"/>
				<line class="st1" x1="65.2" y1="769.9" x2="65.2" y2="783.7"/>
				<line class="st1" x1="68.1" y1="771.8" x2="68.1" y2="785.6"/>
				<line class="st1" x1="71.1" y1="773.7" x2="71.1" y2="787.5"/>
				<line class="st1" x1="74.1" y1="775.6" x2="74.1" y2="789.4"/>
				<polygon class="st0" points="60.3,764.9 44.6,774.9 44.6,790.9 60.3,780.9 				"/>
			</g>
			<g>
				<polygon class="st0" points="91.8,764.9 91.8,765.2 107.5,775.2 107.5,774.9 				"/>
				<polygon class="st0" points="91.8,780.6 91.8,780.9 107.5,790.9 107.5,790.6 				"/>
				<line class="st1" x1="93.6" y1="768" x2="93.6" y2="781.8"/>
				<line class="st1" x1="96.6" y1="769.9" x2="96.6" y2="783.7"/>
				<line class="st1" x1="99.6" y1="771.8" x2="99.6" y2="785.6"/>
				<line class="st1" x1="102.6" y1="773.7" x2="102.6" y2="787.5"/>
				<line class="st1" x1="105.5" y1="775.6" x2="105.5" y2="789.4"/>
				<polygon class="st0" points="91.8,764.9 76.1,774.9 76.1,790.9 91.8,780.9 				"/>
			</g>
			<g>
				<polygon class="st0" points="123.2,764.9 123.2,765.2 139,775.2 139,774.9 				"/>
				<polygon class="st0" points="123.2,780.6 123.2,780.9 139,790.9 139,790.6 				"/>
				<line class="st1" x1="125.1" y1="768" x2="125.1" y2="781.8"/>
				<line class="st1" x1="128.1" y1="769.9" x2="128.1" y2="783.7"/>
				<line class="st1" x1="131" y1="771.8" x2="131" y2="785.6"/>
				<line class="st1" x1="134" y1="773.7" x2="134" y2="787.5"/>
				<line class="st1" x1="137" y1="775.6" x2="137" y2="789.4"/>
				<polygon class="st0" points="123.2,764.9 107.5,774.9 107.5,790.9 123.2,780.9 				"/>
			</g>
			<g>
				<polygon class="st0" points="154.7,764.9 154.7,765.2 170.4,775.2 170.4,774.9 				"/>
				<polygon class="st0" points="154.7,780.6 154.7,780.9 170.4,790.9 170.4,790.6 				"/>
				<line class="st1" x1="156.5" y1="768" x2="156.5" y2="781.8"/>
				<line class="st1" x1="159.5" y1="769.9" x2="159.5" y2="783.7"/>
				<line class="st1" x1="162.5" y1="771.8" x2="162.5" y2="785.6"/>
				<line class="st1" x1="165.5" y1="773.7" x2="165.5" y2="787.5"/>
				<line class="st1" x1="168.5" y1="775.6" x2="168.5" y2="789.4"/>
				<polygon class="st0" points="154.7,764.9 139,774.9 139,790.9 154.7,780.9 				"/>
			</g>
			<g>
				<polygon class="st0" points="186.1,764.9 186.1,765.2 201.9,775.2 201.9,774.9 				"/>
				<polygon class="st0" points="186.1,780.6 186.1,780.9 201.9,790.9 201.9,790.6 				"/>
				<line class="st1" x1="188" y1="768" x2="188" y2="781.8"/>
				<line class="st1" x1="191" y1="769.9" x2="191" y2="783.7"/>
				<line class="st1" x1="193.9" y1="771.8" x2="193.9" y2="785.6"/>
				<line class="st1" x1="196.9" y1="773.7" x2="196.9" y2="787.5"/>
				<line class="st1" x1="199.9" y1="775.6" x2="199.9" y2="789.4"/>
				<polygon class="st0" points="186.1,764.9 170.4,774.9 170.4,790.9 186.1,780.9 				"/>
			</g>
			<g>
				<polygon class="st0" points="217.6,764.9 217.6,765.2 233.3,775.2 233.3,774.9 				"/>
				<polygon class="st0" points="217.6,780.6 217.6,780.9 233.3,790.9 233.3,790.6 				"/>
				<line class="st1" x1="219.4" y1="768" x2="219.4" y2="781.8"/>
				<line class="st1" x1="222.4" y1="769.9" x2="222.4" y2="783.7"/>
				<line class="st1" x1="225.4" y1="771.8" x2="225.4" y2="785.6"/>
				<line class="st1" x1="228.4" y1="773.7" x2="228.4" y2="787.5"/>
				<line class="st1" x1="231.4" y1="775.6" x2="231.4" y2="789.4"/>
				<polygon class="st0" points="217.6,764.9 201.9,774.9 201.9,790.9 217.6,780.9 				"/>
			</g>
			<g>
				<polygon class="st0" points="249,764.9 249,765.2 264.8,775.2 264.8,774.9 				"/>
				<polygon class="st0" points="249,780.6 249,780.9 264.8,790.9 264.8,790.6 				"/>
				<line class="st1" x1="250.9" y1="768" x2="250.9" y2="781.8"/>
				<line class="st1" x1="253.9" y1="769.9" x2="253.9" y2="783.7"/>
				<line class="st1" x1="256.8" y1="771.8" x2="256.8" y2="785.6"/>
				<line class="st1" x1="259.8" y1="773.7" x2="259.8" y2="787.5"/>
				<line class="st1" x1="262.8" y1="775.6" x2="262.8" y2="789.4"/>
				<polygon class="st0" points="249,764.9 233.3,774.9 233.3,790.9 249,780.9 				"/>
			</g>
			<g>
				<polygon class="st0" points="280.5,764.9 280.5,765.2 296.2,775.2 296.2,774.9 				"/>
				<polygon class="st0" points="280.5,780.6 280.5,780.9 296.2,790.9 296.2,790.6 				"/>
				<line class="st1" x1="282.3" y1="768" x2="282.3" y2="781.8"/>
				<line class="st1" x1="285.3" y1="769.9" x2="285.3" y2="783.7"/>
				<line class="st1" x1="288.3" y1="771.8" x2="288.3" y2="785.6"/>
				<line class="st1" x1="291.3" y1="773.7" x2="291.3" y2="787.5"/>
				<line class="st1" x1="294.3" y1="775.6" x2="294.3" y2="789.4"/>
				<polygon class="st0" points="280.5,764.9 264.8,774.9 264.8,790.9 280.5,780.9 				"/>
			</g>
			<g>
				<polygon class="st0" points="311.9,764.9 311.9,765.2 327.7,775.2 327.7,774.9 				"/>
				<polygon class="st0" points="311.9,780.6 311.9,780.9 327.7,790.9 327.7,790.6 				"/>
				<line class="st1" x1="313.8" y1="768" x2="313.8" y2="781.8"/>
				<line class="st1" x1="316.8" y1="769.9" x2="316.8" y2="783.7"/>
				<line class="st1" x1="319.8" y1="771.8" x2="319.8" y2="785.6"/>
				<line class="st1" x1="322.7" y1="773.7" x2="322.7" y2="787.5"/>
				<line class="st1" x1="325.7" y1="775.6" x2="325.7" y2="789.4"/>
				<polygon class="st0" points="311.9,764.9 296.2,774.9 296.2,790.9 311.9,780.9 				"/>
			</g>
			<g>
				<polygon class="st0" points="343.4,764.9 343.4,765.2 359.1,775.2 359.1,774.9 				"/>
				<polygon class="st0" points="343.4,780.6 343.4,780.9 359.1,790.9 359.1,790.6 				"/>
				<line class="st1" x1="345.2" y1="768" x2="345.2" y2="781.8"/>
				<line class="st1" x1="348.2" y1="769.9" x2="348.2" y2="783.7"/>
				<line class="st1" x1="351.2" y1="771.8" x2="351.2" y2="785.6"/>
				<line class="st1" x1="354.2" y1="773.7" x2="354.2" y2="787.5"/>
				<line class="st1" x1="357.2" y1="775.6" x2="357.2" y2="789.4"/>
				<polygon class="st0" points="343.4,764.9 327.7,774.9 327.7,790.9 343.4,780.9 				"/>
			</g>
			<g>
				<polygon class="st0" points="374.9,764.9 374.9,765.2 390.6,775.2 390.6,774.9 				"/>
				<polygon class="st0" points="374.9,780.6 374.9,780.9 390.6,790.9 390.6,790.6 				"/>
				<line class="st1" x1="376.7" y1="768" x2="376.7" y2="781.8"/>
				<line class="st1" x1="379.7" y1="769.9" x2="379.7" y2="783.7"/>
				<line class="st1" x1="382.7" y1="771.8" x2="382.7" y2="785.6"/>
				<line class="st1" x1="385.6" y1="773.7" x2="385.6" y2="787.5"/>
				<line class="st1" x1="388.6" y1="775.6" x2="388.6" y2="789.4"/>
				<polygon class="st0" points="374.9,764.9 359.1,774.9 359.1,790.9 374.9,780.9 				"/>
			</g>
			<g>
				<polygon class="st0" points="406.3,764.9 406.3,765.2 422,775.2 422,774.9 				"/>
				<polygon class="st0" points="406.3,780.6 406.3,780.9 422,790.9 422,790.6 				"/>
				<line class="st1" x1="408.1" y1="768" x2="408.1" y2="781.8"/>
				<line class="st1" x1="411.1" y1="769.9" x2="411.1" y2="783.7"/>
				<line class="st1" x1="414.1" y1="771.8" x2="414.1" y2="785.6"/>
				<line class="st1" x1="417.1" y1="773.7" x2="417.1" y2="787.5"/>
				<line class="st1" x1="420.1" y1="775.6" x2="420.1" y2="789.4"/>
				<polygon class="st0" points="406.3,764.9 390.6,774.9 390.6,790.9 406.3,780.9 				"/>
			</g>
			<g>
				<polygon class="st0" points="437.8,764.9 437.8,765.2 453.5,775.2 453.5,774.9 				"/>
				<polygon class="st0" points="437.8,780.6 437.8,780.9 453.5,790.9 453.5,790.6 				"/>
				<line class="st1" x1="439.6" y1="768" x2="439.6" y2="781.8"/>
				<line class="st1" x1="442.6" y1="769.9" x2="442.6" y2="783.7"/>
				<line class="st1" x1="445.6" y1="771.8" x2="445.6" y2="785.6"/>
				<line class="st1" x1="448.5" y1="773.7" x2="448.5" y2="787.5"/>
				<line class="st1" x1="451.5" y1="775.6" x2="451.5" y2="789.4"/>
				<polygon class="st0" points="437.8,764.9 422,774.9 422,790.9 437.8,780.9 				"/>
			</g>
			<g>
				<polygon class="st0" points="469.2,764.9 469.2,765.2 484.9,775.2 484.9,774.9 				"/>
				<polygon class="st0" points="469.2,780.6 469.2,780.9 484.9,790.9 484.9,790.6 				"/>
				<line class="st1" x1="471.1" y1="768" x2="471.1" y2="781.8"/>
				<line class="st1" x1="474" y1="769.9" x2="474" y2="783.7"/>
				<line class="st1" x1="477" y1="771.8" x2="477" y2="785.6"/>
				<line class="st1" x1="480" y1="773.7" x2="480" y2="787.5"/>
				<line class="st1" x1="483" y1="775.6" x2="483" y2="789.4"/>
				<polygon class="st0" points="469.2,764.9 453.5,774.9 453.5,790.9 469.2,780.9 				"/>
			</g>
			<g>
				<polygon class="st0" points="500.7,764.9 500.7,765.2 516.4,775.2 516.4,774.9 				"/>
				<polygon class="st0" points="500.7,780.6 500.7,780.9 516.4,790.9 516.4,790.6 				"/>
				<line class="st1" x1="502.5" y1="768" x2="502.5" y2="781.8"/>
				<line class="st1" x1="505.5" y1="769.9" x2="505.5" y2="783.7"/>
				<line class="st1" x1="508.5" y1="771.8" x2="508.5" y2="785.6"/>
				<line class="st1" x1="511.4" y1="773.7" x2="511.4" y2="787.5"/>
				<line class="st1" x1="514.4" y1="775.6" x2="514.4" y2="789.4"/>
				<polygon class="st0" points="500.7,764.9 484.9,774.9 484.9,790.9 500.7,780.9 				"/>
			</g>
			<g>
				<polygon class="st0" points="532.1,764.9 532.1,765.2 547.8,775.2 547.8,774.9 				"/>
				<polygon class="st0" points="532.1,780.6 532.1,780.9 547.8,790.9 547.8,790.6 				"/>
				<line class="st1" x1="534" y1="768" x2="534" y2="781.8"/>
				<line class="st1" x1="536.9" y1="769.9" x2="536.9" y2="783.7"/>
				<line class="st1" x1="539.9" y1="771.8" x2="539.9" y2="785.6"/>
				<line class="st1" x1="542.9" y1="773.7" x2="542.9" y2="787.5"/>
				<line class="st1" x1="545.9" y1="775.6" x2="545.9" y2="789.4"/>
				<polygon class="st0" points="532.1,764.9 516.4,774.9 516.4,790.9 532.1,780.9 				"/>
			</g>
			<g>
				<polygon class="st0" points="563.6,764.9 563.6,765.2 579.3,775.2 579.3,774.9 				"/>
				<polygon class="st0" points="563.6,780.6 563.6,780.9 579.3,790.9 579.3,790.6 				"/>
				<line class="st1" x1="565.4" y1="768" x2="565.4" y2="781.8"/>
				<line class="st1" x1="568.4" y1="769.9" x2="568.4" y2="783.7"/>
				<line class="st1" x1="571.4" y1="771.8" x2="571.4" y2="785.6"/>
				<line class="st1" x1="574.4" y1="773.7" x2="574.4" y2="787.5"/>
				<line class="st1" x1="577.3" y1="775.6" x2="577.3" y2="789.4"/>
				<polygon class="st0" points="563.6,764.9 547.8,774.9 547.8,790.9 563.6,780.9 				"/>
			</g>
			<g>
				<polygon class="st0" points="595,764.9 595,765.2 610.7,775.2 610.7,774.9 				"/>
				<polygon class="st0" points="595,780.6 595,780.9 610.7,790.9 610.7,790.6 				"/>
				<line class="st1" x1="596.9" y1="768" x2="596.9" y2="781.8"/>
				<line class="st1" x1="599.8" y1="769.9" x2="599.8" y2="783.7"/>
				<line class="st1" x1="602.8" y1="771.8" x2="602.8" y2="785.6"/>
				<line class="st1" x1="605.8" y1="773.7" x2="605.8" y2="787.5"/>
				<line class="st1" x1="608.8" y1="775.6" x2="608.8" y2="789.4"/>
				<polygon class="st0" points="595,764.9 579.3,774.9 579.3,790.9 595,780.9 				"/>
			</g>
			<g>
				<polygon class="st0" points="626.5,764.9 626.5,765.2 642.2,775.2 642.2,774.9 				"/>
				<polygon class="st0" points="626.5,780.6 626.5,780.9 642.2,790.9 642.2,790.6 				"/>
				<line class="st1" x1="628.3" y1="768" x2="628.3" y2="781.8"/>
				<line class="st1" x1="631.3" y1="769.9" x2="631.3" y2="783.7"/>
				<line class="st1" x1="634.3" y1="771.8" x2="634.3" y2="785.6"/>
				<line class="st1" x1="637.3" y1="773.7" x2="637.3" y2="787.5"/>
				<line class="st1" x1="640.2" y1="775.6" x2="640.2" y2="789.4"/>
				<polygon class="st0" points="626.5,764.9 610.7,774.9 610.7,790.9 626.5,780.9 				"/>
			</g>
			<g>
				<polygon class="st0" points="657.9,764.9 657.9,765.2 673.6,775.2 673.6,774.9 				"/>
				<polygon class="st0" points="657.9,780.6 657.9,780.9 673.6,790.9 673.6,790.6 				"/>
				<line class="st1" x1="659.8" y1="768" x2="659.8" y2="781.8"/>
				<line class="st1" x1="662.7" y1="769.9" x2="662.7" y2="783.7"/>
				<line class="st1" x1="665.7" y1="771.8" x2="665.7" y2="785.6"/>
				<line class="st1" x1="668.7" y1="773.7" x2="668.7" y2="787.5"/>
				<line class="st1" x1="671.7" y1="775.6" x2="671.7" y2="789.4"/>
				<polygon class="st0" points="657.9,764.9 642.2,774.9 642.2,790.9 657.9,780.9 				"/>
			</g>
			<g>
				<polygon class="st0" points="689.4,764.9 689.4,765.2 705.1,775.2 705.1,774.9 				"/>
				<polygon class="st0" points="689.4,780.6 689.4,780.9 705.1,790.9 705.1,790.6 				"/>
				<line class="st1" x1="691.2" y1="768" x2="691.2" y2="781.8"/>
				<line class="st1" x1="694.2" y1="769.9" x2="694.2" y2="783.7"/>
				<line class="st1" x1="697.2" y1="771.8" x2="697.2" y2="785.6"/>
				<line class="st1" x1="700.2" y1="773.7" x2="700.2" y2="787.5"/>
				<line class="st1" x1="703.1" y1="775.6" x2="703.1" y2="789.4"/>
				<polygon class="st0" points="689.4,764.9 673.6,774.9 673.6,790.9 689.4,780.9 				"/>
			</g>
			<g>
				<polygon class="st0" points="720.8,764.9 720.8,765.2 736.5,775.2 736.6,774.9 				"/>
				<polygon class="st0" points="720.8,780.6 720.8,780.9 736.6,790.9 736.6,790.6 				"/>
				<line class="st1" x1="722.7" y1="768" x2="722.7" y2="781.8"/>
				<line class="st1" x1="725.7" y1="769.9" x2="725.7" y2="783.7"/>
				<line class="st1" x1="728.6" y1="771.8" x2="728.6" y2="785.6"/>
				<line class="st1" x1="731.6" y1="773.7" x2="731.6" y2="787.5"/>
				<line class="st1" x1="734.6" y1="775.6" x2="734.6" y2="789.4"/>
				<polygon class="st0" points="720.8,764.9 705.1,774.9 705.1,790.9 720.8,780.9 				"/>
			</g>
			<g>
				<polygon class="st0" points="752.3,764.9 752.3,765.2 768,775.2 768,774.9 				"/>
				<polygon class="st0" points="752.3,780.6 752.3,780.9 768,790.9 768,790.6 				"/>
				<line class="st1" x1="754.1" y1="768" x2="754.1" y2="781.8"/>
				<line class="st1" x1="757.1" y1="769.9" x2="757.1" y2="783.7"/>
				<line class="st1" x1="760.1" y1="771.8" x2="760.1" y2="785.6"/>
				<line class="st1" x1="763.1" y1="773.7" x2="763.1" y2="787.5"/>
				<line class="st1" x1="766" y1="775.6" x2="766" y2="789.4"/>
				<polygon class="st0" points="752.3,764.9 736.5,774.9 736.5,790.9 752.3,780.9 				"/>
			</g>
			<g>
				<g>
					<line class="st1" x1="773.5" y1="33" x2="780" y2="23.4"/>
					<line class="st1" x1="772.4" y1="32.3" x2="777" y2="21.5"/>
					<line class="st1" x1="771.3" y1="31.6" x2="774" y2="19.6"/>
					<line class="st1" x1="770.2" y1="30.9" x2="770.9" y2="17.7"/>
					<rect x="768" y="15.5" class="st2" width="26" height="26"/>
					<polygon class="st0" points="783.8,25.7 784,25.5 768,15.5 768,15.8 					"/>
					<polygon class="st0" points="774.3,35.2 768,31.2 768,31.5 774.2,35.3 					"/>
					<polygon class="st0" points="774.2,35.3 778,41.5 794,41.5 784,25.5 					"/>
				</g>
			</g>
			<g>
				<g>
					<line class="st1" x1="36.1" y1="36" x2="26.5" y2="29.5"/>
					<line class="st1" x1="35.4" y1="37.1" x2="24.6" y2="32.5"/>
					<line class="st1" x1="34.7" y1="38.2" x2="22.7" y2="35.5"/>
					<line class="st1" x1="34" y1="39.3" x2="20.8" y2="38.6"/>
					<rect x="18.6" y="15.5" class="st2" width="26" height="26"/>
					<polygon class="st0" points="28.8,25.7 28.6,25.5 18.6,41.5 18.9,41.5 					"/>
					<polygon class="st0" points="38.3,35.2 34.3,41.5 34.6,41.5 38.4,35.3 					"/>
					<polygon class="st0" points="38.4,35.3 44.6,31.5 44.6,15.5 28.6,25.5 					"/>
				</g>
			</g>
			<g>
				<g>
					<line class="st1" x1="39.1" y1="773.4" x2="32.6" y2="783"/>
					<line class="st1" x1="40.2" y1="774.1" x2="35.6" y2="784.9"/>
					<line class="st1" x1="41.3" y1="774.8" x2="38.6" y2="786.8"/>
					<line class="st1" x1="42.4" y1="775.5" x2="41.7" y2="788.7"/>
					<rect x="18.6" y="764.9" class="st2" width="26" height="26"/>
					<polygon class="st0" points="28.8,780.7 28.6,780.9 44.6,790.9 44.6,790.6 					"/>
					<polygon class="st0" points="38.3,771.2 44.6,775.2 44.6,774.9 38.4,771.1 					"/>
					<polygon class="st0" points="38.4,771.1 34.6,764.9 18.6,764.9 28.6,780.9 					"/>
				</g>
			</g>
			<g>
				<g>
					<line class="st1" x1="776.5" y1="770.4" x2="786.1" y2="776.9"/>
					<line class="st1" x1="777.2" y1="769.3" x2="788" y2="773.9"/>
					<line class="st1" x1="777.9" y1="768.2" x2="789.9" y2="770.9"/>
					<line class="st1" x1="778.6" y1="767.1" x2="791.8" y2="767.8"/>
					<rect x="768" y="764.9" class="st2" width="26" height="26"/>
					<polygon class="st0" points="783.8,780.7 784,780.9 794,764.9 793.7,764.9 					"/>
					<polygon class="st0" points="774.3,771.2 778.3,764.9 778,764.9 774.2,771.1 					"/>
					<polygon class="st0" points="774.2,771.1 768,774.9 768,790.9 784,780.9 					"/>
				</g>
			</g>
		</g>
	</g>
</g>
</svg>
