<?xml version="1.0" encoding="utf-8"?>
<!-- Generator: Adobe Illustrator 25.4.1, SVG Export Plug-In . SVG Version: 6.00 Build 0)  -->
<svg version="1.1" id="Calque_1" xmlns="http://www.w3.org/2000/svg" xmlns:xlink="http://www.w3.org/1999/xlink" x="0px" y="0px"
	 viewBox="0 0 800 800" style="enable-background:new 0 0 800 800;" xml:space="preserve">
<g>
	<path d="M402.6,750.2c-46.4-42.1-67.1-126-18.3-194.4c-16.9-3.3-33.8-6.6-51.1-10.1c0.9,6.6,2,13.6,2.8,20.5
		c6.8,62.1-29,123.6-86.5,148.9c-9.7,4.2-14.3,2.3-18.1-7.6c-24.6-63.1-1.6-136.3,54.9-174.5c2-1.4,4.1-2.7,6.3-4.2
		c-14.6-9.8-29.1-19.5-44-29.5c-0.8,3.6-1.7,7.3-2.5,11.1c-14.5,64.3-73.7,112.7-139.2,113.8c-11.1,0.2-14.3-3.2-14-14.3
		c2.1-69.7,50.3-125.7,120.9-140.6c1.2-0.3,2.5-0.5,4.5-0.9c-50.5-63.7-68.5-134.9-50.8-213.8c13.1-58.4,44.7-105.6,92.6-141.3
		c96.9-72.3,229.4-63.5,317.6,20.8c87.4,83.6,104.2,229.2,17.5,334.2c5,1.1,9.6,2.1,14.2,3.3c64,15.9,109.6,73.2,111.1,139.1
		c0.2,10.3-3.2,13.7-13.4,13.6c-67.9-0.8-128.9-52.5-141.1-119.7c-0.3-1.7-0.8-3.4-1.2-5.2c-14.8,9.9-29.3,19.6-43.3,29
		c8.9,7.5,19.1,14.5,27.4,23.4c42.2,45.2,53,97.4,32.8,156c-3.5,10-8.3,11.8-18.1,7.5c-63-27.6-98.4-96.9-84.2-164.7
		c0.3-1.5,0.5-3,0.8-4.7c-17.3,3.4-34.2,6.7-50.7,10c40.9,68.9,38.2,134.3-18.9,194.5C407.9,750.2,405.2,750.2,402.6,750.2z
		 M181,310.3c0.1,124.5,101.4,225.7,225.8,225.6c124.2-0.1,224.9-100.9,225.4-225.4c0.5-124.2-101-225.8-225.5-225.9
		C282.3,84.6,180.9,185.9,181,310.3z M567,624.3c-4.8-31.4-41.2-76.8-65-81.2c-10.6,36-6.4,70.1,12.8,103.4
		C529.1,630.4,546.6,623.6,567,624.3z M229.3,487.4c-38.5,4.3-68.5,21.2-91.9,51.6c20.3,7.1,33.4,20.4,40.5,40.5
		C208.1,556,225.2,526.1,229.3,487.4z M675.1,539.1c-15.7-26.8-67.5-55.3-91.1-50.3c4.1,37.3,21.1,67.2,50.9,90.3
		C647.5,554.2,653.7,548.1,675.1,539.1z M245.4,624.5c21.6-0.9,38.9,6.4,53,22c18.9-33.6,23.4-67.6,12.2-104.5
		C276.8,560.2,255.7,587.4,245.4,624.5z M378,660.5c9.8-1.8,19.1-4.9,28.4-4.9c9.5,0,19,3.1,28.5,4.9c7.6-28.3-8.6-84.1-28.9-98.5
		C383.2,587.5,371.2,630.4,378,660.5z M408,726.8c7.5-14.1,14.1-26.6,20.7-39.2c1.6-3.1,1.1-5.2-2.2-7c-13.5-7.2-26.9-7.2-40.1,0.4
		c-1.4,0.8-2.7,3.8-2.3,5.1C389,700.4,396.3,713.2,408,726.8z M565.3,693.6c5.1-15.9,7-31.5,5.6-47.5c-17-4.7-36.2,3.6-43,18.4
		C538.4,676.3,550.5,686.2,565.3,693.6z M113.2,603.2c12.8-0.2,33.7-5.4,42.9-11.1c1.5-0.9,2.8-3.9,2.4-5.7
		c-2.3-12.8-15.9-26.2-28.9-28.4c-1.4-0.2-4,0.8-4.6,1.9C118.4,573.4,114.5,587.6,113.2,603.2z M699.9,603.5
		c-1.2-16.6-5.6-31.7-12.8-45.9c-15.6,2.1-29.4,14-32.4,28.3c-0.4,1.9,1,5.4,2.5,6.2C670.4,598.6,684.4,602.6,699.9,603.5z
		 M286,665.5c-8.7-16.8-29.6-25.2-43.9-18.7c-1,15.7,0.5,31.2,6.5,48.4C261.8,684.7,274,675,286,665.5z"/>
	<path d="M612.1,310.2c0.1,105.9-81.2,195.1-186.3,204.6c-108.8,9.8-206.5-66.1-222.3-173.6c-8.6-58.5,5.7-111.5,41.9-158.4
		c5.8-7.5,14.1-7.8,18.1-0.8c3.1,5.4,0.5,9.7-2.8,14c-19.1,24.3-30.9,51.8-36.7,82.2c-17.1,90.4,40.4,184.1,128.8,209.5
		c105.8,30.5,210.7-31.4,235.2-138.8c23-101-47.9-205.5-150.3-221.4c-54-8.4-102.6,4.1-145.9,37.3c-4.4,3.4-8.8,5.4-14,2
		c-6-4-5.8-11.8,0.5-16.9c18.6-15,39.2-26.4,61.8-34c114.2-38.1,234,26,265.1,142.2c4.5,16.9,5.8,34.6,8.6,51.9
		C613.1,310.1,612.6,310.1,612.1,310.2z"/>
	<path d="M531.7,310.1c0.1,69-56,125.3-125,125.4c-69,0.1-125.2-55.9-125.3-125c-0.2-69,56-125.3,125-125.4
		C475.4,185,531.6,241,531.7,310.1z M301.5,309.7c-0.4,57.6,46.4,105.2,103.9,105.6c58.5,0.4,105.8-46.2,106.3-104.6
		c0.4-57.6-46.4-105.2-103.9-105.6C349.3,204.8,301.9,251.3,301.5,309.7z"/>
	<path d="M321.6,310.6c-0.2-46.5,37.7-85,84.2-85.3c47.3-0.3,85.8,37.9,85.8,85c0,46.6-38,84.8-84.5,85
		C360.1,395.5,321.8,357.5,321.6,310.6z M341.7,310.5c0.2,36,29.5,65,65.4,64.7c35.6-0.2,64.5-29.5,64.3-65.1
		c-0.2-36-29.4-65-65.4-64.7C370.5,245.6,341.6,274.9,341.7,310.5z"/>
	<path d="M451.3,310.2c0,24.6-20,44.8-44.6,44.9c-24.9,0.1-45.2-20.3-45-45.1c0.2-24.7,20.2-44.6,44.9-44.5
		C431.3,265.5,451.3,285.6,451.3,310.2z M406.6,285.5c-13.6,0-24.6,10.9-24.7,24.5c-0.1,13.6,10.7,24.8,24.3,25
		c13.8,0.2,25.1-11,25.1-24.9C431.2,296.6,420.2,285.6,406.6,285.5z"/>
</g>
</svg>
