<?xml version="1.0" encoding="utf-8"?>
<!-- Generator: Adobe Illustrator 24.0.0, SVG Export Plug-In . SVG Version: 6.00 Build 0)  -->
<svg version="1.1" id="Calque_1" xmlns="http://www.w3.org/2000/svg" xmlns:xlink="http://www.w3.org/1999/xlink" x="0px" y="0px"
	 viewBox="0 0 800 800" style="enable-background:new 0 0 800 800;" xml:space="preserve">
<g>
	<path d="M162.8,150c14.3,10.7,30,14,48.2,9.3c-16,16.3-31.2,31.8-47.3,48.2c4.1-18-0.3-33.4-10.1-48.9c0,2.2-0.2,3.3-0.1,4.3
		c1.3,12.9-2.1,23.7-14,30.3c-13.1,7.3-26.6,8.5-39.7-0.3c-9.8-6.6-15.4-16.5-19.3-27.3c-4.7-13-6-26.5-5.2-40.3
		c0.7-12.5,1.2-25.1,1.1-37.6c-0.1-5.5-2.1-11-3.2-16.4c18.2,6.6,37.4,2.6,56.6,1.4c19.4-1.3,37.8,1.9,54.3,12.8
		c19.9,13.2,23.2,40.4,7.1,56.7c-6.3,6.4-14.1,8.4-22.8,8.2C166.6,150.3,164.7,150.1,162.8,150z"/>
	<path d="M653,161.1c-8.2,15.9-8.8,31.9-1.2,49.1c-18.8-13.1-36.5-25.5-55.4-38.7c18.4,1.1,32.9-5.8,46.5-18.1
		c-2.2,0.3-3.2,0.4-4.2,0.6c-12.5,3.4-23.7,1.8-32.2-8.8c-9.3-11.7-12.8-24.8-6.3-39.2c4.9-10.8,13.7-17.9,23.7-23.5
		c12.1-6.8,25.1-10.3,38.9-11.8c12.5-1.4,25-2.9,37.3-5.2c5.4-1,10.5-3.9,15.7-5.9c-3.5,19,3.6,37.3,8,56.1
		c4.4,18.9,4.4,37.6-3.7,55.7c-9.7,21.8-36,29.6-54.8,16.4c-7.4-5.2-10.6-12.6-11.8-21.1C653.3,164.9,653.2,163,653,161.1z"/>
	<path d="M162.8,650c14.3-10.7,30-14,48.2-9.3c-16-16.3-31.2-31.8-47.3-48.2c4.1,18-0.3,33.4-10.1,48.9c0-2.2-0.2-3.3-0.1-4.3
		c1.3-12.9-2.1-23.7-14-30.3c-13.1-7.3-26.6-8.5-39.7,0.3c-9.8,6.6-15.4,16.5-19.3,27.3c-4.7,13-6,26.5-5.2,40.3
		c0.7,12.5,1.2,25.1,1.1,37.6c-0.1,5.5-2.1,11-3.2,16.4c18.2-6.6,37.4-2.6,56.6-1.4c19.4,1.3,37.8-1.9,54.3-12.8
		c19.9-13.2,23.2-40.4,7.1-56.7c-6.3-6.4-14.1-8.4-22.8-8.2C166.6,649.7,164.7,649.9,162.8,650z"/>
	<path d="M652.9,638.9c-8.2-15.9-8.8-31.9-1.2-49.1c-18.8,13.1-36.5,25.5-55.4,38.7c18.4-1.1,32.9,5.8,46.5,18.1
		c-2.2-0.3-3.2-0.4-4.2-0.6c-12.5-3.4-23.7-1.8-32.2,8.8c-9.3,11.7-12.8,24.8-6.3,39.2c4.9,10.8,13.7,17.9,23.7,23.5
		c12.1,6.8,25.1,10.3,38.9,11.8c12.5,1.4,25,2.9,37.3,5.2c5.4,1,10.5,3.9,15.7,5.9c-3.5-19,3.6-37.3,8-56.1
		c4.4-18.9,4.4-37.6-3.7-55.7c-9.7-21.8-36-29.6-54.8-16.4c-7.4,5.2-10.6,12.6-11.8,21.1C653.2,635.1,653.1,637,652.9,638.9z"/>
</g>
</svg>
