<?xml version="1.0" encoding="utf-8"?>
<!-- Generator: Adobe Illustrator 24.0.0, SVG Export Plug-In . SVG Version: 6.00 Build 0)  -->
<svg version="1.1" id="Calque_1" xmlns="http://www.w3.org/2000/svg" xmlns:xlink="http://www.w3.org/1999/xlink" x="0px" y="0px"
	 viewBox="0 0 800 800" style="enable-background:new 0 0 800 800;" xml:space="preserve">
<g>
	<path d="M501,111.1v23.5c-44.9,18.8-76.5,63.2-76.5,114.9c0,17.2,3.5,33.6,9.8,48.5h-77c6.9-15.4,10.7-32.5,10.7-50.5
		c0-49.2-28.5-91.8-70-112v-24.5c0-36.4,29.5-66,66-66H435C471.5,45.1,501,74.6,501,111.1z"/>
	<path d="M501,654.2v32.8c0,36.4-29.5,65.9-66,65.9H364c-36.4,0-66-29.5-66-65.9v-35.3c42.9-19.6,72.8-63,72.8-113.3
		c0-13.1-2-25.7-5.8-37.5h68.7c-4.2,12.4-6.4,25.7-6.4,39.5C427.3,591.2,457.5,634.8,501,654.2z"/>
	<path d="M501,364.4v62.4c-31.6,14.1-56.3,41.1-67.3,74.2H365c-10.6-33.7-35.2-61.2-67-75.8v-65.8c26.3-12.8,47.4-34.6,59.3-61.5h77
		C447,327.9,471,351.9,501,364.4z"/>
	<path d="M298,359.5v65.8c-15.8-7.2-33.3-11.2-51.8-11.2c-55.7,0-102.8,36.6-118.8,87H111c-36.4,0-66-29.5-66-65.9V364
		c0-36.4,29.5-66,66-66h18.7c19.4,43.6,63,74,113.8,74C263,372,281.5,367.5,298,359.5z"/>
	<path d="M753,364v71.1c0,36.4-29.5,65.9-66,65.9h-17.2c-16.5-49.4-63.1-85-118.1-85c-18.1,0-35.3,3.9-50.8,10.8v-62.4
		c14.8,6.2,31,9.6,48,9.6c51.5,0,95.8-31.3,114.7-76H687C723.4,298,753,327.5,753,364z"/>
</g>
</svg>
